<?xml version="1.0" encoding="UTF-8"?><svg id="a" xmlns="http://www.w3.org/2000/svg" viewBox="0 0 1920 1080"><defs><style>.b{fill:#6d28d9;}.c{fill:none;}.d{fill:#7c3aed;}</style></defs><rect class="c" y="0" width="1920" height="1080"/><g><polygon class="d" points="729 0 1920 0 1920 1080 1229.38 1080 729 0"/><path class="b" d="M910.1,391.22s0-.1,.03-.27l-.08-.17c.03,.28,.05,.44,.05,.44Z"/><path class="d" d="M1291.93,1080h27.69c-3.61-2.74-7.48-4.7-12.03-4.92-4.84-.23-10.4,1.49-15.66,4.92Z"/><path class="d" d="M1792.3,1080h27.69c-3.61-2.74-7.48-4.7-12.03-4.92-4.84-.23-10.4,1.49-15.66,4.92Z"/><path class="d" d="M1882.48,906.68c-7.39,27.66-20.24,37.72-20.24,37.72,0,0,20.68-32.41,10.34-78.52-10.34-46.11-53.93-34.65-64.83-29.9-10.9,4.75-24.59,24.59-60.08,17.6-35.49-6.99-37.44-81.87,17.32-99.76,54.77-17.88,104.23,33.25,113.45,63.43,9.22,30.18,11.42,61.75,4.04,89.42Zm-286.96-61.71c-2.21-27.83-16.47-40.86-17.7-63.73-1.23-22.87,25.33-38.85,47.95-16.23,22.62,22.62,11.31,73.27-10.82,97.86-22.13,24.59-44.51,36.39-44.51,36.39,.98-.25,27.29-26.47,25.08-54.3Zm-168.83-60.4c-26.83,33.25-26.55,67.9-26.55,67.9,0,0-11.46-69.02,3.35-96.96,13.94-26.31,37.06-42.95,64.2-44.58h0c1.69-.1,3.39-.15,5.11-.13,29.34,.28,31.85,30.74,22.91,40.24-4.5,4.78-15.14,4.82-28.03,7.92h0c-12.74,3.05-27.67,9.08-41.01,25.62Zm6.15,70.59c-20.4,10.44-22.35,36.43-22.35,36.43,0,0-4.19-32.97,5.59-56.44,9.78-23.47,25.71-16.21,28.78-11.74,3.07,4.47,8.38,21.31-12.02,31.75Zm-46.07-93.93s-27.98-17.34-40.17-52.68h-.04c-3.5-10.17-5.69-21.83-5.53-35,.74-59.01,46.47-63.71,64.18-56.93,17.7,6.77,23.6,44.89,5.9,66.03-8.39,10.02-15.2,18.26-20.13,25.9h-.07c-5.43,8.44-8.55,16.14-8.81,24.65-.5,16.23,4.66,28.03,4.66,28.03Zm-14.56,104.66c-10.34-46.11-53.93-34.65-64.83-29.9-10.9,4.75-24.59,24.59-60.08,17.6-35.49-6.99-37.44-81.87,17.32-99.76,54.77-17.88,104.23,33.25,113.45,63.43,9.22,30.18,11.42,61.75,4.04,89.42-7.39,27.66-20.24,37.72-20.24,37.72,0,0,20.68-32.41,10.34-78.52Zm-277.06-521.29c-2.21-27.83-16.47-40.86-17.7-63.73-1.23-22.87,25.33-38.85,47.95-16.23,22.62,22.62,11.31,73.27-10.82,97.86-22.13,24.59-44.51,36.39-44.51,36.39,.98-.25,27.29-26.47,25.08-54.3Zm221.3-164.54c1.23,4.92,3.2,12.29,3.2,12.29,0,0-28.03-24.34-28.77-55.08-.74-30.74,20.16-36.15,31.97-30.49,11.8,5.66,11.07,28.28,0,38.85-11.06,10.57-7.62,29.51-6.39,34.42Zm10.4,28.11h.33c13.22,11.02,25.67,27.07,33.52,39.55,13.05,20.77,19.88,52.38,19.88,52.38,0,0-17.27-37.99-48.3-47.56-31.03-9.57-56.84-9.86-62.64-30.45-1.58-5.62-1.51-10.21-.17-13.92h.09c3.72-9.67,16.35-13.12,31.4-12.49,8.23,.34,17.22,5.32,25.89,12.49Zm268.68,136.43c-2.21-27.83-16.47-40.86-17.7-63.73-1.23-22.87,25.33-38.85,47.95-16.23,22.62,22.62,11.31,73.27-10.82,97.86-22.13,24.59-44.51,36.39-44.51,36.39,.98-.25,27.29-26.47,25.08-54.3Zm168.8-115.1c3.32,13.65-28.03,22.87-22.47-7.38,1.04-5.65,2.76-10.24,4.87-13.95h.06c9.19-16.06,25.66-15.82,25.66-15.82,0,0-6.27,3.32-9.22,9.22-.95,1.9-1.51,4.07-1.74,6.6h0c-.45,5.3,.61,12.14,2.85,21.33Zm-19.18-42.08c-7.2,3.34-11.77,11.38-14.62,20.75h-.03c-2.67,8.83-3.8,18.84-4.16,27.23-.74,17.33-37.62,20.29-42.78,0-2.4-9.42-2.88-18.67-.06-27.23h.03c3.27-9.84,10.93-18.74,25.11-25.9,26.56-13.4,72.29-2.09,72.29-2.09,0,0-21.76,.74-35.78,7.24Zm-286.94,440.74c-31.56-13.32-49.09-36.93-46.28-63.58,2.8-26.65,28.75-44.65,52.36-35.06,1.21,.49,2.34,1.05,3.42,1.66v.14c19.79,11.31,18.73,41.28,22.04,66.46,3.11,23.66,26.49,34.6,31.7,36.76,.66,.27,1.03,.41,1.03,.41,0,0-26.53,5.26-54.77-3.28v-.07c-3.16-.96-6.33-2.09-9.5-3.43Zm-149.71-197.55c-14.53-26.82-22.91-29.62-23.47-57.84-.56-28.22,44.99-31.02,58.96-12.29,13.97,18.72,26.82,63.15-1.68,95.28-28.5,32.13-42.47,32.69-42.47,32.69,0,0,23.19-31.02,8.66-57.84Zm-151.88-134.25c-3.2-22.13-.98-39.83,16.47-46.47,17.46-6.64,31.97,13.77,22.62,43.03-9.34,29.26-53.36,50.65-53.36,50.65,0,0,17.46-25.08,14.26-47.21Zm12.29,50.16c35.16-8.36,51.39,12.54,52.37,23.6,.98,11.07-12.54,26.8-34.92,21.39-22.38-5.41-39.59-9.84-52.62-8.36-13.03,1.48-23.36,6.15-23.36,6.15,0,0,23.36-34.42,58.52-42.78Zm52.42,61.09c7.52-17.79,42.73-25.52,60.33,0,17.6,25.52,2.24,73.86-7.54,87.55-9.78,13.69-24.87,24.25-24.87,24.25,0,0-.56-33.57-17.32-51.13-16.77-17.56-18.12-42.88-10.6-60.68Zm169.02,60.91c34.21,2.75,40.3,21.43,39.91,33.23-.39,11.8-22.41,18.87-33.62,7.27-11.21-11.6-26.54-20.64-39.52-21.43-12.98-.79-23.2,.59-23.2,.59,0,0,22.22-22.41,56.43-19.66Zm123.96,66.43c.58-38.7-26.68-56.66-46.62-64.62v-.1c-11.31-4.48-20.2-5.73-20.2-5.73,0,0,7.89-1.35,20.2-1.09h0c4.47,.11,9.52,.42,14.98,1.09,20.67,2.53,95.53,30.3,100.4,86.06,5.07,58.03-21.94,69.18-43.03,65.39-21.09-3.8-26.54-27-25.73-81Zm25.64-67.21c-14.26-8.36-31.72-13.77-31.72-13.77,0,0,42.54-14.02,78.19,1.23,35.65,15.24,20.41,48.69,3.2,48.19-17.21-.49-35.41-27.29-49.67-35.65Zm117.04-171.38c-3.2-22.13-.98-39.83,16.47-46.47,17.46-6.64,31.96,13.77,22.62,43.03-9.34,29.26-53.36,50.65-53.36,50.65,0,0,17.46-25.08,14.26-47.21Zm12.29,50.16c35.16-8.36,51.39,12.54,52.37,23.6,.98,11.07-12.54,26.8-34.92,21.39-22.38-5.41-39.59-9.84-52.62-8.36-13.03,1.48-23.36,6.15-23.36,6.15,0,0,23.36-34.42,58.52-42.78Zm-48.69,54.34c60.73-.49,84.58,39.5,89.01,57.49,4.43,17.99,1.72,62.5-39.34,61.02-41.06-1.48-38.11-42.75-45.24-59.24-7.13-16.49-29.26-26.57-54.34-27.31-25.08-.74-49.42,3.69-49.42,3.69,0,0,38.6-35.16,99.34-35.65Zm-8.61,126.05c24.34-9.75,37.62,22.71,36.15,49.76-1.48,27.05,26.06,59.88,26.06,59.88,0,0-48.19-9.72-66.39-39.72-18.2-30-20.16-60.18,4.18-69.92Zm74.01,14.35c18.93-4.92,42.78,10.08,43.28,51.88,.49,41.8,5.47,52.1,10.57,60.98,5.1,8.87,7.62,9.1,7.62,9.1,0,0-38.85-1.23-67.13-44.01-28.28-42.78-13.28-73.03,5.66-77.95Zm46.3-72.97c-16.77-17.56-18.12-42.88-10.6-60.68,7.52-17.79,42.73-25.52,60.33,0,17.6,25.52,2.24,73.86-7.54,87.55-9.78,13.69-24.87,24.25-24.87,24.25,0,0-.56-33.57-17.32-51.13Zm-69.89-291.06c-10.46,7.65-14.45,19.05-14.63,30.94h0c-.13,10.43,2.67,21.23,6.63,30.18,8.48,19.18-35.41,41.31-47.58,0-3.14-10.64-4.2-20.81-3.4-30.18h.01c2.34-26.95,20.2-47.23,49.37-52.7,39.34-7.38,68.85,11.31,68.85,11.31,0,0-39.59-3.93-59.25,10.45Zm-150.49,249.94c-11.06,4.92-26.56,10.57-26.56,10.57,0,0,50.9-34.42,48.69-62.95-2.21-28.52-31.23-41.06-44.01-40.33-7.57,.44-16.01-1.71-22.34-8.19v-.27c-4.24-4.45-7.5-10.87-8.88-19.82-1.63-10.61,1.22-22.09,8.88-31.09v-.28c8.53-9.83,22.87-16.6,43.49-15.83,39.59,1.48,63.44,35.65,63.19,84.58-.25,48.93-51.39,78.68-62.45,83.6Zm-28.28-243.18c-5.87,2.94-11.2,4.72-15.95,5.65v.05c-16.17,3.08-25.47-3.77-25.85-8.89-.47-6.29-2.01-20.74,25.85-22.03h0c1.47-.07,3-.11,4.64-.1,32.95,.25,45.49-11.31,45.49-11.31,0,0-8.11,23.6-34.18,36.64Zm-15.95,26.57h0c1.69-.1,3.39-.15,5.11-.13,29.34,.28,31.85,30.74,22.91,40.24-4.5,4.78-15.14,4.82-28.03,7.92h0c-12.74,3.05-27.67,9.08-41.01,25.62-26.83,33.25-26.55,67.9-26.55,67.9,0,0-11.46-69.02,3.35-96.96,13.94-26.31,37.06-42.95,64.2-44.58Zm-34.86,144.23c-20.4,10.44-22.35,36.43-22.35,36.43,0,0-4.19-32.97,5.59-56.44,9.78-23.47,25.71-16.21,28.78-11.74,3.07,4.47,8.38,21.31-12.02,31.75Zm-9.68,51.4c9.06-31.22,19.85-47.03,39.51-49.15,1.75-.19,3.42-.21,5.03-.1h0c16.43,1.16,25.15,17.47,24.09,33.63-.68,10.38-9.62,22.93-24.09,34.04h0c-10.26,7.86-23.3,15-38.18,20.12-35.85,12.34-48.95,13.63-48.95,13.63,0,0,33.54-20.95,42.59-52.17Zm-41.06,.12c-7.39,27.66-20.24,37.72-20.24,37.72,0,0,20.68-32.41,10.34-78.52-10.34-46.11-53.93-34.65-64.83-29.9-10.9,4.75-24.59,24.59-60.08,17.6-35.49-6.99-37.44-81.87,17.32-99.76,54.77-17.88,104.23,33.25,113.45,63.43,9.22,30.18,11.42,61.75,4.04,89.42Zm-118.16-176.8c3.32,13.65-28.03,22.87-22.47-7.38,1.04-5.65,2.76-10.24,4.87-13.95h.06c9.19-16.06,25.66-15.82,25.66-15.82,0,0-6.27,3.32-9.22,9.22-.95,1.9-1.51,4.07-1.74,6.6h0c-.45,5.3,.61,12.14,2.85,21.33Zm-19.18-42.08c-7.2,3.34-11.77,11.38-14.62,20.75h-.03c-2.67,8.83-3.8,18.84-4.16,27.23-.74,17.33-37.62,20.29-42.78,0-2.4-9.42-2.88-18.67-.06-27.23h.03c3.27-9.84,10.93-18.74,25.11-25.9,26.56-13.4,72.29-2.09,72.29-2.09,0,0-21.76,.74-35.78,7.24Zm-82.73-10.19c-10.46,7.65-14.45,19.05-14.63,30.94h0c-.13,10.43,2.67,21.23,6.63,30.18,8.48,19.18-35.41,41.31-47.58,0-3.14-10.64-4.2-20.81-3.4-30.18h.01c2.34-26.95,20.2-47.23,49.37-52.7,39.34-7.38,68.85,11.31,68.85,11.31,0,0-39.59-3.93-59.25,10.45Zm-41.81,223.63c60.73-.49,84.58,39.5,89.01,57.49,4.43,17.99,1.72,62.5-39.34,61.02-41.06-1.48-38.11-42.75-45.24-59.24-7.13-16.49-29.26-26.57-54.34-27.31-25.08-.74-49.42,3.69-49.42,3.69,0,0,38.6-35.16,99.34-35.65Zm65.41,140.4c18.93-4.92,42.78,10.08,43.28,51.88,.49,41.8,5.47,52.1,10.57,60.98,5.1,8.87,7.62,9.1,7.62,9.1,0,0-38.85-1.23-67.13-44.01-28.28-42.78-13.28-73.03,5.66-77.95Zm58.03,28.28c12.79-54.09,59.26-70.08,95.16-67.86,35.9,2.21,65.65,33.44,54.83,63.44-10.82,30-31.72,38.85-47.46,34.67-15.74-4.18-23.36-24.34-38.6-25.08-14.9-.72-36.64,16.97-35.41,46.72,1.23,29.75,27.05,61.23,27.05,61.23,0,0-8.36-4.18-14.75-9.59-6.39-5.41-53.6-49.42-40.82-103.52Zm72.78,110.89c1.23,4.92,3.2,12.29,3.2,12.29,0,0-28.03-24.34-28.77-55.08-.74-30.74,20.16-36.14,31.97-30.49,11.8,5.66,11.07,28.28,0,38.85-11.06,10.57-7.62,29.51-6.39,34.42Zm-15.5,15.62c8.23,.34,17.22,5.32,25.89,12.49h.33c13.22,11.02,25.67,27.07,33.52,39.55,13.05,20.77,19.88,52.38,19.88,52.38,0,0-17.27-37.99-48.3-47.56-31.03-9.57-56.84-9.86-62.64-30.45-1.58-5.62-1.51-10.21-.17-13.92h.09c3.72-9.67,16.35-13.12,31.4-12.49Zm-38.1,5.89c-.95,1.9-1.51,4.07-1.74,6.6h0c-.45,5.3,.61,12.14,2.85,21.33,3.32,13.65-28.03,22.87-22.47-7.38,1.04-5.65,2.76-10.24,4.87-13.95h.06c9.19-16.06,25.66-15.82,25.66-15.82,0,0-6.27,3.32-9.22,9.22Zm220.8-17.58c-5.87,2.94-11.2,4.72-15.95,5.65v.05c-16.17,3.08-25.47-3.77-25.85-8.89-.47-6.29-2.01-20.74,25.85-22.03h0c1.47-.07,3-.11,4.64-.1,32.95,.25,45.49-11.31,45.49-11.31,0,0-8.11,23.6-34.18,36.64Zm77.21-50.41c46.46-16.16,87.29,8.11,87.29,8.11,0,0-52.62,0-64.44,20.16-8.83,15.06-5.42,31.07-.16,46.31h.04c1.78,5.13,3.76,10.17,5.55,15.06,7.13,19.42-9.84,37.37-27.79,39.59-17.95,2.21-43.28-9.59-47.21-39.1-.65-4.84-1.06-10.09-1.12-15.55h0c-.27-27.8,9.05-61.1,47.84-74.58Zm45.98,104.77c-3.14-10.64-4.2-20.81-3.4-30.18h.01c2.34-26.95,20.2-47.23,49.37-52.7,39.34-7.38,68.85,11.31,68.85,11.31,0,0-39.59-3.93-59.25,10.45-10.46,7.65-14.45,19.05-14.63,30.94h0c-.13,10.43,2.67,21.23,6.63,30.18,8.48,19.18-35.41,41.31-47.58,0Zm50.16,58.01c-3.2-22.13-.98-39.83,16.47-46.47,17.46-6.64,31.96,13.77,22.62,43.03-9.34,29.26-53.36,50.65-53.36,50.65,0,0,17.46-25.08,14.26-47.21Zm26.56-60.96c-2.4-9.42-2.88-18.67-.06-27.23h.03c3.27-9.84,10.93-18.74,25.11-25.9,26.56-13.4,72.29-2.09,72.29-2.09,0,0-21.76,.74-35.78,7.24-7.2,3.34-11.77,11.38-14.62,20.75h-.03c-2.67,8.83-3.8,18.84-4.16,27.23-.74,17.33-37.62,20.29-42.78,0Zm80.77-5.9c3.32,13.65-28.03,22.87-22.47-7.38,1.04-5.65,2.76-10.24,4.87-13.95h.06c9.19-16.06,25.66-15.82,25.66-15.82,0,0-6.27,3.32-9.22,9.22-.95,1.9-1.51,4.07-1.74,6.6h0c-.45,5.3,.61,12.14,2.85,21.33Zm96.74,18.22c13.05,20.77,19.88,52.38,19.88,52.38,0,0-17.27-37.99-48.3-47.56-31.03-9.57-56.84-9.86-62.64-30.45-1.58-5.62-1.51-10.21-.17-13.92h.09c3.72-9.67,16.35-13.12,31.4-12.49,8.23,.34,17.22,5.32,25.89,12.49h.33c13.22,11.02,25.67,27.07,33.52,39.55Zm-44.24-67.66c1.23,4.92,3.2,12.29,3.2,12.29,0,0-28.03-24.34-28.77-55.08-.74-30.74,20.16-36.14,31.96-30.49,11.8,5.66,11.07,28.28,0,38.85-11.06,10.57-7.62,29.51-6.39,34.42Zm22.38-178.76c35.9,2.21,65.65,33.44,54.83,63.44-10.82,30-31.72,38.85-47.46,34.67-15.74-4.18-23.36-24.34-38.6-25.08-14.9-.72-36.64,16.97-35.41,46.72,1.23,29.75,27.05,61.23,27.05,61.23,0,0-8.36-4.18-14.75-9.59-6.39-5.41-53.6-49.42-40.82-103.52,12.79-54.09,59.26-70.08,95.16-67.86Zm3.49-45.91c-28.5,32.13-42.47,32.69-42.47,32.69,0,0,23.19-31.02,8.66-57.84-14.53-26.82-22.91-29.62-23.47-57.84-.56-28.22,44.99-31.02,58.96-12.29,13.97,18.72,26.82,63.15-1.68,95.28Zm39.8-49.46c-7.39,27.66-20.24,37.72-20.24,37.72,0,0,20.68-32.41,10.34-78.52-10.34-46.11-53.93-34.65-64.83-29.9-10.9,4.75-24.59,24.59-60.08,17.6-35.49-6.99-37.44-81.87,17.32-99.76,54.77-17.88,104.23,33.25,113.45,63.43,9.22,30.18,11.42,61.75,4.04,89.42Zm-21.42-158.58c13.05,20.77,19.88,52.38,19.88,52.38,0,0-17.27-37.99-48.3-47.56-31.03-9.57-56.84-9.86-62.64-30.45-1.58-5.62-1.51-10.21-.17-13.92h.09c3.72-9.67,16.35-13.12,31.4-12.49,8.23,.34,17.22,5.32,25.89,12.49h.33c13.22,11.02,25.67,27.07,33.52,39.55Zm-44.24-67.66c1.23,4.92,3.2,12.29,3.2,12.29,0,0-28.03-24.34-28.77-55.08-.74-30.74,20.16-36.15,31.96-30.49,11.8,5.66,11.07,28.28,0,38.85-11.06,10.57-7.62,29.51-6.39,34.42Zm-72.78-110.89c12.79-54.09,59.26-70.08,95.16-67.86,35.9,2.21,65.65,33.44,54.83,63.44-10.82,30-31.72,38.85-47.46,34.67-15.74-4.18-23.36-24.34-38.6-25.08-14.9-.72-36.64,16.97-35.41,46.72,1.23,29.75,27.05,61.23,27.05,61.23,0,0-8.36-4.18-14.75-9.59-6.39-5.41-53.6-49.42-40.82-103.52Zm-58.03-28.28c18.93-4.92,42.78,10.08,43.28,51.88,.49,41.8,5.47,52.1,10.57,60.98,5.1,8.87,7.62,9.1,7.62,9.1,0,0-38.85-1.23-67.13-44.01-28.28-42.78-13.28-73.03,5.66-77.95Zm-74.01-14.35c24.34-9.75,37.62,22.71,36.15,49.76-1.48,27.05,26.06,59.88,26.06,59.88,0,0-48.19-9.72-66.39-39.72-18.2-30-20.16-60.18,4.18-69.92Zm-51.14,107.05c46.46-16.16,87.29,8.11,87.29,8.11,0,0-52.62,0-64.44,20.16-8.83,15.06-5.42,31.07-.16,46.31h.04c1.78,5.13,3.76,10.17,5.55,15.06,7.13,19.42-9.84,37.37-27.79,39.59-17.95,2.21-43.28-9.59-47.21-39.1-.65-4.84-1.06-10.09-1.12-15.55h0c-.27-27.8,9.05-61.1,47.84-74.58Zm-148.93-69.38c2.8-26.65,28.75-44.65,52.36-35.06,1.21,.49,2.34,1.05,3.42,1.66v.14c19.79,11.31,18.73,41.28,22.04,66.46,3.11,23.66,26.49,34.6,31.7,36.76,.66,.27,1.03,.41,1.03,.41,0,0-26.53,5.26-54.77-3.28v-.07c-3.16-.96-6.33-2.09-9.5-3.43-31.56-13.32-49.09-36.93-46.28-63.58Zm-6.71,52.03c17.7,6.77,23.6,44.89,5.9,66.03-8.39,10.02-15.2,18.26-20.13,25.9h-.07c-5.43,8.44-8.55,16.14-8.81,24.65-.5,16.23,4.66,28.03,4.66,28.03,0,0-27.98-17.34-40.17-52.68h-.04c-3.5-10.17-5.69-21.83-5.53-35,.74-59.01,46.47-63.71,64.18-56.93Zm-161.55-47.08c12.79-54.09,59.26-70.08,95.16-67.86,35.9,2.21,65.65,33.44,54.83,63.44-10.82,30-31.72,38.85-47.46,34.67-15.74-4.18-23.36-24.34-38.6-25.08-14.9-.72-36.64,16.97-35.41,46.72,1.23,29.75,27.05,61.23,27.05,61.23,0,0-8.36-4.18-14.75-9.59-6.39-5.41-53.6-49.42-40.82-103.52Zm-58.03-28.28c18.93-4.92,42.78,10.08,43.28,51.88,.49,41.8,5.47,52.1,10.57,60.98,5.1,8.87,7.62,9.1,7.62,9.1,0,0-38.85-1.23-67.13-44.01-28.28-42.78-13.28-73.03,5.66-77.95Zm-74.01-14.35c24.34-9.75,37.62,22.71,36.15,49.76-1.48,27.05,26.06,59.88,26.06,59.88,0,0-48.19-9.72-66.39-39.72-18.2-30-20.16-60.18,4.18-69.92Zm-51.14,107.05c46.46-16.16,87.29,8.11,87.29,8.11,0,0-52.62,0-64.44,20.16-8.83,15.06-5.42,31.07-.16,46.31h.04c1.78,5.13,3.76,10.17,5.55,15.06,7.13,19.42-9.84,37.37-27.79,39.59-17.95,2.21-43.28-9.59-47.21-39.1-.65-4.84-1.06-10.09-1.12-15.55h0c-.27-27.8,9.05-61.1,47.84-74.58Zm-77.21,50.41c-5.87,2.94-11.2,4.72-15.95,5.65v.05c-16.17,3.08-25.47-3.77-25.85-8.89-.47-6.29-2.01-20.74,25.85-22.03h0c1.47-.07,3-.11,4.64-.1,32.95,.25,45.49-11.31,45.49-11.31,0,0-8.11,23.6-34.18,36.64Zm-71.73-119.79c2.81-26.65,28.75-44.65,52.36-35.06,1.21,.49,2.34,1.05,3.42,1.66v.14c19.79,11.31,18.73,41.28,22.04,66.46,3.11,23.66,26.49,34.6,31.7,36.76,.66,.27,1.03,.41,1.03,.41,0,0-26.53,5.26-54.77-3.28v-.07c-3.16-.96-6.33-2.09-9.5-3.43-31.56-13.32-49.09-36.93-46.28-63.58Zm-21,143.96c-5.43,8.44-8.55,16.14-8.81,24.65-.5,16.23,4.66,28.03,4.66,28.03,0,0-27.98-17.34-40.17-52.68h-.04c-3.5-10.17-5.69-21.83-5.53-35,.74-59.01,46.47-63.71,64.18-56.93,17.7,6.77,23.6,44.89,5.9,66.03-8.39,10.02-15.2,18.26-20.13,25.9h-.07Zm35.78,76.02c-26.83,33.25-26.55,67.9-26.55,67.9,0,0-11.46-69.02,3.35-96.96,13.94-26.31,37.06-42.95,64.2-44.58h0c1.69-.1,3.39-.15,5.11-.13,29.34,.28,31.85,30.74,22.91,40.24-4.5,4.78-15.14,4.82-28.03,7.92h0c-12.74,3.05-27.67,9.08-41.01,25.62Zm107.36,90.6c-2.21-28.52-31.23-41.06-44.01-40.33-7.57,.44-16.01-1.71-22.34-8.19v-.27c-4.24-4.45-7.5-10.87-8.88-19.82-1.63-10.61,1.22-22.09,8.88-31.09v-.28c8.53-9.83,22.87-16.6,43.49-15.83,39.59,1.48,63.44,35.65,63.19,84.58-.25,48.93-51.39,78.68-62.45,83.6-11.06,4.92-26.56,10.57-26.56,10.57,0,0,50.9-34.42,48.69-62.95Zm6,241.15c-21.09-3.8-26.54-27-25.73-81,.58-38.7-26.68-56.66-46.62-64.62v-.1c-11.31-4.48-20.2-5.73-20.2-5.73,0,0,7.89-1.35,20.2-1.09h0c4.47,.11,9.52,.42,14.98,1.09,20.67,2.53,95.53,30.3,100.4,86.06,5.07,58.03-21.94,69.18-43.03,65.39Zm-.1-148.2c-14.26-8.36-31.72-13.77-31.72-13.77,0,0,42.54-14.02,78.19,1.23,35.65,15.24,20.41,48.69,3.2,48.19-17.21-.49-35.41-27.29-49.67-35.65Zm67.86,129.09c-18.2-30-20.16-60.18,4.18-69.92,24.34-9.75,37.62,22.71,36.15,49.76-1.48,27.05,26.06,59.88,26.06,59.88,0,0-48.19-9.72-66.39-39.72Zm-.98,141.9c-3.14-10.64-4.2-20.81-3.4-30.18h.01c2.34-26.95,20.2-47.23,49.37-52.7,39.34-7.38,68.85,11.31,68.85,11.31,0,0-39.59-3.93-59.25,10.45-10.46,7.65-14.45,19.05-14.63,30.94h0c-.13,10.43,2.67,21.23,6.63,30.18,8.48,19.18-35.41,41.31-47.58,0Zm89.26,54.57c-9.34,29.26-53.36,50.65-53.36,50.65,0,0,17.46-25.08,14.26-47.21-3.2-22.13-.98-39.83,16.47-46.47,17.46-6.64,31.97,13.77,22.62,43.03Zm-12.54-57.52c-2.4-9.42-2.88-18.67-.06-27.23h.03c3.27-9.84,10.93-18.74,25.11-25.9,26.56-13.4,72.29-2.09,72.29-2.09,0,0-21.76,.74-35.78,7.24-7.2,3.34-11.77,11.38-14.62,20.75h-.03c-2.67,8.83-3.8,18.84-4.16,27.23-.74,17.33-37.62,20.29-42.78,0Zm90.95,259.76c-9.78,13.69-24.87,24.25-24.87,24.25,0,0-.56-33.57-17.32-51.13-16.77-17.56-18.12-42.88-10.6-60.68,7.52-17.79,42.73-25.52,60.33,0,17.6,25.52,2.24,73.86-7.54,87.55Zm25.71-6.71s23.19-31.02,8.66-57.84c-14.53-26.82-22.91-29.62-23.47-57.84s44.99-31.02,58.96-12.29c13.97,18.72,26.82,63.15-1.68,95.28-28.5,32.13-42.47,32.69-42.47,32.69Zm130.43,13.29c-.39,11.8-22.41,18.87-33.62,7.27-11.21-11.6-26.54-20.64-39.52-21.43-12.98-.79-23.2,.59-23.2,.59,0,0,22.22-22.41,56.43-19.66,34.21,2.75,40.3,21.43,39.91,33.23Zm37.43-77.14h0c-10.26,7.86-23.3,15-38.18,20.12-35.85,12.34-48.95,13.63-48.95,13.63,0,0,33.54-20.95,42.59-52.17,9.06-31.22,19.85-47.03,39.51-49.15,1.75-.19,3.42-.21,5.03-.1h0c16.43,1.16,25.15,17.47,24.09,33.63-.68,10.38-9.62,22.93-24.09,34.04Zm66.35-49.81c-2.21-28.52-31.23-41.06-44.01-40.33-7.57,.44-16.01-1.71-22.34-8.19v-.27c-4.24-4.45-7.5-10.87-8.88-19.82-1.63-10.61,1.22-22.09,8.88-31.09v-.28c8.53-9.83,22.87-16.6,43.49-15.83,39.59,1.48,63.44,35.65,63.19,84.58-.25,48.93-51.39,78.68-62.45,83.6-11.06,4.92-26.56,10.57-26.56,10.57,0,0,50.9-34.42,48.69-62.95Zm55.57,128.6c-17.21-.49-35.41-27.29-49.67-35.65-14.26-8.36-31.72-13.77-31.72-13.77,0,0,42.54-14.02,78.19,1.23,35.65,15.24,20.41,48.69,3.2,48.19Zm80.65,15.98c-41.06-1.48-38.11-42.75-45.24-59.24-7.13-16.49-29.26-26.57-54.34-27.31-25.08-.74-49.42,3.69-49.42,3.69,0,0,38.6-35.16,99.34-35.65,60.73-.49,84.58,39.5,89.01,57.5,4.43,17.99,1.72,62.5-39.34,61.02Zm16.47-127.86c-22.38-5.41-39.59-9.84-52.62-8.36-13.03,1.48-23.36,6.15-23.36,6.15,0,0,23.36-34.42,58.52-42.78,35.16-8.36,51.39,12.54,52.37,23.6,.98,11.07-12.54,26.8-34.92,21.39Zm87.75,103.64c-9.78,13.69-24.87,24.25-24.87,24.25,0,0-.56-33.57-17.32-51.13-16.77-17.56-18.12-42.88-10.6-60.68,7.52-17.79,42.73-25.52,60.33,0,17.6,25.52,2.24,73.86-7.54,87.55Zm25.71-6.71s23.19-31.02,8.66-57.84c-14.53-26.82-22.91-29.62-23.47-57.84-.56-28.22,44.99-31.02,58.96-12.29,13.97,18.72,26.82,63.15-1.68,95.28-28.5,32.13-42.47,32.69-42.47,32.69Z"/><path class="b" d="M929.89,1.38c.01-.45,.02-.91,.01-1.38h-43.4c3.47,2.63,6.77,5.54,9.77,8.65,11.21,11.6,33.23,4.52,33.62-7.27Z"/><path class="b" d="M816.06,180.06c-1.23-4.92-4.67-23.85,6.39-34.42,11.07-10.57,11.8-33.19,0-38.85-11.21-5.37-30.61-.74-31.9,26.07l26.7,57.62c1.25,1.22,2.01,1.88,2.01,1.88,0,0-1.97-7.38-3.2-12.29Z"/><path class="b" d="M807.21,74.33c15.24,.74,22.87,20.9,38.6,25.08,15.74,4.18,36.64-4.67,47.46-34.67,10.82-30-18.93-61.23-54.83-63.44-30.58-1.89-68.82,9.45-87.39,46.29l24.18,52.19c6.56-16.66,21.09-25.98,31.98-25.45Z"/><path class="b" d="M904.83,116.24c-17.7-6.77-63.44-2.08-64.18,56.93-.16,13.17,2.03,24.82,5.53,35h.04c12.19,35.34,40.17,52.68,40.17,52.68,0,0-5.16-11.8-4.66-28.03,.26-8.51,3.38-16.21,8.81-24.65h.07c4.93-7.64,11.74-15.88,20.13-25.9,17.7-21.15,11.8-59.26-5.9-66.03Z"/><path class="b" d="M769.66,0h-23.18c2.25,10.62,2.39,19.04,2.39,19.04,0,0,11.39-7.97,20.79-19.04Z"/><path class="b" d="M957.82,127.79c3.16,1.34,6.34,2.46,9.5,3.43v.07c28.24,8.54,54.77,3.28,54.77,3.28,0,0-.37-.13-1.03-.41-5.21-2.16-28.59-13.11-31.7-36.76-3.31-25.18-2.26-55.15-22.04-66.46v-.14c-1.08-.6-2.21-1.17-3.42-1.66-23.61-9.58-49.56,8.42-52.36,35.06-2.81,26.65,14.73,50.26,46.28,63.58Z"/><path class="b" d="M880.19,300.1s-6.83-31.61-19.88-52.38c-7.84-12.48-20.29-28.53-33.51-39.55h-.33c-.54-.44-1.07-.88-1.61-1.3l25.78,55.65c19.16,14.72,29.56,37.59,29.56,37.59Z"/><path class="b" d="M1039.67,115.57c21.09,3.8,48.09-7.35,43.03-65.39-1.78-20.45-12.99-37.13-27.48-50.19h-50.06c5.49,9.12,8.99,20.46,8.78,34.58-.81,54,4.64,77.2,25.73,81Z"/><path class="b" d="M1098.48,0h-19.49c3.43,1.8,6.86,2.93,10.25,3.02,3.26,.09,6.45-1.03,9.24-3.02Z"/><path class="b" d="M1169.89,19.01c18.3,.66,28.97-7.82,34.8-19.01h-67.74c5.67,10.29,15.19,18.37,32.94,19.01Z"/><path class="b" d="M1430.26,1.38c.01-.45,.02-.91,.01-1.38h-43.4c3.47,2.63,6.77,5.54,9.77,8.65,11.21,11.6,33.23,4.52,33.62-7.27Z"/><path class="b" d="M1322.83,106.79c-11.8-5.66-32.7-.25-31.97,30.49,.74,30.74,28.77,55.08,28.77,55.08,0,0-1.97-7.38-3.2-12.29-1.23-4.92-4.67-23.85,6.39-34.42,11.07-10.57,11.8-33.19,0-38.85Z"/><path class="b" d="M1284.47,172.68c6.39,5.41,14.75,9.59,14.75,9.59,0,0-25.82-31.47-27.05-61.23-1.23-29.75,20.51-47.44,35.41-46.72,15.24,.74,22.87,20.9,38.6,25.08,15.74,4.18,36.64-4.67,47.46-34.67,10.82-30-18.93-61.23-54.83-63.44-35.9-2.21-82.37,13.77-95.16,67.86-12.79,54.09,34.42,98.11,40.82,103.52Z"/><path class="b" d="M1341.03,173.18c-.16,13.17,2.03,24.82,5.53,35h.04c12.19,35.34,40.17,52.68,40.17,52.68,0,0-5.16-11.8-4.66-28.03,.26-8.51,3.38-16.21,8.81-24.65h.07c4.93-7.64,11.74-15.88,20.13-25.9,17.7-21.15,11.8-59.26-5.9-66.03-17.7-6.77-63.44-2.08-64.18,56.93Z"/><path class="b" d="M967.32,158.76h0c-27.86,1.3-26.31,15.75-25.85,22.04,.38,5.12,9.68,11.97,25.85,8.89v-.05c4.75-.93,10.08-2.71,15.95-5.65,26.06-13.03,34.18-36.64,34.18-36.64,0,0-12.54,11.56-45.49,11.31-1.64-.01-3.17,.03-4.64,.09Z"/><path class="b" d="M1012.63,208.17c.06,5.46,.48,10.71,1.12,15.55,3.93,29.51,29.26,41.31,47.21,39.1,17.95-2.21,34.92-20.16,27.79-39.59-1.79-4.89-3.78-9.93-5.55-15.06h-.04c-5.26-15.23-8.67-31.25,.16-46.31,11.82-20.16,64.44-20.16,64.44-20.16,0,0-40.83-24.27-87.29-8.11-38.79,13.49-48.11,46.78-47.84,74.58h0Z"/><path class="b" d="M1152.43,155.47c-29.17,5.47-47.04,25.75-49.37,52.7h-.01c-.8,9.37,.27,19.54,3.4,30.18,12.17,41.31,56.06,19.18,47.58,0-3.96-8.95-6.76-19.75-6.63-30.18h0c.17-11.89,4.17-23.29,14.63-30.94,19.66-14.38,59.25-10.45,59.25-10.45,0,0-29.51-18.69-68.85-11.31Z"/><path class="b" d="M1208.25,182.27c-14.18,7.15-21.83,16.06-25.11,25.9h-.03c-2.82,8.56-2.34,17.81,.06,27.23,5.16,20.29,42.05,17.33,42.78,0,.36-8.39,1.5-18.4,4.16-27.23h.03c2.84-9.37,7.41-17.41,14.62-20.75,14.02-6.5,35.78-7.24,35.78-7.24,0,0-45.73-11.31-72.29,2.09Z"/><path class="b" d="M1261.1,208.17c.22-2.52,.78-4.7,1.74-6.6,2.95-5.9,9.22-9.22,9.22-9.22,0,0-16.47-.24-25.66,15.82h-.06c-2.11,3.72-3.83,8.3-4.87,13.95-5.56,30.24,25.79,21.02,22.47,7.38-2.24-9.19-3.29-16.04-2.85-21.33h0Z"/><path class="b" d="M1270.04,0h-23.18c2.25,10.62,2.39,19.04,2.39,19.04,0,0,11.39-7.97,20.79-19.04Z"/><path class="b" d="M1247.1,162.85s-2.52-.23-7.62-9.1c-5.1-8.87-10.08-19.18-10.57-60.98-.49-41.8-24.34-56.8-43.28-51.88-18.93,4.92-33.93,35.16-5.66,77.95,28.28,42.78,67.13,44.01,67.13,44.01Z"/><path class="b" d="M1173.83,136.18s-27.54-32.83-26.06-59.88c1.48-27.05-11.8-59.5-36.15-49.76-24.34,9.75-22.38,39.92-4.18,69.92,18.2,30,66.39,39.72,66.39,39.72Z"/><path class="b" d="M1458.2,127.79c3.16,1.34,6.34,2.46,9.5,3.43v.07c28.24,8.54,54.77,3.28,54.77,3.28,0,0-.37-.13-1.03-.41-5.21-2.16-28.59-13.11-31.7-36.76-3.31-25.18-2.26-55.15-22.04-66.46v-.14c-1.08-.6-2.21-1.17-3.42-1.66-23.61-9.58-49.56,8.42-52.36,35.06-2.81,26.65,14.73,50.26,46.28,63.58Z"/><path class="b" d="M1269.54,208.17h-.09c-1.35,3.71-1.41,8.3,.17,13.92,5.8,20.59,31.61,20.88,62.64,30.45,31.03,9.57,48.3,47.56,48.3,47.56,0,0-6.83-31.61-19.88-52.38-7.84-12.48-20.29-28.53-33.52-39.55h-.33c-8.68-7.17-17.67-12.15-25.89-12.49-15.05-.63-27.68,2.81-31.4,12.49Z"/><path class="b" d="M1540.05,115.57c21.09,3.8,48.09-7.35,43.03-65.39-1.78-20.45-12.99-37.13-27.48-50.19h-50.06c5.49,9.12,8.99,20.46,8.78,34.58-.81,54,4.64,77.2,25.73,81Z"/><path class="b" d="M1598.86,0h-19.49c3.43,1.8,6.86,2.93,10.25,3.02,3.26,.09,6.45-1.03,9.24-3.02Z"/><path class="b" d="M1670.27,19.01c18.3,.66,28.97-7.82,34.8-19.01h-67.74c5.67,10.29,15.19,18.37,32.94,19.01Z"/><path class="b" d="M1920,13.13V0h-32.75c3.47,2.63,6.77,5.54,9.77,8.65,6.19,6.4,15.66,7.11,22.98,4.48Z"/><path class="b" d="M1823.21,106.79c-11.8-5.66-32.7-.25-31.96,30.49,.74,30.74,28.77,55.08,28.77,55.08,0,0-1.97-7.38-3.2-12.29-1.23-4.92-4.67-23.85,6.39-34.42,11.07-10.57,11.8-33.19,0-38.85Z"/><path class="b" d="M1784.85,172.68c6.39,5.41,14.75,9.59,14.75,9.59,0,0-25.82-31.47-27.05-61.23-1.23-29.75,20.51-47.44,35.41-46.72,15.24,.74,22.87,20.9,38.6,25.08,15.74,4.18,36.64-4.67,47.46-34.67,10.82-30-18.93-61.23-54.83-63.44-35.9-2.21-82.37,13.77-95.16,67.86-12.79,54.09,34.42,98.11,40.82,103.52Z"/><path class="b" d="M1472.33,158.67c-1.64-.01-3.17,.03-4.64,.09h0c-27.86,1.3-26.31,15.75-25.85,22.04,.38,5.12,9.68,11.97,25.85,8.89v-.05c4.75-.93,10.08-2.71,15.95-5.65,26.06-13.03,34.18-36.64,34.18-36.64,0,0-12.54,11.56-45.49,11.31Z"/><path class="b" d="M1513.01,208.17c.06,5.46,.48,10.71,1.12,15.55,3.93,29.51,29.26,41.31,47.21,39.1,17.95-2.21,34.92-20.16,27.79-39.59-1.79-4.89-3.78-9.93-5.55-15.06h-.04c-5.26-15.23-8.67-31.25,.16-46.31,11.82-20.16,64.44-20.16,64.44-20.16,0,0-40.83-24.27-87.29-8.11-38.79,13.49-48.11,46.78-47.84,74.58h0Z"/><path class="b" d="M1652.81,155.47c-29.17,5.47-47.04,25.75-49.37,52.7h-.01c-.8,9.37,.27,19.54,3.4,30.18,12.17,41.31,56.06,19.18,47.58,0-3.96-8.95-6.76-19.75-6.63-30.18h0c.17-11.89,4.17-23.29,14.63-30.94,19.66-14.38,59.25-10.45,59.25-10.45,0,0-29.51-18.69-68.85-11.31Z"/><path class="b" d="M1761.48,208.17c.22-2.52,.78-4.7,1.74-6.6,2.95-5.9,9.22-9.22,9.22-9.22,0,0-16.47-.24-25.66,15.82h-.06c-2.11,3.72-3.83,8.3-4.87,13.95-5.56,30.24,25.79,21.02,22.47,7.38-2.24-9.19-3.29-16.04-2.85-21.33h0Z"/><path class="b" d="M1770.42,0h-23.18c2.25,10.62,2.39,19.04,2.39,19.04,0,0,11.39-7.97,20.79-19.04Z"/><path class="b" d="M1747.48,162.85s-2.52-.23-7.62-9.1c-5.1-8.87-10.08-19.18-10.57-60.98-.49-41.8-24.34-56.8-43.28-51.88-18.93,4.92-33.93,35.16-5.66,77.95,28.28,42.78,67.13,44.01,67.13,44.01Z"/><path class="b" d="M1674.2,136.18s-27.54-32.83-26.06-59.88c1.48-27.05-11.8-59.5-36.15-49.76-24.34,9.75-22.38,39.92-4.18,69.92,18.2,30,66.39,39.72,66.39,39.72Z"/><path class="b" d="M1920,97.21V43.62c-4.11,5.82-6.89,12.84-7.71,20.59-1.24,11.81,1.51,23.02,7.71,33Z"/><path class="b" d="M967.32,424.61c14.48-11.1,23.42-23.66,24.09-34.04,1.05-16.16-7.66-32.47-24.09-33.63h0c-1.6-.11-3.28-.09-5.03,.1-19.66,2.12-30.45,17.92-39.51,49.15-.68,2.33-1.5,4.6-2.43,6.82l13.85,29.88c12.78-4.93,24.04-11.32,33.12-18.29h0Z"/><path class="b" d="M967.32,258.58c12.88-3.09,23.53-3.14,28.03-7.92,8.94-9.5,6.43-39.96-22.91-40.24-1.72-.02-3.42,.03-5.11,.13h0c-27.14,1.62-50.26,18.26-64.2,44.57-14.81,27.94-3.35,96.96-3.35,96.96,0,0-.28-34.65,26.55-67.9,13.34-16.54,28.27-22.57,41.01-25.62h0Z"/><path class="b" d="M932.46,354.79c20.4-10.44,15.09-27.28,12.02-31.75-3.07-4.47-19-11.74-28.78,11.74-9.13,21.9-6.09,52.07-5.64,56l.08,.17c.27-2.78,3.15-26.33,22.33-36.16Z"/><path class="b" d="M864.77,293.04l15.7,33.88c-.84-3.35-1.76-6.7-2.78-10.03-2.19-7.17-6.66-15.52-12.92-23.85Z"/><path class="b" d="M982.3,464.5c-5.46-.67-10.51-.98-14.98-1.08h0c-12.31-.27-20.2,1.08-20.2,1.08,0,0,8.89,1.25,20.2,5.73v.1c19.94,7.96,47.2,25.92,46.62,64.62-.81,54,4.64,77.2,25.73,81s48.09-7.35,43.03-65.39c-4.87-55.76-79.73-83.53-100.4-86.06Z"/><path class="b" d="M1086.05,455.21c-35.65-15.24-78.19-1.23-78.19-1.23,0,0,17.46,5.41,31.72,13.77,14.26,8.36,32.46,35.16,49.67,35.65,17.21,.49,32.46-32.95-3.2-48.19Z"/><path class="b" d="M1070.31,432.83c25.08,.74,47.21,10.82,54.34,27.31,7.13,16.49,4.18,57.77,45.24,59.24,41.06,1.48,43.77-43.03,39.34-61.02-4.43-17.99-28.28-57.99-89.01-57.49-60.73,.49-99.34,35.65-99.34,35.65,0,0,24.34-4.43,49.42-3.69Z"/><path class="b" d="M1110.39,389.31s10.33-4.67,23.36-6.15c13.03-1.48,30.24,2.95,52.62,8.36,22.38,5.41,35.9-10.33,34.92-21.39-.98-11.06-17.21-31.96-52.37-23.6-35.16,8.36-58.52,42.78-58.52,42.78Z"/><path class="b" d="M1195.71,292.92c9.34-29.26-5.16-49.67-22.62-43.03-17.46,6.64-19.67,24.34-16.47,46.47,3.2,22.13-14.26,47.21-14.26,47.21,0,0,44.01-21.39,53.36-50.65Z"/><path class="b" d="M1070.06,398.9s22.38-11.8,44.51-36.39c22.13-24.59,33.44-75.24,10.82-97.86-22.62-22.62-49.18-6.64-47.95,16.23,1.23,22.87,15.49,35.9,17.7,63.73,2.21,27.83-24.1,54.05-25.08,54.3Z"/><path class="b" d="M1074,343.57c.25-48.93-23.6-83.11-63.19-84.58-20.62-.77-34.96,6.01-43.49,15.83v.28c-7.66,9-10.51,20.48-8.88,31.09,1.38,8.95,4.64,15.37,8.88,19.82v.27c6.33,6.47,14.77,8.62,22.34,8.19,12.79-.74,41.8,11.8,44.01,40.33,2.21,28.52-48.69,62.95-48.69,62.95,0,0,15.49-5.66,26.56-10.57,11.07-4.92,62.21-34.67,62.45-83.6Z"/><path class="b" d="M1429.52,444.73c14.88-5.12,27.92-12.26,38.18-20.14h0c14.48-11.09,23.42-23.64,24.09-34.02,1.05-16.16-7.66-32.47-24.09-33.63h0c-1.6-.11-3.28-.09-5.03,.1-19.66,2.12-30.45,17.92-39.51,49.15-9.06,31.22-42.59,52.17-42.59,52.17,0,0,13.11-1.29,48.95-13.63Z"/><path class="b" d="M1357.12,487.6c12.98,.79,28.31,9.83,39.52,21.43,11.21,11.6,33.23,4.52,33.62-7.27,.39-11.8-5.7-30.47-39.91-33.23-34.21-2.75-56.43,19.66-56.43,19.66,0,0,10.22-1.38,23.2-.59Z"/><path class="b" d="M1322.83,607.16c-11.8-5.66-32.7-.25-31.97,30.49,.74,30.74,28.77,55.08,28.77,55.08,0,0-1.97-7.38-3.2-12.29-1.23-4.92-4.67-23.85,6.39-34.42,11.07-10.57,11.8-33.19,0-38.85Z"/><path class="b" d="M1284.47,673.06c6.39,5.41,14.75,9.59,14.75,9.59,0,0-25.82-31.47-27.05-61.23-1.23-29.75,20.51-47.44,35.41-46.72,15.24,.74,22.87,20.9,38.6,25.08,15.74,4.18,36.64-4.67,47.46-34.67,10.82-30-18.93-61.23-54.83-63.44-35.9-2.21-82.37,13.77-95.16,67.86-12.79,54.09,34.42,98.11,40.82,103.52Z"/><path class="b" d="M1246.4,708.55h-.06c-2.11,3.72-3.83,8.3-4.87,13.95-5.56,30.24,25.79,21.02,22.47,7.38-2.24-9.19-3.29-16.04-2.85-21.33h0c.22-2.52,.78-4.7,1.74-6.6,2.95-5.9,9.22-9.22,9.22-9.22,0,0-16.47-.24-25.66,15.82Z"/><path class="b" d="M1403.49,255.14c-14.81,27.94-3.35,96.96-3.35,96.96,0,0-.28-34.65,26.55-67.9,13.34-16.54,28.27-22.57,41.01-25.62h0c12.88-3.09,23.53-3.13,28.03-7.91,8.94-9.5,6.43-39.96-22.91-40.24-1.72-.02-3.42,.03-5.11,.13h0c-27.14,1.62-50.26,18.26-64.2,44.57Z"/><path class="b" d="M1416.07,334.77c-9.78,23.47-5.59,56.44-5.59,56.44,0,0,1.96-25.99,22.35-36.43,20.4-10.44,15.09-27.28,12.02-31.75-3.07-4.47-19-11.74-28.78,11.74Z"/><path class="b" d="M1264.62,253.46c-54.77,17.88-52.81,92.77-17.32,99.76,35.49,6.99,49.18-12.85,60.08-17.6,10.9-4.75,54.49-16.21,64.83,29.9,10.34,46.11-10.34,78.52-10.34,78.52,0,0,12.85-10.06,20.24-37.72,7.39-27.66,5.19-59.24-4.04-89.42-9.22-30.18-58.68-81.31-113.45-63.43Z"/><path class="b" d="M1342.3,455.76c28.5-32.13,15.65-76.56,1.68-95.28-13.97-18.72-59.52-15.93-58.96,12.29,.56,28.22,8.94,31.02,23.47,57.84,14.53,26.82-8.66,57.84-8.66,57.84,0,0,13.97-.56,42.47-32.69Z"/><path class="b" d="M1249.25,519.42s15.09-10.56,24.87-24.25c9.78-13.69,25.15-62.03,7.54-87.55-17.6-25.52-52.81-17.79-60.33,0-7.52,17.79-6.17,43.12,10.6,60.68,16.77,17.56,17.32,51.13,17.32,51.13Z"/><path class="b" d="M1247.1,663.23s-2.52-.23-7.62-9.1c-5.1-8.87-10.08-19.18-10.57-60.98-.49-41.8-24.34-56.8-43.28-51.88-18.93,4.92-33.93,35.16-5.66,77.95,28.28,42.78,67.13,44.01,67.13,44.01Z"/><path class="b" d="M1147.76,576.67c1.48-27.05-11.8-59.5-36.15-49.76-24.34,9.75-22.38,39.92-4.18,69.92,18.2,30,66.39,39.72,66.39,39.72,0,0-27.54-32.83-26.06-59.88Z"/><path class="b" d="M1522.46,634.95s-.37-.13-1.03-.41c-5.21-2.16-28.59-13.11-31.7-36.76-3.31-25.18-2.26-55.15-22.04-66.46v-.14c-1.08-.6-2.21-1.17-3.42-1.66-23.61-9.58-49.56,8.42-52.36,35.06-2.81,26.65,14.73,50.26,46.28,63.58,3.16,1.34,6.34,2.46,9.5,3.43v.07c28.24,8.54,54.77,3.28,54.77,3.28Z"/><path class="b" d="M1517.82,647.73s-12.54,11.56-45.49,11.31c-1.64-.01-3.17,.02-4.64,.09h0c-27.86,1.3-26.31,15.75-25.85,22.04,.38,5.12,9.68,11.98,25.85,8.89v-.05c4.75-.93,10.08-2.71,15.95-5.65,26.06-13.03,34.18-36.64,34.18-36.64Z"/><path class="b" d="M1540.05,615.95c21.09,3.8,48.09-7.35,43.03-65.39-4.87-55.76-79.73-83.53-100.4-86.06-5.46-.67-10.51-.98-14.98-1.08h0c-12.31-.27-20.2,1.08-20.2,1.08,0,0,8.89,1.25,20.2,5.73v.1c19.94,7.96,47.2,25.92,46.62,64.62-.81,54,4.64,77.2,25.73,81Z"/><path class="b" d="M1586.42,455.21c-35.65-15.24-78.19-1.23-78.19-1.23,0,0,17.46,5.41,31.72,13.77,14.26,8.36,32.46,35.16,49.67,35.65,17.21,.49,32.46-32.95-3.2-48.19Z"/><path class="b" d="M1570.68,432.83c25.08,.74,47.21,10.82,54.34,27.31,7.13,16.49,4.18,57.77,45.24,59.24,41.06,1.48,43.77-43.03,39.34-61.02-4.43-17.99-28.28-57.99-89.01-57.49-60.73,.49-99.34,35.65-99.34,35.65,0,0,24.34-4.43,49.42-3.69Z"/><path class="b" d="M1610.76,389.31s10.33-4.67,23.36-6.15c13.03-1.48,30.24,2.95,52.62,8.36,22.38,5.41,35.9-10.33,34.92-21.39-.98-11.06-17.21-31.96-52.37-23.6-35.16,8.36-58.52,42.78-58.52,42.78Z"/><path class="b" d="M1696.09,292.92c9.34-29.26-5.16-49.67-22.62-43.03-17.46,6.64-19.67,24.34-16.47,46.47,3.2,22.13-14.26,47.21-14.26,47.21,0,0,44.01-21.39,53.36-50.65Z"/><path class="b" d="M1570.44,398.9s22.38-11.8,44.51-36.39c22.13-24.59,33.44-75.24,10.82-97.86-22.62-22.62-49.18-6.64-47.95,16.23,1.23,22.87,15.49,35.9,17.7,63.73,2.21,27.83-24.1,54.05-25.08,54.3Z"/><path class="b" d="M1511.18,258.99c-20.62-.77-34.96,6.01-43.49,15.83v.28c-7.66,9-10.51,20.48-8.88,31.09,1.38,8.95,4.64,15.37,8.88,19.82v.27c6.33,6.47,14.77,8.62,22.34,8.19,12.79-.74,41.8,11.8,44.01,40.33,2.21,28.52-48.69,62.95-48.69,62.95,0,0,15.49-5.66,26.56-10.57,11.06-4.92,62.21-34.67,62.45-83.6,.25-48.93-23.6-83.11-63.19-84.58Z"/><path class="b" d="M1880.94,458.36s10.67-1.05,39.06-10.31v-32.54c-12.1,26-39.06,42.85-39.06,42.85Z"/><path class="b" d="M1834.3,488.19s10.22-1.38,23.2-.59c12.98,.79,28.31,9.83,39.52,21.43,6.19,6.4,15.66,7.11,22.98,4.48v-35.23c-6.07-4.87-15.34-8.63-29.27-9.75-34.21-2.75-56.43,19.66-56.43,19.66Z"/><path class="b" d="M1823.21,607.16c-11.8-5.66-32.7-.25-31.96,30.49,.74,30.74,28.77,55.08,28.77,55.08,0,0-1.97-7.38-3.2-12.29-1.23-4.92-4.67-23.85,6.39-34.42,11.07-10.57,11.8-33.19,0-38.85Z"/><path class="b" d="M1744.03,569.54c-12.79,54.09,34.42,98.11,40.82,103.52,6.39,5.41,14.75,9.59,14.75,9.59,0,0-25.82-31.47-27.05-61.23-1.23-29.75,20.51-47.44,35.41-46.72,15.24,.74,22.87,20.9,38.6,25.08,15.74,4.18,36.64-4.67,47.46-34.67,10.82-30-18.93-61.23-54.83-63.44-35.9-2.21-82.37,13.77-95.16,67.86Z"/><path class="b" d="M1654.41,738.73c-3.96-8.95-6.76-19.75-6.63-30.18h0c.17-11.89,4.17-23.29,14.63-30.94,19.66-14.38,59.25-10.45,59.25-10.45,0,0-29.51-18.69-68.85-11.31-29.17,5.47-47.04,25.75-49.37,52.7h-.01c-.8,9.37,.27,19.54,3.4,30.18,12.17,41.31,56.06,19.18,47.58,0Z"/><path class="b" d="M1761.48,708.55c.22-2.52,.78-4.7,1.74-6.6,2.95-5.9,9.22-9.22,9.22-9.22,0,0-16.47-.24-25.66,15.82h-.06c-2.11,3.72-3.83,8.3-4.87,13.95-5.56,30.24,25.79,21.02,22.47,7.38-2.24-9.19-3.29-16.04-2.85-21.33h0Z"/><path class="b" d="M1827.54,208.17h-.33c-8.68-7.17-17.67-12.15-25.89-12.49-15.05-.63-27.68,2.81-31.4,12.49h-.09c-1.35,3.71-1.41,8.3,.17,13.92,5.8,20.59,31.61,20.88,62.64,30.45,31.03,9.57,48.3,47.56,48.3,47.56,0,0-6.83-31.61-19.88-52.38-7.84-12.48-20.29-28.53-33.52-39.55Z"/><path class="b" d="M1903.87,255.14c-14.81,27.94-3.35,96.96-3.35,96.96,0,0-.22-28.25,19.48-58.21v-60.95c-6.21,6.28-11.64,13.74-16.13,22.2Z"/><path class="b" d="M1910.86,391.22s1.01-13.41,9.14-24.84v-38.46c-1.24,1.93-2.44,4.18-3.55,6.85-9.78,23.47-5.59,56.44-5.59,56.44Z"/><path class="b" d="M1765,253.46c-54.77,17.88-52.81,92.77-17.32,99.76,35.49,6.99,49.18-12.85,60.08-17.6,10.9-4.75,54.49-16.21,64.83,29.9,10.34,46.11-10.34,78.52-10.34,78.52,0,0,12.85-10.06,20.24-37.72,7.39-27.66,5.19-59.24-4.04-89.42-9.22-30.18-58.68-81.31-113.45-63.43Z"/><path class="b" d="M1785.4,372.78c.56,28.22,8.94,31.02,23.47,57.84,14.53,26.82-8.66,57.84-8.66,57.84,0,0,13.97-.56,42.47-32.69,28.5-32.13,15.65-76.56,1.68-95.28-13.97-18.72-59.52-15.93-58.96,12.29Z"/><path class="b" d="M1774.5,495.16c9.78-13.69,25.15-62.03,7.54-87.55-17.6-25.52-52.81-17.79-60.33,0-7.52,17.79-6.17,43.12,10.6,60.68,16.77,17.56,17.32,51.13,17.32,51.13,0,0,15.09-10.56,24.87-24.25Z"/><path class="b" d="M1747.48,663.23s-2.52-.23-7.62-9.1c-5.1-8.87-10.08-19.18-10.57-60.98-.49-41.8-24.34-56.8-43.28-51.88-18.93,4.92-33.93,35.16-5.66,77.95,28.28,42.78,67.13,44.01,67.13,44.01Z"/><path class="b" d="M1674.2,636.55s-27.54-32.83-26.06-59.88c1.48-27.05-11.8-59.5-36.15-49.76-24.34,9.75-22.38,39.92-4.18,69.92,18.2,30,66.39,39.72,66.39,39.72Z"/><path class="b" d="M1920,597.59v-53.59c-4.11,5.82-6.89,12.84-7.71,20.59-1.24,11.81,1.51,23.02,7.71,33Z"/><path class="b" d="M1905.58,116.24c-17.7-6.77-63.44-2.08-64.18,56.93-.16,13.17,2.03,24.82,5.53,35h.04c12.19,35.34,40.17,52.68,40.17,52.68,0,0-5.16-11.8-4.66-28.03,.26-8.51,3.38-16.21,8.81-24.65h.07c4.93-7.64,11.74-15.88,20.13-25.9,4.01-4.79,6.79-10.44,8.52-16.41v-30.96c-2.67-8.98-7.69-16.09-14.42-18.67Z"/><path class="b" d="M1708.63,182.27c-14.18,7.15-21.83,16.06-25.11,25.9h-.03c-2.82,8.56-2.34,17.81,.06,27.23,5.16,20.29,42.05,17.33,42.78,0,.36-8.39,1.5-18.4,4.16-27.23h.03c2.84-9.37,7.41-17.41,14.62-20.75,14.02-6.5,35.78-7.24,35.78-7.24,0,0-45.73-11.31-72.29,2.09Z"/><path class="b" d="M1209.23,958.74c-3.68-14.95-20.78-45.11-61.33-54.58l49.36,106.53c14.67-13.7,15.07-39.34,11.97-51.95Z"/><path class="b" d="M1186.37,891.9c22.38,5.41,35.9-10.33,34.92-21.39-.98-11.06-17.21-31.96-52.37-23.6-15.18,3.61-28.16,12.08-38.01,20.54l7.33,15.83c12.42-.21,28.23,3.82,48.14,8.63Z"/><path class="b" d="M1173.09,750.27c-17.46,6.64-19.67,24.34-16.47,46.47,3.2,22.13-14.26,47.21-14.26,47.21,0,0,44.01-21.39,53.36-50.65,9.34-29.26-5.16-49.67-22.62-43.03Z"/><path class="b" d="M1125.39,765.02c-15.95-15.95-33.84-12.7-42.58-1.38l40.46,87.33c15.95-26.51,21.53-66.54,2.12-85.95Z"/><path class="b" d="M1390.35,968.9c-34.21-2.75-56.43,19.66-56.43,19.66,0,0,10.22-1.38,23.2-.59,12.98,.79,28.31,9.83,39.52,21.43,11.21,11.6,33.23,4.52,33.62-7.27,.39-11.8-5.7-30.47-39.91-33.23Z"/><path class="b" d="M1338.81,1002.05c-35.9-2.21-82.37,13.77-95.16,67.86-.8,3.4-1.37,6.77-1.72,10.08h50c5.26-3.43,10.82-5.15,15.66-4.92,4.55,.22,8.42,2.18,12.03,4.92h67.1c2.59-4.15,4.94-8.97,6.93-14.51,10.82-30-18.93-61.23-54.83-63.44Z"/><path class="b" d="M1269.54,708.55h-.09c-1.35,3.71-1.41,8.3,.17,13.92,5.8,20.59,31.61,20.88,62.64,30.45,31.03,9.57,48.3,47.56,48.3,47.56,0,0-6.83-31.61-19.88-52.38-7.84-12.48-20.29-28.53-33.52-39.55h-.33c-8.68-7.17-17.67-12.15-25.89-12.49-15.05-.63-27.68,2.81-31.4,12.49Z"/><path class="b" d="M1416.07,835.15c-9.78,23.47-5.59,56.44-5.59,56.44,0,0,1.96-25.99,22.35-36.43,20.4-10.44,15.09-27.28,12.02-31.75-3.07-4.47-19-11.74-28.78,11.74Z"/><path class="b" d="M1382.1,906.68c7.39-27.66,5.19-59.24-4.04-89.42-9.22-30.18-58.68-81.31-113.45-63.43-54.77,17.88-52.81,92.77-17.32,99.76,35.49,6.99,49.18-12.85,60.08-17.6,10.9-4.75,54.49-16.21,64.83,29.9,10.34,46.11-10.34,78.52-10.34,78.52,0,0,12.85-10.06,20.24-37.72Z"/><path class="b" d="M1343.98,860.86c-13.97-18.72-59.52-15.93-58.96,12.29s8.94,31.02,23.47,57.84c14.53,26.82-8.66,57.84-8.66,57.84,0,0,13.97-.56,42.47-32.69,28.5-32.13,15.65-76.56,1.68-95.28Z"/><path class="b" d="M1221.33,907.99c-7.52,17.79-6.17,43.12,10.6,60.68,16.77,17.56,17.32,51.13,17.32,51.13,0,0,15.09-10.56,24.87-24.25,9.78-13.69,25.15-62.03,7.54-87.55-17.6-25.52-52.81-17.79-60.33,0Z"/><path class="b" d="M1226.67,1074.16c-2.09-8.82-5.52-15.79-9.74-21.02l9.74,21.02Z"/><path class="b" d="M1467.69,1031.69v-.14c-1.08-.6-2.21-1.17-3.42-1.66-23.61-9.58-49.56,8.42-52.36,35.06-.54,5.14-.32,10.17,.61,15.04h75.28c-2.03-20.02-4.95-39.64-20.11-48.31Z"/><path class="b" d="M1390.91,708.55h.07c4.93-7.64,11.74-15.88,20.13-25.9,17.7-21.15,11.8-59.26-5.9-66.03-17.7-6.77-63.44-2.08-64.18,56.93-.16,13.17,2.03,24.82,5.53,35h.04c12.19,35.34,40.17,52.68,40.17,52.68,0,0-5.16-11.8-4.66-28.03,.26-8.51,3.38-16.21,8.81-24.65Z"/><path class="b" d="M1088.75,723.61c-1.79-4.89-3.78-9.93-5.55-15.06h-.04c-5.26-15.23-8.67-31.25,.16-46.31,11.82-20.16,64.44-20.16,64.44-20.16,0,0-40.83-24.27-87.29-8.11-12.61,4.38-22.08,10.87-29.15,18.57l47.61,102.77c9.08-7.49,14.36-19.28,9.81-31.69Z"/><path class="b" d="M1154.03,738.73c-3.96-8.95-6.76-19.75-6.63-30.18h0c.17-11.89,4.17-23.29,14.63-30.94,19.66-14.38,59.25-10.45,59.25-10.45,0,0-29.51-18.69-68.85-11.31-29.17,5.47-47.04,25.75-49.37,52.7h-.01c-.8,9.37,.27,19.54,3.4,30.18,12.17,41.31,56.06,19.18,47.58,0Z"/><path class="b" d="M1225.95,735.78c.36-8.39,1.5-18.4,4.16-27.23h.03c2.84-9.37,7.41-17.41,14.62-20.75,14.02-6.5,35.78-7.24,35.78-7.24,0,0-45.73-11.31-72.29,2.09-14.18,7.15-21.83,16.06-25.11,25.9h-.03c-2.82,8.56-2.34,17.81,.06,27.23,5.16,20.29,42.05,17.33,42.78,0Z"/><path class="b" d="M1583.08,1050.94c-4.87-55.76-79.73-83.53-100.4-86.06-5.46-.67-10.51-.98-14.98-1.08h0c-12.31-.27-20.2,1.08-20.2,1.08,0,0,8.89,1.25,20.2,5.73v.1c19.94,7.96,47.2,25.92,46.62,64.62-.27,18.27,.17,33.01,1.7,44.67h66.61c1.2-8.03,1.45-17.64,.45-29.06Z"/><path class="b" d="M1586.42,955.58c-35.65-15.24-78.19-1.23-78.19-1.23,0,0,17.46,5.41,31.72,13.77,14.26,8.36,32.46,35.16,49.67,35.65,17.21,.49,32.46-32.95-3.2-48.19Z"/><path class="b" d="M1620.6,901.24c-60.73,.49-99.34,35.65-99.34,35.65,0,0,24.34-4.43,49.42-3.69,25.08,.74,47.21,10.82,54.34,27.31,7.13,16.49,4.18,57.77,45.24,59.24,41.06,1.48,43.77-43.03,39.34-61.02-4.43-17.99-28.28-57.99-89.01-57.5Z"/><path class="b" d="M1721.66,870.51c-.98-11.06-17.21-31.96-52.37-23.6-35.16,8.36-58.52,42.78-58.52,42.78,0,0,10.33-4.67,23.36-6.15,13.03-1.48,30.24,2.95,52.62,8.36,22.38,5.41,35.9-10.33,34.92-21.39Z"/><path class="b" d="M1696.09,793.3c9.34-29.26-5.16-49.67-22.62-43.03-17.46,6.64-19.67,24.34-16.47,46.47,3.2,22.13-14.26,47.21-14.26,47.21,0,0,44.01-21.39,53.36-50.65Z"/><path class="b" d="M1570.44,899.27s22.38-11.8,44.51-36.39c22.13-24.59,33.44-75.24,10.82-97.86-22.62-22.62-49.18-6.64-47.95,16.23,1.23,22.87,15.49,35.9,17.7,63.73,2.21,27.83-24.1,54.05-25.08,54.3Z"/><path class="b" d="M1574.37,843.95c.25-48.93-23.6-83.11-63.19-84.58-20.62-.77-34.96,6.01-43.49,15.83v.28c-7.66,9-10.51,20.48-8.88,31.09,1.38,8.95,4.64,15.37,8.88,19.82v.27c6.33,6.47,14.77,8.63,22.34,8.19,12.79-.74,41.8,11.8,44.01,40.33,2.21,28.52-48.69,62.95-48.69,62.95,0,0,15.49-5.66,26.56-10.57,11.06-4.92,62.21-34.67,62.45-83.6Z"/><path class="b" d="M1880.94,958.74s10.67-1.05,39.06-10.31v-32.54c-12.1,26-39.06,42.85-39.06,42.85Z"/><path class="b" d="M1834.3,988.56s10.22-1.38,23.2-.59c12.98,.79,28.31,9.83,39.52,21.43,6.19,6.4,15.66,7.11,22.98,4.48v-35.23c-6.07-4.87-15.34-8.63-29.27-9.75-34.21-2.75-56.43,19.66-56.43,19.66Z"/><path class="b" d="M1839.19,1002.05c-35.9-2.21-82.37,13.77-95.16,67.86-.8,3.4-1.37,6.77-1.72,10.08h50c5.26-3.43,10.82-5.15,15.66-4.92,4.55,.22,8.42,2.18,12.03,4.92h67.1c2.59-4.15,4.94-8.97,6.93-14.51,10.82-30-18.93-61.23-54.83-63.44Z"/><path class="b" d="M1827.54,708.55h-.33c-8.68-7.17-17.67-12.15-25.89-12.49-15.05-.63-27.68,2.81-31.4,12.49h-.09c-1.35,3.71-1.41,8.3,.17,13.92,5.8,20.59,31.61,20.88,62.64,30.45,31.03,9.57,48.3,47.56,48.3,47.56,0,0-6.83-31.61-19.88-52.38-7.84-12.48-20.29-28.53-33.52-39.55Z"/><path class="b" d="M1903.87,755.51c-14.81,27.94-3.35,96.96-3.35,96.96,0,0-.22-28.25,19.48-58.21v-60.95c-6.21,6.28-11.64,13.74-16.13,22.2Z"/><path class="b" d="M1910.86,891.59s1.01-13.41,9.14-24.84v-38.46c-1.24,1.93-2.44,4.18-3.55,6.85-9.78,23.47-5.59,56.44-5.59,56.44Z"/><path class="b" d="M1765,753.84c-54.77,17.88-52.81,92.77-17.32,99.76,35.49,6.99,49.18-12.85,60.08-17.6,10.9-4.75,54.49-16.21,64.83,29.9,10.34,46.11-10.34,78.52-10.34,78.52,0,0,12.85-10.06,20.24-37.72,7.39-27.66,5.19-59.24-4.04-89.42-9.22-30.18-58.68-81.31-113.45-63.43Z"/><path class="b" d="M1844.35,860.86c-13.97-18.72-59.52-15.93-58.96,12.29,.56,28.22,8.94,31.02,23.47,57.84,14.53,26.82-8.66,57.84-8.66,57.84,0,0,13.97-.56,42.47-32.69,28.5-32.13,15.65-76.56,1.68-95.28Z"/><path class="b" d="M1721.71,907.99c-7.52,17.79-6.17,43.12,10.6,60.68,16.77,17.56,17.32,51.13,17.32,51.13,0,0,15.09-10.56,24.87-24.25,9.78-13.69,25.15-62.03,7.54-87.55-17.6-25.52-52.81-17.79-60.33,0Z"/><path class="b" d="M1686,1041.64c-12.34,3.21-23.01,17.17-21.11,38.36h63.29c-4.91-31.49-25.46-42.7-42.18-38.36Z"/><path class="b" d="M1648.14,1077.05c1.48-27.05-11.8-59.5-36.15-49.76-19.65,7.87-22.15,29.05-12.81,52.71h48.92c-.02-.99-.01-1.97,.04-2.95Z"/><path class="b" d="M1467.69,857.32h0c-1.6-.11-3.28-.09-5.03,.1-19.66,2.12-30.45,17.92-39.51,49.15-9.06,31.22-42.59,52.17-42.59,52.17,0,0,13.11-1.29,48.95-13.63,14.88-5.12,27.92-12.26,38.18-20.14h0c14.48-11.09,23.42-23.65,24.09-34.02,1.05-16.16-7.66-32.47-24.09-33.63Z"/><path class="b" d="M1495.72,751.04c8.94-9.5,6.43-39.96-22.91-40.24-1.72-.02-3.42,.03-5.11,.13h0c-27.14,1.62-50.26,18.26-64.2,44.57-14.81,27.94-3.35,96.96-3.35,96.96,0,0-.28-34.65,26.55-67.9,13.34-16.54,28.27-22.57,41.01-25.62h0c12.88-3.09,23.53-3.13,28.03-7.91Z"/><path class="b" d="M1920,1044.37c-4.11,5.82-6.89,12.84-7.71,20.59-.54,5.14-.32,10.17,.61,15.04h7.1v-35.63Z"/><path class="b" d="M1905.58,616.62c-17.7-6.77-63.44-2.08-64.18,56.93-.16,13.17,2.03,24.82,5.53,35h.04c12.19,35.34,40.17,52.68,40.17,52.68,0,0-5.16-11.8-4.66-28.03,.26-8.51,3.38-16.21,8.81-24.65h.07c4.93-7.64,11.74-15.88,20.13-25.9,4.01-4.79,6.79-10.44,8.52-16.41v-30.96c-2.67-8.98-7.69-16.09-14.42-18.67Z"/><path class="b" d="M1514.13,724.1c3.93,29.51,29.26,41.31,47.21,39.1,17.95-2.21,34.92-20.16,27.79-39.59-1.79-4.89-3.78-9.93-5.55-15.06h-.04c-5.26-15.23-8.67-31.25,.16-46.31,11.82-20.16,64.44-20.16,64.44-20.16,0,0-40.83-24.27-87.29-8.11-38.79,13.49-48.11,46.78-47.84,74.58h0c.06,5.46,.48,10.71,1.12,15.55Z"/><path class="b" d="M1726.33,735.78c.36-8.39,1.5-18.4,4.16-27.23h.03c2.84-9.37,7.41-17.41,14.62-20.75,14.02-6.5,35.78-7.24,35.78-7.24,0,0-45.73-11.31-72.29,2.09-14.18,7.15-21.83,16.06-25.11,25.9h-.03c-2.82,8.56-2.34,17.81,.06,27.23,5.16,20.29,42.05,17.33,42.78,0Z"/></g></svg>