<?xml version="1.0" encoding="UTF-8"?><svg id="a" xmlns="http://www.w3.org/2000/svg" viewBox="0 0 410.67 968.1"><defs><style>.b{fill:#9d5349;}.c{fill:#e3cf25;}.d{fill:#db937d;}.e{fill:#fed9cd;}.f{fill:#e8ddd8;}.g{fill:#d78383;}.h{fill:#e8ddd9;}.i{fill:#5e90b9;}.j{fill:#232f51;}.k{fill:#18203c;}.l{fill:#db736d;}.m{fill:#ab3345;}.n{fill:#6d93bb;}.o{fill:#5c90b8;}.p{fill:#e39b37;}.q{fill:#fed0bf;}.r{fill:#5f91b9;}.s{fill:#4a80aa;}.t{fill:#d79783;}.u{fill:#7b453b;}</style></defs><polyline class="k" points="200.07 455.29 199 509.16 386.52 507.41 389 455.29 202.97 455.29"/><polygon class="l" points="335.03 864.77 342.68 884.85 372.27 873.58 367.46 854.28 335.03 864.77"/><path class="c" d="M156.85,320.18c7.47-7.02,30.47-24.02,33.47-31.02,3-7,27.3-120.81,62.65-124.91,35.35-4.09,48.94,130.14,48.94,130.14,0,0-83.76,73.42-101.68,76.09s-35.15,1.57-35.15,1.57l-8.23-51.88Z"/><path class="p" d="M227.74,223.55c-6.14,2.77-27.14,108.77-32.14,117.77s-14.54,16.2-14.54,16.2l-14.69,14.7s25.06,1.76,35.15-1.57,29.21-74.18,29.15-75.75-2.93-71.34-2.93-71.34Z"/><path class="c" d="M399.42,475.65c-4.11-192.49-45.71-291.43-61.41-308.46-15.7-17.03-74.9-28.97-97.8,12.5-22.9,41.47-54.47,295.96-54.47,295.96h213.68Z"/><path class="m" d="M340.56,955.5c-.24-2.2-.14-4.43-.19-6.66-.02-.58-.04-1.17-.06-1.75-.22-9.84-.44-19.69-.66-29.53-.21-.06-.42-.19-.63-.19-1.83-.01-3.1-2.28-2.21-4.06,.55-1.11,1.63-1.35,2.62-1.77-.03-1.82-.06-3.64-.1-5.46-.21-.07-.42-.19-.63-.19-1.2,.03-2.14-1.31-2.41-2.37-.25-1.02,.28-2.22,1.27-2.82,.49-.29,1.07-.45,1.6-.67-.04-1.81-.07-3.62-.11-5.42-.37-.15-.75-.28-1.13-.43-1.35-.52-1.89-1.3-1.93-2.73-.03-1.12,.66-2.02,1.89-2.55,.35-.15,.69-.36,1.03-.53-.05-3.22-.1-6.44-.16-9.65-.02-.97,.33-1.53,1.38-1.53,1.57,0,3.15-.12,4.72-.06,2.24,.09,3.98,1.09,5.09,3.09,.12-.08,.27-.13,.38-.23,5.16-4.63,7.63-10.36,7.15-17.32-.2-2.96-.43-5.92-.57-8.88-.09-1.86,1.32-3.03,3.14-2.64,.61,.13,1.2,.3,1.81,.45,1.15,.24,2.31,.48,3.47,.73,4.95,1.22,9.89,2.44,14.85,3.66,.83,.2,1.67,.38,2.5,.57,1.44,.56,2.89,1.11,4.32,1.67s2.89,1.11,4.32,1.67c1.51,.58,3.02,1.16,4.53,1.75l.82,.32c2.24,2.08,2.31,4.47,1.25,7.21-12.17,31.41-24.3,62.84-36.44,94.26-1.17,3.05-2.34,3.89-5.54,3.98-2.61-1.01-5.22-2.02-7.83-3.02-.82-.32-1.65-.63-2.47-.96-.12-.12-.23-.28-.37-.37-2.69-1.82-4.36-4.33-4.7-7.56h0Z"/><g><path class="m" d="M361.86,851.61c-.6-.15-1.2-.32-1.81-.45-1.81-.38-3.24,.78-3.14,2.64,.16,2.97,.37,5.92,.57,8.88,.47,6.96-2,12.69-7.15,17.32-.11,.09-.24,.15-.38,.23-.23,.28-.43,.59-.71,.82-2.33,1.92-3.74,4.33-3.91,7.39,.36,.04,.72,.11,1.07,.11,1.87-.01,3.74-.12,5.62-.05,1.99,.08,3.16,2.05,2.41,3.88-.51,1.25-1.52,1.72-2.79,1.77-2.05,.09-4.09,.17-6.14,.26,.03,1.85,.07,3.69,.09,5.54,.39,.03,.79,.1,1.19,.1,1.76-.02,3.52-.12,5.28-.09,2.26,.05,3.56,2.28,2.49,4.23-.6,1.08-1.59,1.44-2.76,1.49-2.01,.07-4.01,.18-6.02,.27,.03,1.85,.06,3.68,.1,5.53,1.97,0,3.94,.02,5.91-.02,1.49-.03,2.64,.47,3.26,1.91,.27-.1,.53-.25,.81-.27,1.46-.05,2.93-.12,4.39-.08,3.18,.06,6.29-1.67,7.63-5.18,6.32-16.56,12.74-33.06,19.12-49.59l-4.32-1.67c-.84-.19-1.67-.37-2.5-.57-4.95-1.21-9.89-2.44-14.85-3.66,.13,1.83,.3,3.65,.4,5.49,.14,2.49,.31,4.98,.32,7.46,0,2.72-.58,5.35-1.34,7.96-.67,2.32-1.75,4.4-3.01,6.4-.63,.99-1.6,1.09-2.47,.49-.73-.5-.86-1.57-.31-2.46,2.28-3.65,3.67-7.63,3.64-11.91-.03-4.72-.45-9.44-.71-14.16v.02Z"/><path class="q" d="M355.93,967.41c3.2-.08,4.37-.93,5.54-3.98,12.14-31.42,24.27-62.85,36.44-94.26,1.06-2.74,1-5.12-1.25-7.21l-.82-.32c-11.87,30.72-23.74,61.44-35.6,92.17-.98,2.53-3.46,4.3-6.29,2.88-.5,1.26-1.09,2.48-1.47,3.77-.66,2.26-1.98,3.66-4.37,3.91l7.83,3.02h-.01Z"/><path class="e" d="M353.95,956.71c2.84,1.42,5.31-.35,6.29-2.88,11.86-30.73,23.73-61.45,35.6-92.17l-4.53-1.75c-7.97,20.62-15.93,41.24-23.9,61.85-.17,.45-.37,.87-.56,1.32-.14,.42-.27,.83-.43,1.24-2.5,6.47-5.01,12.95-7.5,19.42-1.66,4.32-3.31,8.64-4.97,12.96h0Z"/><path d="M366.84,923.07c.2-.44,.39-.88,.56-1.32,7.97-20.62,15.94-41.23,23.9-61.85l-4.32-1.67c-6.38,16.53-12.81,33.04-19.12,49.59-1.34,3.51-4.45,5.25-7.63,5.18-1.46-.03-2.93,.03-4.39,.08-.27,.01-.54,.17-.81,.27,.35,2.51-.66,3.67-3.22,3.77-1.95,.07-3.9,.17-5.86,.27,.68,4.2,2.96,6.05,7.28,5.93,2.9-.08,5.79-.11,8.69-.17l4.94-.08h0Z"/><path class="s" d="M366.84,923.07c-1.65,.03-3.29,.05-4.94,.08-3.68,9.54-7.37,19.07-11.05,28.6-.6,1.56-2.19,2.51-3.85,2.28-1.8-.25-3.15-1.3-4.35-2.54-.81-.84-1.53-1.76-2.3-2.65,.05,2.22-.03,4.46,.19,6.66,.35,3.23,2.01,5.73,4.7,7.56,.14,.1,.25,.24,.37,.37l2.47,.96c2.39-.25,3.72-1.65,4.37-3.91,.37-1.29,.97-2.52,1.47-3.77,1.66-4.32,3.31-8.64,4.97-12.96,2.5-6.47,5-12.95,7.5-19.42,.16-.41,.29-.84,.43-1.24v-.02Z"/><path class="o" d="M340.36,948.85c.77,.88,1.48,1.8,2.3,2.65,1.2,1.25,2.55,2.29,4.35,2.54,1.65,.23,3.24-.72,3.85-2.28,3.69-9.54,7.37-19.07,11.05-28.6-2.9,.05-5.79,.09-8.69,.17-4.31,.12-6.59-1.73-7.28-5.93-2.1,.06-4.2,.13-6.32,.19,.22,9.84,.44,19.69,.66,29.53,.01,.59,.03,1.17,.06,1.75h.01Z"/><path class="f" d="M345.49,894.42c2.05-.09,4.1-.18,6.14-.26,1.27-.05,2.28-.52,2.79-1.77,.75-1.84-.42-3.81-2.41-3.88-1.86-.07-3.74,.04-5.62,.05-.35,0-.71-.07-1.07-.11-2.04,.09-4.08,.18-6.12,.25-.09,0-.18-.2-.27-.32-.35,.18-.68,.39-1.03,.53-1.25,.52-1.93,1.43-1.89,2.55,.04,1.43,.58,2.21,1.93,2.73,.37,.15,.75,.28,1.13,.43,2.15-.06,4.28-.13,6.43-.21h-.01Z"/><path class="f" d="M345.76,905.94c2.01-.09,4.02-.2,6.02-.27,1.18-.04,2.18-.4,2.76-1.49,1.07-1.93-.23-4.17-2.49-4.23-1.76-.04-3.52,.07-5.28,.09-.4,0-.79-.06-1.19-.1-1.27,.07-2.54,.18-3.81,.21-.86,.02-1.73-.08-2.6-.13-.54,.22-1.1,.38-1.6,.67-1,.59-1.52,1.79-1.27,2.82,.27,1.06,1.21,2.4,2.41,2.37,.21,0,.42,.12,.63,.19,2.14-.06,4.29-.11,6.43-.15h-.01Z"/><path class="h" d="M339.64,917.58c2.1-.06,4.2-.13,6.32-.19,1.95-.09,3.9-.19,5.86-.27,2.57-.09,3.57-1.26,3.22-3.77-.62-1.44-1.77-1.93-3.26-1.91-1.97,.03-3.94,.01-5.91,.02-2.14,.03-4.29,.06-6.43,.09-.98,.42-2.05,.67-2.62,1.77-.9,1.78,.38,4.05,2.21,4.06,.21,0,.42,.12,.63,.19v.02Z"/><path d="M361.86,851.61c.25,4.72,.69,9.43,.71,14.16,.03,4.28-1.37,8.27-3.64,11.91-.56,.9-.42,1.96,.31,2.46,.87,.6,1.84,.5,2.47-.49,1.27-1.99,2.34-4.08,3.01-6.4,.76-2.62,1.34-5.25,1.34-7.96,0-2.49-.18-4.97-.32-7.46-.11-1.84-.26-3.66-.4-5.49-1.15-.24-2.31-.48-3.47-.73h0Z"/><path class="i" d="M338.93,888.38c.09,.11,.18,.32,.27,.32,2.04-.07,4.08-.16,6.12-.25,.18-3.06,1.58-5.46,3.91-7.39,.28-.23,.47-.54,.71-.82-1.11-2-2.85-3-5.09-3.09-1.57-.06-3.14,.06-4.72,.06-1.06,0-1.4,.55-1.38,1.53,.06,3.22,.11,6.43,.16,9.65h.01Z"/><path class="r" d="M339.43,911.55c2.14-.03,4.29-.07,6.43-.09-.03-1.84-.06-3.68-.1-5.53-2.14,.06-4.29,.11-6.43,.15,.04,1.82,.06,3.64,.1,5.46h0Z"/><path class="r" d="M339.17,900.05c.87,.05,1.73,.14,2.6,.13,1.27-.03,2.54-.14,3.81-.21-.03-1.85-.07-3.69-.09-5.54-2.15,.06-4.28,.13-6.43,.21,.04,1.81,.07,3.62,.11,5.42h0Z"/></g><path class="d" d="M289.06,143.23c12.32,1.18,21.69-2.78,28.85-9.63-.04,2.13,.04,4.52,.2,7.02,.51,7.78,1.78,16.42,2.4,20.1,.95,5.61-56,16.89-57.41,8.29-.79-4.8-2.16-17.95-3.09-29.1-.3-3.62-.56-7.01-.73-9.85,6.2,6.86,15.59,11.81,29.75,13.16h.01Z"/><path class="d" d="M.71,391.04c2.42-3.12,11.17-8.87,17.92-12.84,6.76-3.97,15.71-8.64,18.7-8.7,4.56-.1,11.18,1.79,15.06,6.16,5.06-.63,34.74-17.16,63.45-33.15,14.88-8.28,28.93-16.11,39.16-21.5l.11-.06h0c5.03-2.64,8.66-4.46,11.1-5.54,2.91-1.3,3.63-1.35,3.92-1.27,9.88,3.35,11.67,16.84,11.43,27.57-.3,13.5-3.98,27.12-5.53,27.57-2.69,.78-3.88,1.09-7.81,2.1l-3.27,.85h0l-.66,.17c-.51,.13-1.05,.27-1.63,.42-7.41,1.92-30.88,6.34-46.42,9.26-6.2,1.17-11.1,2.09-13.05,2.49-4.1,.85-9.32,1.58-14.84,2.37-11.1,1.57-23.67,3.35-30.1,6.51-.18,.49-.6,.92-1.42,1.47-6.84,4.59-12.15,8.43-16.41,11.52-8.22,5.95-12.44,9.01-16.04,9.01-1.31,0-2.54-.41-3.84-1.23-4.94-3.11-19.31-13.49-20.49-20.18-.21-1.17,0-2.17,.64-2.98Z"/><path class="g" d="M261.29,153.6c-.45-4.44-.89-9.22-1.26-13.69-.3-3.62-.56-7.01-.73-9.85,6.2,6.86,15.59,11.81,29.75,13.16h.01c12.32,1.19,21.69-2.77,28.85-9.63-.04,2.13,.04,4.52,.2,7.02,.1,1.44,.22,2.92,.35,4.38-13.73,7.37-35.64,14.35-57.18,8.6Z"/><path class="g" d="M176.76,368.41c7.13-3.52,4.56-33.25,4.56-33.25l-108,54s89.83-13.77,103.44-20.75Z"/><path class="b" d="M335.58,95.83l-88.54,4.13s-3.18-8.92-3.36-16.48c-3.82-40.84,6.13-59.41,14.44-61.25,16.65-34.95,62.13-19.56,75.62-14.28-3.48-.61-2.25,3.55-7.52,7.98,5.27-2.38,15.34,.41,18.72,7.65,3.38,7.24,1.21,45.95-.55,55.31s-8.78,16.95-8.78,16.95h-.02Z"/><path class="t" d="M335.82,94.67l-5.76,20.66s1.44,3.37,10.05-1.17,7.69-25.72,4.49-28.17-4.72,2.32-8.79,8.68h0Z"/><path class="t" d="M249.43,117.3s-5.43-2.26-8.27-9.52c-5.09-13.85-1.83-23.99,.9-22.87s3.61,5.42,4.89,8.12"/><path class="d" d="M247.01,80.02c.48,13.18-3.3,41.17,13.31,55.72,6.47,5.67,16.02,9.3,30.12,9.23,12.28-.06,21.38-4.52,28.16-11.41,13.27-13.48,17.6-36.27,19.15-53.61,.91-10.14,.87-18.42,1.12-21.88,0,0,.92-16.66-6.72-27.65-9.02-12.97-63.5-3.89-73.35,1.07-7.76,3.92-11.04,20.43-11.75,36.22-.2,4.25-.2,8.44-.06,12.32h0Z"/><ellipse class="n" cx="304.58" cy="73.48" rx="2.82" ry="5.2" transform="translate(-1.35 5.85) rotate(-1.1)"/><ellipse class="n" cx="277.08" cy="73.76" rx="5.23" ry="3.01" transform="translate(198.48 349.5) rotate(-89)"/><path class="l" d="M284.76,78.14s.99-1.88,1.51-.46c.78,2.12,.67,25.25,.15,26.79s-6.83-1.13-6.83-1.13c-2.59-.77-3.76-1.9-2.03-7.88,1.74-5.99,2.67-7.91,7.19-17.3h0Z"/><path class="u" d="M320.45,60.66c-.04,1.56-3.6-2.98-9.45-5.05-5.85-2.07-11.94,.96-6.85-2.83,7.84-5.52,13.12,1.4,16.3,7.88h0Z"/><path class="u" d="M259.46,66.49c.23,1.55,3.22-3.39,8.78-6.15,5.56-2.75,11.97-.48,6.47-3.63-8.45-4.55-12.86,2.96-15.25,9.76h0Z"/><path class="p" d="M391.95,362.16s8.58,93.97,7.47,113.49h-123.92l86.81-203.49,29.64,90Z"/><path class="c" d="M341.77,172.13c16.54,12.03,60.54,56.03,67.54,111.03s-13,98-60,114-54.16,20.29-54.16,20.29l-13.5-55.66,60.12-189.67Z"/><g><path class="d" d="M187.52,406.65c6.56-4.3,15.27-9.39,18.25-9.6,4.53-.32,11.25,1.24,15.34,5.42,5.02-.88,33.87-18.82,61.77-36.18,14.46-9,28.12-17.49,38.08-23.38l.1-.06h0c4.89-2.88,8.44-4.87,10.82-6.07,2.85-1.44,3.56-1.52,3.86-1.46,10.03,2.87,12.47,16.25,12.75,26.98,.35,13.5-2.67,27.29-4.19,27.81-2.65,.91-3.82,1.28-7.7,2.48l-3.22,1h0l-.69,.21c-.49,.15-1.01,.31-1.56,.49-7.31,2.28-30.52,7.82-45.89,11.48-6.15,1.47-11.01,2.63-12.94,3.12-4.05,1.04-9.23,2.03-14.71,3.08-11.01,2.11-23.49,4.5-29.76,7.96-.16,.49-.55,.94-1.35,1.54-6.61,4.91-11.72,9.01-15.83,12.3-10.81,8.65-14.45,11.57-19.48,8.74-3.92-2.21-13.63-8.46-18.57-14.24-1.47-1.72-2.52-3.41-2.87-4.93-.26-1.15-.1-2.17,.49-3.01,2.26-3.23,10.72-9.4,17.28-13.7Z"/><path class="g" d="M344.27,390c7-3.78,3.85-32.21,3.85-32.21l-110.86,58.5s93.66-18.81,107.01-26.28Z"/></g><path class="p" d="M281.65,361.8c2.66-10.63,4.19-6.27,10.93-12.95s53.43-22.53,53.58-29.11,6.15-36.57,6.15-41.57-31.66,34.63-35.33,41.82-31.67,26.18-33.67,31.18-1.66,10.63-1.66,10.63Z"/><path class="c" d="M297.31,406.16c4-10,1-56-8-47-9,9,2-6,2-6l52-23s22,18,22,21-5.66,34.75-6.83,35.88-38.85,20.12-41.51,19.12-19.66,0-19.66,0Z"/><polygon class="j" points="318.91 854.08 373.58 835.34 376.59 850.8 326.28 867.71 318.91 854.08"/><polygon class="j" points="386.52 504.97 364.29 684.84 368.44 837.1 328.28 850.87 301.31 684.16 289.29 505.83 386.52 504.97"/><polygon class="l" points="245.03 865.77 252.68 885.85 282.27 874.58 277.46 855.28 245.03 865.77"/><path class="m" d="M235.55,953c.23-2.2,.79-4.36,1.21-6.55,.1-.57,.2-1.15,.31-1.72,1.85-9.66,3.71-19.34,5.56-29.01-.19-.11-.37-.27-.57-.32-1.78-.39-2.55-2.88-1.31-4.43,.78-.97,1.88-.98,2.93-1.18,.35-1.79,.7-3.57,1.05-5.36-.19-.11-.37-.27-.57-.32-1.18-.22-1.82-1.73-1.86-2.82-.03-1.05,.74-2.11,1.83-2.49,.54-.18,1.14-.22,1.7-.32,.34-1.77,.69-3.55,1.03-5.33-.33-.22-.67-.43-1.02-.66-1.21-.79-1.58-1.67-1.31-3.08,.2-1.1,1.07-1.84,2.39-2.09,.38-.07,.75-.21,1.12-.31,.62-3.16,1.26-6.31,1.87-9.47,.18-.96,.64-1.43,1.67-1.2,1.53,.33,3.1,.55,4.63,.94,2.17,.56,3.66,1.91,4.32,4.09,.14-.05,.29-.07,.41-.14,6.02-3.44,9.64-8.53,10.64-15.43,.43-2.94,.83-5.88,1.31-8.8,.3-1.84,1.93-2.68,3.63-1.92,.57,.26,1.11,.55,1.68,.83,1.07,.48,2.15,.95,3.24,1.44,4.58,2.23,9.16,4.46,13.75,6.7,.77,.37,1.55,.72,2.32,1.08,1.29,.85,2.59,1.7,3.88,2.55s2.59,1.7,3.88,2.55c1.36,.89,2.71,1.77,4.06,2.67l.74,.48c1.75,2.51,1.32,4.86-.29,7.31-18.51,28.15-36.97,56.32-55.45,84.49-1.79,2.73-3.11,3.31-6.25,2.72-2.34-1.53-4.68-3.07-7.02-4.6-.74-.48-1.48-.96-2.22-1.46-.09-.14-.16-.32-.28-.44-2.24-2.35-3.36-5.16-3.01-8.38h0Z"/><g><path class="m" d="M278.22,855.92c-.56-.27-1.11-.57-1.68-.83-1.69-.75-3.33,.08-3.63,1.92-.47,2.93-.88,5.87-1.31,8.8-1,6.9-4.62,11.99-10.64,15.43-.13,.07-.27,.1-.41,.14-.29,.22-.55,.49-.87,.65-2.69,1.39-4.56,3.44-5.37,6.4,.34,.11,.68,.26,1.02,.33,1.83,.38,3.68,.66,5.5,1.13,1.93,.49,2.66,2.67,1.54,4.3-.76,1.12-1.85,1.36-3.1,1.14-2.02-.34-4.04-.69-6.06-1.03-.35,1.81-.71,3.63-1.07,5.43,.37,.11,.75,.27,1.14,.34,1.73,.35,3.47,.62,5.18,1.02,2.2,.53,3,2.98,1.55,4.66-.81,.93-1.86,1.08-3.01,.87-1.98-.35-3.96-.67-5.94-1-.35,1.81-.71,3.61-1.07,5.43,1.93,.42,3.85,.85,5.78,1.23,1.47,.29,2.48,1.01,2.79,2.55,.29-.04,.57-.14,.85-.09,1.44,.25,2.89,.5,4.31,.84,3.1,.73,6.5-.31,8.55-3.46,9.66-14.86,19.41-29.65,29.12-44.46l-3.88-2.55c-.78-.36-1.55-.71-2.32-1.08-4.58-2.22-9.16-4.46-13.75-6.7-.25,1.81-.48,3.63-.76,5.45-.39,2.46-.74,4.93-1.25,7.36-.57,2.66-1.69,5.1-2.98,7.5-1.14,2.13-2.64,3.93-4.29,5.62-.83,.83-1.79,.73-2.52-.04-.61-.64-.51-1.72,.22-2.47,2.99-3.09,5.19-6.69,6.07-10.88,.97-4.62,1.54-9.32,2.29-13.99v.02Z"/><path class="q" d="M248.07,967.88c3.14,.59,4.46,.01,6.25-2.72,18.48-28.16,36.94-56.34,55.45-84.49,1.61-2.45,2.06-4.8,.29-7.31l-.74-.48c-18.07,27.54-36.13,55.07-54.19,82.62-1.49,2.27-4.29,3.47-6.75,1.5-.75,1.12-1.59,2.19-2.23,3.38-1.12,2.07-2.7,3.16-5.1,2.9l7.02,4.6h-.01Z"/><path class="e" d="M248.39,957c2.47,1.99,5.27,.78,6.75-1.5,18.05-27.55,36.12-55.08,54.19-82.62l-4.06-2.67c-12.13,18.48-24.24,36.96-36.37,55.44-.26,.4-.55,.78-.82,1.17-.23,.38-.44,.76-.68,1.13-3.81,5.8-7.62,11.6-11.42,17.41-2.53,3.87-5.05,7.75-7.59,11.63h0Z"/><path d="M268.06,926.83c.28-.39,.57-.77,.82-1.17,12.13-18.48,24.25-36.96,36.37-55.44l-3.88-2.55c-9.71,14.82-19.47,29.6-29.12,44.46-2.05,3.15-5.45,4.19-8.55,3.46-1.42-.34-2.87-.59-4.31-.84-.26-.05-.56,.06-.85,.09-.18,2.52-1.41,3.45-3.94,3.01-1.92-.34-3.85-.65-5.78-.97-.21,4.25,1.62,6.53,5.87,7.33,2.85,.53,5.68,1.11,8.53,1.66l4.84,.96h0Z"/><path class="s" d="M268.06,926.83c-1.61-.32-3.23-.64-4.84-.96-5.61,8.55-11.22,17.1-16.82,25.64-.92,1.4-2.67,1.99-4.24,1.42-1.7-.62-2.8-1.93-3.72-3.4-.61-.99-1.13-2.04-1.69-3.07-.41,2.18-.97,4.35-1.21,6.55-.34,3.23,.76,6.03,3.01,8.38,.12,.13,.19,.29,.28,.44l2.22,1.46c2.39,.26,3.99-.83,5.1-2.9,.64-1.18,1.48-2.26,2.23-3.38,2.53-3.87,5.05-7.75,7.59-11.63,3.81-5.8,7.61-11.61,11.42-17.41,.24-.37,.46-.76,.68-1.13v-.02Z"/><path class="o" d="M236.75,946.46c.56,1.02,1.07,2.07,1.69,3.07,.91,1.48,2.02,2.78,3.72,3.4,1.57,.57,3.32-.02,4.24-1.42,5.61-8.55,11.22-17.1,16.82-25.64-2.84-.56-5.68-1.13-8.53-1.66-4.24-.79-6.08-3.08-5.87-7.33-2.07-.38-4.13-.76-6.22-1.14-1.85,9.66-3.71,19.34-5.56,29.01-.11,.57-.21,1.15-.31,1.72h.01Z"/><path class="f" d="M253.21,894.32c2.02,.34,4.04,.68,6.06,1.03,1.26,.22,2.34-.03,3.1-1.14,1.12-1.64,.39-3.81-1.54-4.3-1.81-.46-3.67-.75-5.5-1.13-.35-.07-.68-.22-1.02-.33-2.01-.34-4.03-.68-6.04-1.04-.09-.02-.14-.24-.2-.37-.38,.11-.74,.23-1.12,.31-1.33,.25-2.18,.99-2.39,2.09-.27,1.41,.1,2.29,1.31,3.08,.33,.22,.67,.43,1.02,.66,2.11,.39,4.21,.77,6.33,1.15h-.01Z"/><path class="f" d="M251.06,905.64c1.98,.33,3.97,.65,5.94,1,1.16,.21,2.21,.07,3.01-.87,1.45-1.66,.66-4.13-1.55-4.66-1.71-.41-3.46-.67-5.18-1.02-.39-.08-.76-.23-1.14-.34-1.26-.2-2.52-.35-3.77-.59-.85-.16-1.68-.44-2.51-.67-.57,.1-1.16,.14-1.7,.32-1.1,.37-1.86,1.43-1.83,2.49,.04,1.1,.68,2.6,1.86,2.82,.21,.04,.38,.21,.57,.32,2.11,.4,4.22,.8,6.32,1.2h-.01Z"/><path class="h" d="M242.63,915.74c2.07,.38,4.13,.76,6.22,1.14,1.92,.32,3.86,.63,5.78,.97,2.53,.45,3.76-.48,3.94-3.01-.31-1.54-1.33-2.26-2.79-2.55-1.93-.38-3.86-.82-5.78-1.23-2.1-.42-4.21-.84-6.31-1.27-1.05,.21-2.15,.22-2.93,1.18-1.25,1.55-.48,4.04,1.31,4.43,.2,.05,.38,.21,.57,.32v.02Z"/><path d="M278.22,855.92c-.74,4.67-1.31,9.37-2.29,13.99-.87,4.19-3.07,7.8-6.07,10.88-.74,.76-.82,1.83-.22,2.47,.72,.77,1.69,.87,2.52,.04,1.66-1.68,3.15-3.49,4.29-5.62,1.3-2.4,2.42-4.85,2.98-7.5,.52-2.44,.87-4.9,1.25-7.36,.28-1.82,.52-3.63,.76-5.45-1.07-.48-2.15-.95-3.24-1.44h0Z"/><path class="i" d="M248.08,887.05c.07,.13,.11,.36,.2,.37,2.01,.36,4.03,.71,6.04,1.04,.82-2.95,2.7-5.01,5.37-6.4,.32-.16,.58-.43,.87-.65-.66-2.19-2.15-3.54-4.32-4.09-1.53-.39-3.08-.61-4.63-.94-1.04-.23-1.49,.25-1.67,1.2-.62,3.16-1.25,6.31-1.87,9.47h.01Z"/><path class="r" d="M243.69,909.8c2.1,.42,4.2,.84,6.31,1.27,.36-1.81,.71-3.61,1.07-5.43-2.11-.4-4.22-.8-6.32-1.2-.34,1.78-.7,3.57-1.05,5.36h0Z"/><path class="r" d="M245.86,898.51c.84,.23,1.66,.51,2.51,.67,1.25,.24,2.51,.4,3.77,.59,.35-1.81,.71-3.63,1.07-5.43-2.11-.39-4.21-.77-6.33-1.15-.34,1.77-.69,3.55-1.03,5.33h0Z"/></g><polygon class="j" points="228.91 855.08 283.58 836.34 286.59 851.8 236.28 868.71 228.91 855.08"/><polygon class="j" points="296.52 505.97 274.29 685.84 278.44 838.1 238.28 851.87 211.31 685.16 199.29 506.83 296.52 505.97"/><polygon class="k" points="211.31 685.16 278.07 824.49 278.44 838.1 238.28 851.87 211.31 685.16"/><polygon class="k" points="301.31 685.16 368.07 824.49 368.44 838.1 328.28 851.87 301.31 685.16"/></svg>