<?xml version="1.0" encoding="UTF-8"?><svg xmlns="http://www.w3.org/2000/svg" xmlns:xlink="http://www.w3.org/1999/xlink" viewBox="0 0 284.83 927.72"><defs><style>.f{fill:#9d5349;}.g{fill:#e3cf25;}.h{fill:#db937d;}.i{fill:#fed9cd;}.j{fill:#d79c83;}.k{fill:#e8ddd8;}.l{fill:url(#c);}.m{fill:#e8ddd9;}.n{fill:#5e90b9;}.o{fill:#232f51;}.p{fill:#18203c;}.q{fill:#db736d;}.r{fill:#ab3345;}.s{fill:#5c90b8;}.t{fill:url(#d);}.u{fill:url(#e);}.v{fill:#e39b37;}.w{fill:#fed0bf;}.x{fill:#5f91b9;}.y{fill:#93293b;}.a`{fill:#4a80aa;}.aa{fill:#7b453b;}.ab{fill:#7f93bb;}</style><linearGradient id="c" x1="2434.89" y1="354.14" x2="2392.28" y2="353.76" gradientTransform="translate(2593.87) rotate(-180) scale(1 -1)" gradientUnits="userSpaceOnUse"><stop offset="0" stop-color="#db937d"/><stop offset="1" stop-color="#db736d"/></linearGradient><linearGradient id="d" x1="2366.1" y1="336.08" x2="2540.57" y2="336.08" xlink:href="#c"/><radialGradient id="e" cx="163.43" cy="141.22" fx="163.43" fy="141.22" r="31.33" gradientTransform="translate(22.6 16.63) rotate(15.39) scale(1.01 .57) skewX(1.5)" gradientUnits="userSpaceOnUse"><stop offset=".01" stop-color="#db746d"/><stop offset=".44" stop-color="#db756d"/><stop offset="1" stop-color="#db937d"/></radialGradient></defs><g id="a"/><g id="b"><path class="r" d="M254.02,905.37c-1.91-1.12-3.98-1.95-5.99-2.91-.52-.26-1.05-.52-1.57-.77-8.88-4.24-17.77-8.49-26.65-12.73,.03-.22,0-.46,.08-.65,.74-1.67-.81-3.76-2.79-3.68-1.24,.05-1.9,.93-2.69,1.66-1.65-.78-3.29-1.55-4.94-2.33,.02-.22,0-.46,.08-.65,.52-1.08-.31-2.49-1.17-3.17-.83-.65-2.14-.66-3.09,0-.47,.33-.85,.79-1.27,1.18-1.63-.78-3.27-1.55-4.9-2.33,.02-.4,.05-.8,.07-1.21,.08-1.44-.41-2.26-1.7-2.88-1.01-.49-2.11-.23-3.1,.68-.28,.26-.61,.48-.91,.72-2.91-1.37-5.83-2.73-8.73-4.11-.88-.42-1.53-.33-1.96,.63-.64,1.43-1.4,2.82-1.99,4.28-.84,2.08-.64,4.08,.73,5.91-.12,.08-.23,.19-.36,.25-6.34,2.8-12.58,2.7-18.73-.59-2.62-1.4-5.22-2.82-7.86-4.17-1.66-.85-3.3-.04-3.7,1.78-.13,.61-.22,1.22-.33,1.84-.25,1.15-.51,2.3-.76,3.46-.92,5.01-1.84,10.02-2.76,15.04-.16,.84-.34,1.68-.51,2.51-.08,1.54-.17,3.09-.25,4.63-.08,1.54-.17,3.09-.25,4.63-.09,1.62-.18,3.23-.26,4.85l-.05,.88c.98,2.9,3.13,3.94,6.06,4.1,33.64,1.8,67.27,3.65,100.91,5.48,3.26,.18,4.51-.54,5.9-3.42,.15-2.79,.3-5.59,.46-8.38,.05-.88,.1-1.76,.14-2.65-.06-.16-.16-.32-.19-.49-.56-3.2-2.16-5.76-4.96-7.39Z"/><path class="r" d="M160.82,885.45c-.56-2.14-1.44-4.2-2.17-6.29-.19-.55-.37-1.11-.57-1.66-3.28-9.28-6.56-18.56-9.84-27.85,.17-.14,.32-.32,.52-.4,1.71-.66,2.09-3.23,.63-4.58-.92-.84-2-.69-3.08-.73-.62-1.71-1.23-3.42-1.85-5.13,.17-.14,.32-.33,.52-.4,1.13-.4,1.54-1.98,1.41-3.07-.13-1.05-1.05-1.98-2.19-2.18-.56-.1-1.16-.04-1.73-.06-.61-1.7-1.21-3.41-1.82-5.11,.3-.27,.6-.53,.9-.8,1.07-.96,1.31-1.89,.84-3.24-.37-1.06-1.33-1.66-2.68-1.71-.39-.01-.77-.09-1.16-.14-1.09-3.03-2.19-6.05-3.27-9.08-.33-.92-.84-1.32-1.83-.94-1.47,.56-2.98,1.01-4.43,1.62-2.06,.87-3.34,2.43-3.66,4.69-.14-.03-.3-.03-.43-.08-6.46-2.5-10.81-6.98-12.83-13.66-.86-2.84-1.7-5.69-2.61-8.51-.57-1.78-2.31-2.36-3.87-1.36-.52,.34-1.02,.71-1.53,1.07-.99,.63-1.99,1.27-2.98,1.9-4.2,2.89-8.39,5.79-12.59,8.68-.7,.48-1.42,.95-2.14,1.42-1.15,1.03-2.3,2.06-3.45,3.1-1.15,1.03-2.3,2.06-3.45,3.1-1.21,1.08-2.41,2.16-3.62,3.24l-.66,.59c-1.36,2.75-.57,5,1.39,7.19,22.51,25.06,44.99,50.15,67.47,75.23,2.18,2.43,3.57,2.8,6.59,1.75,2.08-1.87,4.16-3.73,6.25-5.6,.66-.59,1.32-1.18,1.97-1.77,.07-.16,.11-.34,.21-.48,1.87-2.66,2.54-5.6,1.72-8.73Z"/><g><path class="p" d="M179.44,692.49c2.22,17.76,11.44,167.83,11.44,167.83h-50.07s-3.2-27.22-7.3-61.06h0l45.92-106.77Z"/><polyline class="p" points="250.48 453.19 251.55 504.53 64.04 502.87 61.56 453.19 247.59 453.19"/><polygon class="o" points="194.33 848.44 136.58 850.4 139.27 865.92 192.3 863.81 194.33 848.44"/><polygon class="q" points="183.08 864.18 183.08 885.67 151.42 885.67 149.04 865.92 183.08 864.18"/><polygon class="q" points="142.95 808.24 128.87 824.47 104.96 803.73 116.1 787.25 142.95 808.24"/><path class="o" d="M64,501.54s0,8.46,2.66,26.22,46.88,133.56,49.89,142.76c1.35,4.13,6.38,42.8,11.51,84.17-4.66,9.25-8.53,16.89-10.97,21.71l12.54-8.97c1.33,10.83,2.65,21.63,3.88,31.82h0l21.49-49.97,74.16-53.03c11.25-16.4,19.49-28.49,20.81-30.62,4.82-7.76,.27-89.97,1.62-164.1H64Zm111.66,156.37c-4.34-40.84-11.05-104.29-14.9-130.15h.12c3,13.11,21.05,112.54,21.05,112.54-.44,1.96-2.55,9.56-6.28,17.62Z"/><path class="p" d="M114.26,782s1.03-2.03,2.84-5.59h0l112.07-80.14c-29.69,43.29-80.36,116.7-80.36,116.7l-34.55-30.96Z"/><polygon class="o" points="162.2 805.11 117.1 768.99 109.04 782.52 150.65 815.45 162.2 805.11"/></g><path class="g" d="M112.09,163.69C85.53,155.25,2.1,262.54,.21,286.62c-1.89,24.07,8.73,75.68,43.02,63.24,34.28-12.45,56.52-51.85,56.52-51.85,0,0,43-124.57,12.34-134.31Z"/><path class="v" d="M190.89,473.55H51.13c1.59-69.03,4.76-121.47,14.94-173.54,5.5-11.01,21.48-36.59,37-63.07l87.81,236.6Z"/><path class="v" d="M218.81,401.67c-29.6-21.31-40.27-65.28-40.27-65.28,0,0-4.9-86.47,10.38-119.76-6.36,39.12,16.28,80.6,16.28,80.6,0,0-8.88,56.94,20.72,78.25,9.87,7.11,19.15,6.64,27.31,1.98,.91,6.1,1.8,12.19,2.66,18.24-10.14,10.85-23,16.11-37.08,5.98Z"/><g><path class="l" d="M204.8,334.34c-2.96-1.69-6.25-3.59-9.89-5.79-1.08-.65-1.72-.8-2.4-.5-1.78-.15-4.3-.66-7.34-1.41h0c3.6,16.28,10.1,36.7,12.92,40.85,2.82,4.14,7.17,8.44,7.17,8.44l3.46,1.99c2.77,1.51,5.09,2.57,6.57,2.91,2.99,.67,5.53-2.93,7.53-7.88-9.83-8.96-15.17-23.7-18.01-38.6Z"/><path class="g" d="M210.34,177.59c-25.99-34.52-63.27-37.81-97.79-12.5-13.38,9.81-28.26,63.66-40.91,128.29,5.5-11.01,15.92-29.96,31.44-56.43l85.42,236.6h76.32c-3.52-38.51-6.09-57.97-8.93-77.85-10.14,10.85-23,16.11-37.08,5.98-29.6-21.31-40.27-65.28-40.27-65.28,0,0-4.9-86.47,10.38-119.76-6.36,39.12,13.32,68.07,13.32,68.07,0,0-2.13,25.02,2.57,49.64,2.84,14.9,8.18,29.64,18.01,38.6,.99,.9,2.02,1.75,3.1,2.53,9.87,7.11,19.15,6.64,27.31,1.98,10.27-5.86,18.76-18.35,24.43-30.74,3.34-7.29,5.7-14.54,6.87-20.38,4.74-23.68-46.33-149.64-74.18-148.75Z"/></g><path class="q" d="M242.26,263.08c3.2,5.94,3.75,6.91,5.29,9.98,1.27,2.53-26.2,42.78-44.27,33-.38-.24-.95-1.53-1.68-3.67-.94-2.74-2.13-6.88-3.51-12.01,3.69-.84,9.14-2.35,15.47-4.97,9.39-3.87,23.32-17.04,28.7-22.33Z"/><path class="g" d="M269.03,301.88c-11.89-18.72-21.36-36.77-21.36-36.77,0,0-19.09,19.68-30.93,24.57-11.84,4.88-20.57,5.92-20.57,5.92,0,0,9.11,46.44,14.32,55.26,5.21,8.82,58.54-48.98,58.54-48.98Z"/><g><path class="r" d="M150.55,882.12c.11-.61,.2-1.23,.33-1.84,.4-1.81,2.04-2.63,3.7-1.78,2.64,1.36,5.25,2.77,7.86,4.17,6.15,3.29,12.39,3.39,18.73,.59,.13-.06,.24-.16,.36-.25,.35-.1,.72-.15,1.04-.31,2.71-1.34,5.48-1.63,8.34-.53-.11,.34-.19,.7-.34,1.02-.78,1.7-1.65,3.36-2.35,5.1-.75,1.85,.57,3.72,2.55,3.79,1.35,.05,2.19-.68,2.76-1.82,.92-1.83,1.84-3.66,2.76-5.49,1.67,.79,3.34,1.58,5.01,2.36-.13,.37-.23,.76-.4,1.12-.74,1.6-1.56,3.16-2.25,4.78-.88,2.08,.62,4.18,2.83,4.01,1.23-.1,1.97-.86,2.49-1.91,.89-1.8,1.81-3.58,2.72-5.38,1.67,.79,3.33,1.57,5,2.36-.81,1.8-1.6,3.6-2.44,5.38-.64,1.35-.66,2.6,.4,3.76-.2,.21-.45,.38-.58,.63-.65,1.31-1.31,2.62-1.88,3.97-1.25,2.93-4.11,5.05-7.86,4.83-17.69-1.04-35.38-1.96-53.07-2.93l.25-4.63c.17-.84,.35-1.67,.51-2.51,.93-5.01,1.84-10.02,2.76-15.04,1.61,.87,3.21,1.77,4.84,2.62,2.21,1.15,4.41,2.33,6.67,3.36,2.48,1.12,5.11,1.67,7.81,2.05,2.39,.34,4.73,.21,7.07-.12,1.16-.17,1.65-1.01,1.46-2.05-.16-.87-1.08-1.43-2.12-1.29-4.26,.58-8.46,.21-12.36-1.57-4.29-1.96-8.42-4.29-12.62-6.46Z"/><path class="w" d="M258.57,924.28c-1.39,2.88-2.64,3.6-5.9,3.42-33.63-1.83-67.27-3.68-100.91-5.48-2.93-.16-5.08-1.19-6.06-4.1l.05-.88c32.89,1.79,65.77,3.58,98.66,5.39,2.71,.15,5.34-1.39,5.21-4.55,1.35,.06,2.71,.02,4.04,.21,2.33,.33,4.15-.3,5.36-2.38l-.46,8.38Z"/><path class="i" d="M249.62,918.07c.13,3.17-2.5,4.7-5.21,4.55-32.89-1.81-65.77-3.6-98.66-5.39l.26-4.85c22.07,1.2,44.14,2.41,66.21,3.61,.48,.03,.95,.02,1.43,.03,.44,.04,.87,.1,1.31,.12,6.93,.38,13.86,.75,20.79,1.14,4.62,.26,9.24,.53,13.86,.79Z"/><path class="y" d="M213.65,916.02c-.48,0-.96,0-1.43-.03-22.07-1.2-44.14-2.4-66.21-3.61l.25-4.63c17.69,.97,35.38,1.89,53.07,2.93,3.75,.22,6.61-1.9,7.86-4.83,.57-1.35,1.23-2.66,1.88-3.97,.12-.24,.38-.42,.58-.63,2.14,1.35,3.62,.91,4.76-1.39,.87-1.75,1.76-3.49,2.65-5.23,3.55,2.35,4.3,5.18,2.42,9.07-1.26,2.61-2.48,5.23-3.72,7.85l-2.1,4.47Z"/><path class="a`" d="M213.65,916.02c.7-1.49,1.4-2.98,2.1-4.47,10.21,.56,20.42,1.11,30.62,1.67,1.67,.09,3.19-.97,3.66-2.57,.51-1.74,.11-3.4-.53-5.01-.43-1.08-.97-2.12-1.47-3.18,2,.96,4.08,1.8,5.99,2.91,2.8,1.64,4.4,4.19,4.96,7.39,.03,.17,.12,.33,.19,.49l-.14,2.65c-1.21,2.08-3.03,2.72-5.36,2.38-1.33-.19-2.7-.15-4.04-.21-4.62-.26-9.24-.53-13.86-.79-6.93-.38-13.86-.76-20.79-1.14-.44-.02-.88-.08-1.31-.12Z"/><path class="s" d="M248.03,902.46c.49,1.06,1.03,2.09,1.47,3.18,.65,1.61,1.04,3.27,.53,5.01-.47,1.6-1.99,2.66-3.66,2.57-10.21-.55-20.42-1.11-30.62-1.67,1.24-2.62,2.46-5.24,3.72-7.85,1.88-3.88,1.13-6.72-2.42-9.07,.92-1.89,1.84-3.78,2.77-5.68,8.88,4.24,17.77,8.49,26.65,12.73,.53,.25,1.05,.51,1.57,.77Z"/><path class="k" d="M196.3,884.78c-.92,1.83-1.85,3.66-2.76,5.49-.57,1.14-1.41,1.87-2.76,1.82-1.99-.07-3.3-1.95-2.55-3.79,.7-1.73,1.57-3.4,2.35-5.1,.15-.32,.23-.68,.34-1.02,.92-1.82,1.84-3.65,2.74-5.48,.04-.08-.11-.25-.18-.38,.31-.24,.63-.46,.91-.72,.99-.92,2.09-1.17,3.1-.68,1.29,.62,1.78,1.44,1.7,2.88-.02,.4-.05,.8-.07,1.21-.94,1.93-1.88,3.85-2.83,5.78Z"/><path class="k" d="M206.69,889.76c-.91,1.79-1.83,3.58-2.72,5.38-.52,1.06-1.26,1.82-2.49,1.91-2.2,.18-3.71-1.92-2.83-4.01,.69-1.62,1.51-3.18,2.25-4.78,.17-.36,.27-.75,.4-1.12,.59-1.13,1.21-2.24,1.76-3.39,.37-.78,.64-1.61,.95-2.42,.42-.4,.8-.85,1.27-1.18,.95-.67,2.26-.65,3.09,0,.86,.68,1.69,2.09,1.17,3.17-.09,.19-.06,.43-.08,.65-.93,1.93-1.86,3.87-2.78,5.8Z"/><path class="m" d="M219.81,888.96c-.92,1.89-1.84,3.78-2.77,5.68-.88,1.74-1.78,3.48-2.65,5.23-1.14,2.3-2.62,2.74-4.76,1.39-1.06-1.16-1.03-2.41-.4-3.76,.84-1.78,1.63-3.59,2.44-5.38,.91-1.94,1.82-3.89,2.72-5.83,.79-.72,1.45-1.6,2.69-1.66,1.99-.09,3.54,2.01,2.79,3.68-.08,.19-.06,.43-.08,.65Z"/><path class="y" d="M150.55,882.12c4.2,2.17,8.32,4.5,12.62,6.46,3.89,1.78,8.1,2.15,12.36,1.57,1.05-.14,1.96,.42,2.12,1.29,.19,1.04-.3,1.88-1.46,2.05-2.34,.34-4.68,.46-7.07,.12-2.7-.38-5.34-.93-7.81-2.05-2.27-1.03-4.46-2.21-6.67-3.36-1.63-.85-3.23-1.74-4.84-2.62,.25-1.15,.51-2.3,.76-3.46Z"/><path class="n" d="M193.48,876.32c.06,.13,.22,.3,.18,.38-.9,1.83-1.82,3.66-2.74,5.48-2.86-1.09-5.63-.8-8.34,.53-.32,.16-.69,.21-1.04,.31-1.37-1.83-1.57-3.83-.73-5.91,.59-1.46,1.34-2.84,1.99-4.28,.43-.97,1.08-1.05,1.96-.63,2.91,1.38,5.82,2.74,8.73,4.11Z"/><path class="x" d="M214.41,886.29c-.91,1.94-1.82,3.88-2.72,5.83-1.67-.78-3.33-1.57-5-2.36,.93-1.93,1.86-3.87,2.78-5.8,1.64,.78,3.29,1.55,4.94,2.33Z"/><path class="x" d="M204.02,881.33c-.31,.81-.58,1.64-.95,2.42-.55,1.15-1.17,2.26-1.76,3.39-1.67-.79-3.34-1.58-5.01-2.36,.94-1.93,1.88-3.85,2.83-5.78,1.63,.78,3.27,1.55,4.9,2.33Z"/></g><g><path class="r" d="M104.09,795.85c.51-.36,1.01-.73,1.53-1.07,1.56-1,3.3-.42,3.87,1.36,.9,2.83,1.75,5.67,2.61,8.51,2.02,6.68,6.37,11.16,12.83,13.66,.13,.05,.29,.06,.43,.08,.32,.17,.62,.4,.96,.51,2.86,.97,5.03,2.73,6.28,5.52-.32,.16-.63,.36-.96,.48-1.75,.65-3.55,1.21-5.27,1.94-1.84,.77-2.23,3.03-.88,4.49,.92,.99,2.03,1.07,3.24,.66,1.94-.65,3.89-1.29,5.83-1.93,.62,1.74,1.25,3.48,1.87,5.21-.36,.17-.7,.38-1.07,.51-1.66,.6-3.34,1.13-4.97,1.79-2.1,.85-2.52,3.4-.83,4.83,.94,.8,2,.78,3.11,.41,1.9-.64,3.81-1.26,5.72-1.88,.62,1.73,1.24,3.47,1.87,5.2-1.84,.7-3.68,1.42-5.53,2.08-1.41,.51-2.31,1.37-2.38,2.94-.28,0-.59-.05-.85,.04-1.39,.47-2.78,.93-4.14,1.48-2.95,1.19-6.48,.66-8.97-2.14-11.77-13.24-23.63-26.4-35.45-39.59l3.45-3.1c.71-.47,1.43-.93,2.14-1.42,4.2-2.89,8.39-5.78,12.59-8.68,.52,1.76,1.02,3.52,1.57,5.27,.75,2.37,1.46,4.77,2.34,7.09,.96,2.54,2.44,4.79,4.08,6.98,1.45,1.93,3.19,3.49,5.09,4.91,.93,.7,1.88,.46,2.48-.41,.5-.73,.25-1.77-.59-2.41-3.42-2.6-6.13-5.83-7.63-9.85-1.65-4.42-2.92-8.99-4.35-13.49Z"/><path class="w" d="M150.66,902.04c-3.02,1.05-4.41,.68-6.59-1.75-22.49-25.08-44.96-50.17-67.47-75.23-1.96-2.19-2.75-4.44-1.39-7.19l.66-.59c21.99,24.52,43.98,49.04,65.95,73.57,1.81,2.03,4.76,2.8,6.91,.47,.91,1,1.91,1.93,2.71,3.01,1.41,1.88,3.14,2.72,5.48,2.1l-6.25,5.6Z"/><path class="i" d="M148.72,891.32c-2.15,2.33-5.09,1.56-6.91-.47-21.98-24.53-43.97-49.05-65.95-73.57l3.62-3.24c14.76,16.46,29.51,32.91,44.27,49.37,.32,.35,.66,.69,.99,1.03,.28,.34,.55,.69,.84,1.02,4.63,5.17,9.27,10.34,13.9,15.51,3.09,3.45,6.16,6.91,9.24,10.36Z"/><path class="y" d="M124.74,864.44c-.33-.34-.67-.68-.99-1.03-14.76-16.46-29.51-32.91-44.27-49.37l3.45-3.1c11.83,13.19,23.68,26.36,35.45,39.59,2.49,2.81,6.02,3.33,8.97,2.14,1.36-.55,2.75-1.01,4.14-1.48,.26-.09,.57-.03,.85-.04,.56,2.46,1.92,3.2,4.35,2.38,1.85-.63,3.71-1.22,5.57-1.83,.85,4.17-.63,6.7-4.7,8.13-2.73,.95-5.45,1.95-8.18,2.92l-4.64,1.68Z"/><path class="a`" d="M124.74,864.44c1.55-.56,3.1-1.12,4.64-1.68,6.83,7.61,13.65,15.22,20.48,22.83,1.12,1.24,2.94,1.57,4.41,.77,1.59-.87,2.49-2.33,3.17-3.92,.46-1.07,.81-2.19,1.21-3.28,.74,2.09,1.61,4.15,2.17,6.29,.82,3.14,.15,6.08-1.72,8.73-.1,.14-.14,.32-.21,.48l-1.97,1.77c-2.33,.61-4.07-.22-5.48-2.1-.81-1.08-1.8-2.01-2.71-3.01-3.08-3.45-6.15-6.91-9.24-10.36-4.63-5.17-9.27-10.34-13.9-15.51-.29-.33-.56-.68-.84-1.02Z"/><path class="s" d="M158.65,879.16c-.4,1.1-.75,2.21-1.21,3.28-.68,1.6-1.58,3.05-3.17,3.92-1.46,.8-3.29,.47-4.41-.77-6.83-7.61-13.65-15.22-20.48-22.83,2.73-.98,5.45-1.97,8.18-2.92,4.07-1.42,5.55-3.95,4.7-8.13,1.99-.69,3.98-1.37,5.97-2.06,3.28,9.28,6.56,18.56,9.84,27.85,.19,.55,.38,1.1,.57,1.66Z"/><path class="k" d="M134.56,830.08c-1.94,.64-3.89,1.28-5.83,1.93-1.21,.4-2.32,.32-3.24-.66-1.36-1.45-.96-3.71,.88-4.49,1.72-.73,3.51-1.29,5.27-1.94,.33-.12,.64-.32,.96-.48,1.94-.64,3.88-1.28,5.82-1.93,.08-.03,.1-.26,.14-.39,.39,.05,.77,.12,1.16,.14,1.35,.05,2.3,.65,2.68,1.71,.47,1.35,.24,2.28-.84,3.24-.3,.27-.6,.53-.9,.8-2.03,.69-4.06,1.39-6.08,2.08Z"/><path class="k" d="M138.39,840.95c-1.91,.63-3.82,1.24-5.72,1.88-1.12,.38-2.18,.39-3.11-.41-1.68-1.43-1.27-3.99,.83-4.83,1.63-.66,3.32-1.19,4.97-1.79,.37-.13,.72-.34,1.07-.51,1.22-.38,2.44-.73,3.64-1.15,.82-.29,1.59-.69,2.39-1.04,.58,.01,1.17-.04,1.73,.06,1.14,.2,2.06,1.14,2.19,2.18,.13,1.09-.28,2.67-1.41,3.07-.2,.07-.35,.26-.52,.4-2.02,.71-4.05,1.42-6.07,2.13Z"/><path class="m" d="M148.24,849.66c-1.99,.69-3.98,1.37-5.97,2.06-1.86,.61-3.72,1.2-5.57,1.83-2.43,.82-3.79,.08-4.35-2.38,.07-1.57,.97-2.43,2.38-2.94,1.85-.67,3.69-1.39,5.53-2.08,2.02-.73,4.03-1.46,6.05-2.2,1.07,.05,2.16-.11,3.08,.73,1.47,1.35,1.08,3.92-.63,4.58-.19,.07-.35,.26-.52,.4Z"/><path class="y" d="M104.09,795.85c1.43,4.5,2.7,9.07,4.35,13.49,1.49,4.01,4.2,7.24,7.63,9.85,.84,.64,1.09,1.68,.59,2.41-.6,.87-1.55,1.11-2.48,.41-1.89-1.42-3.64-2.98-5.09-4.91-1.64-2.18-3.12-4.43-4.08-6.98-.88-2.33-1.59-4.72-2.34-7.09-.55-1.75-1.05-3.51-1.57-5.27,.99-.63,1.99-1.27,2.98-1.9Z"/><path class="n" d="M138.55,822.11c-.05,.14-.06,.37-.14,.39-1.93,.66-3.87,1.29-5.82,1.93-1.25-2.8-3.42-4.55-6.28-5.52-.34-.11-.64-.34-.96-.51,.32-2.26,1.6-3.82,3.66-4.69,1.45-.61,2.96-1.06,4.43-1.62,.99-.38,1.51,.02,1.83,.94,1.08,3.03,2.18,6.06,3.27,9.08Z"/><path class="x" d="M146.3,843.95c-2.02,.73-4.03,1.46-6.05,2.2-.62-1.73-1.24-3.47-1.87-5.2,2.02-.71,4.05-1.42,6.07-2.13,.62,1.71,1.23,3.42,1.85,5.13Z"/><path class="x" d="M142.46,833.1c-.79,.35-1.57,.75-2.39,1.04-1.2,.42-2.43,.77-3.64,1.15-.62-1.74-1.25-3.48-1.87-5.21,2.03-.7,4.06-1.39,6.08-2.08,.61,1.7,1.21,3.41,1.82,5.11Z"/></g><path class="t" d="M70.39,294.42c2.37-1.54,37.08,7.88,49.33,11.28,10.23,2.84,47.26,16.42,65.45,20.93h0c3.6,16.28,10.1,36.7,12.92,40.85,2.82,4.14,7.17,8.44,7.17,8.44l3.46,1.99c-10.23-5.58-26.51-17.3-28.38-21.08-1.27-2.56-2.44-6.93-2-11.35-32.83-.34-117.7,4.59-120.58,1.94-14.31-14.75,10.27-51.47,12.64-53.01Z"/><path class="g" d="M90.55,290.82C62.95,286.4-.06,281.25,.84,295.15c.9,13.9,8.87,59.65,35.75,59.45s45.07,.6,45.07,.6c0,0,21.88-22.06,8.88-64.39Z"/><path class="v" d="M242.26,263.08c8.73,6.22,18.29,13.39,24.66,23.46,6.36,10.06,11.25,22.55,7.4,20.45s-3.52-7.81-11.1-13.49c-9.1-6.83-20.96-30.41-20.96-30.41Z"/><path class="v" d="M28.14,288.35c10.23-3.19,22.19-7.67,34.05-6.65,11.86,1.02,24.76,4.69,20.76,6.48s-7.99,.44-17.46,.67c-9.47,.24-37.35-.5-37.35-.5Z"/><path class="f" d="M219.7,105.3s8.88-5.29,13.22-13.77,17.37-44.99,16.18-52.89-10.06-13.42-15.79-12.63c6.31-2.76,6.31-7.1,9.47-5.53-11.45-8.88-50.71-36.51-76.57-7.7-8.49-.59-23.29,14.41-31.18,54.66-1.97,7.3-1.44,16.76-1.44,16.76l86.09,21.09Z"/><path class="j" d="M220.23,104.25c5.71-4.95,8.52-9.1,10.89-5.84s-2.74,23.83-12.28,25.75-9.97-1.72-9.97-1.72l11.37-18.19Z"/><path class="j" d="M135.46,77.53c-.46-2.95-.09-7.32-2.39-9.17s-8.29,6.96-7.33,21.68c.67,7.77,5.24,11.47,5.24,11.47"/><g><path class="u" d="M162.47,137.11c-13.55-4.33-21.68-11.16-26.28-19.18-.44,2.81-.91,6.18-1.38,9.78-1.46,11.09-2.91,24.23-3.16,29.09-.45,8.7,57.6,9.76,57.86,4.08,.17-3.73,.77-12.44,1.92-20.15,.37-2.47,.8-4.83,1.29-6.9-8.45,5.18-18.45,7.06-30.24,3.29Z"/><path class="h" d="M139.19,65.08c.96-3.76,2.15-7.78,3.54-11.8,5.15-14.95,12.97-29.86,21.52-31.42,10.85-1.97,65.67,4.74,70.65,19.73,4.22,12.7-1.38,28.42-1.38,28.42-1.21,3.25-3.52,11.2-7.26,20.67-6.4,16.19-17,36.82-33.54,46-8.45,4.69-18.45,6.4-30.24,2.98-13.55-3.93-21.68-10.11-26.28-17.38-11.81-18.66-.27-44.43,3-57.21Z"/></g><ellipse class="ab" cx="187.69" cy="71.56" rx="5.23" ry="3.01" transform="translate(63.18 229.18) rotate(-72.56)"/><ellipse class="ab" cx="165.3" cy="65.17" rx="5.23" ry="3.01" transform="translate(53.59 203.34) rotate(-72.56)"/><path class="q" d="M172.33,70.73c-6.78,7.91-8.18,9.53-11.4,14.87s-2.37,6.73-.07,8.14c0,0,5.41,4.21,6.31,2.85s6.96-23.68,6.75-25.93c-.14-1.5-1.58,.06-1.58,.06Z"/><path class="aa" d="M202.14,72.7c-3.41-6.36-8.93-13.09-16.57-7.29-4.95,3.97,1.03,.72,6.95,2.58s9.64,6.27,9.62,4.71Z"/><path class="aa" d="M153.04,55.03c4.22-5.85,10.57-11.81,17.39-5.05,4.39,4.58-1.12,.58-7.23,1.65s-10.38,4.96-10.16,3.41Z"/><path class="j" d="M144.53,129.67c1.16-7.01,22.72-3.12,30.32-1.09,7.6,2.04,5.78,10.25,10.43,39.63,.15,.95,.13,1.55-.12,2.01,3.04,10.24,17.49,28.18,24.08,39.07,3.58,5.91,26.73,42.12,31.82,51.58,.43,.81,.83,1.54,1.19,2.21-5.38,5.29-19.31,18.46-28.7,22.33-6.34,2.61-11.78,4.12-15.47,4.97-8.84-32.91-25.28-106.55-29.76-112.5h0c-6.29,.17-12.12-3.88-14.72-6.81-3.55-4-10.23-34.39-9.07-41.4Z"/></g></svg>