<?xml version="1.0" encoding="UTF-8"?><svg id="a" xmlns="http://www.w3.org/2000/svg" viewBox="0 0 931.49 927.95"><defs><style>.b{fill:#9d5349;}.c{fill:#e3cf25;}.d{fill:#db937d;}.e{fill:#231b4d;}.f{fill:#fed9cd;}.g{fill:#e8ddd8;}.h{fill:#d78383;}.i{fill:#35394d;}.j{fill:#e8ddd9;}.k{fill:#5e90b9;}.l{fill:#232f51;}.m{fill:#db736d;}.n{fill:#0b0f13;}.o{fill:#1b2129;}.p{fill:#ab3345;}.q{fill:#6d93bb;}.r{fill:#5c90b8;}.s{fill:#8a5900;}.t{fill:#232937;}.u{fill:#7d3500;}.v{fill:none;}.w{fill:#e39b37;}.x{fill:#fed0bf;}.y{fill:#5f91b9;}.a`{fill:#191747;}.aa{fill:#4a80aa;}.ab{fill:#d79783;}.ac{fill:#192539;}.ad{fill:#7b453b;}.ae{fill:#7c3aed;}</style></defs><g><path class="ae" d="M655.46,213.64V111.5c0-61.58-49.92-111.5-111.5-111.5h-161.91c-84.06,0-152.2,68.14-152.2,152.2v140.51c0,73.4,59.5,132.89,132.89,132.89h0c19.51,0,35.33,15.82,35.33,35.33v50.89c0,36,29.18,65.18,65.18,65.18h115.87c81.18,0,146.98-65.81,146.98-146.98v-145.72c0-19.51-15.82-35.33-35.33-35.33h0c-19.51,0-35.33-15.82-35.33-35.33Z"/><circle class="ae" cx="767.49" cy="596" r="48"/><circle class="ae" cx="905.49" cy="540" r="26"/></g><path class="p" d="M10.14,872c2.3-.62,4.69-.89,7.05-1.31,.61-.12,1.24-.24,1.85-.35,10.43-1.86,20.87-3.73,31.3-5.59,.03-.24,.13-.48,.1-.7-.29-1.94,1.92-3.67,3.95-3.02,1.27,.41,1.71,1.51,2.32,2.49,1.94-.34,3.86-.67,5.79-1.01,.04-.23,.13-.48,.1-.7-.23-1.27,1.03-2.5,2.12-2.96,1.05-.44,2.41-.07,3.21,.88,.39,.48,.66,1.06,.98,1.59,1.91-.34,3.84-.67,5.75-1.02,.09-.42,.18-.84,.27-1.28,.33-1.52,1.07-2.23,2.59-2.5,1.19-.22,2.26,.36,3.02,1.59,.22,.35,.5,.67,.74,1.01,3.41-.59,6.83-1.17,10.24-1.77,1.03-.18,1.68,.09,1.85,1.21,.26,1.67,.65,3.33,.84,5.01,.28,2.4-.5,4.42-2.45,5.92,.1,.12,.18,.26,.3,.36,5.78,4.72,12.28,6.4,19.61,4.74,3.12-.7,6.22-1.43,9.35-2.08,1.97-.41,3.44,.9,3.33,2.91-.04,.67-.12,1.33-.18,2-.07,1.26-.13,2.53-.2,3.81-.48,5.46-.95,10.92-1.44,16.4-.07,.92-.13,1.84-.19,2.75-.36,1.62-.71,3.26-1.06,4.88s-.71,3.26-1.06,4.88c-.37,1.71-.74,3.4-1.12,5.11l-.2,.93c-1.85,2.73-4.37,3.19-7.46,2.52-35.43-7.75-70.86-15.44-106.29-23.16-3.43-.75-4.53-1.85-5.15-5.24,.64-2.94,1.29-5.89,1.92-8.83,.2-.93,.4-1.86,.61-2.79,.11-.15,.26-.29,.34-.45,1.5-3.16,3.89-5.36,7.26-6.25h.01Z"/><ellipse class="e" cx="362.49" cy="847.32" rx="155" ry="56.02"/><path class="u" d="M541.77,656c-13,14-38,14-53,15-15,1-108.75,1.68-121.37,3.34-12.63,1.66-37.35,.57-39.49,52.61-2.14,52.05,.58,198.05,.58,198.05,0,0-13.15,7.64-18.93-1.68-3.57-166.64-10.07-250.32,25.87-258.51,15.67-3.57,96.31-6.78,96.31-6.78l103.45-23.52,6.57,21.49Z"/><path class="u" d="M465.77,550c-13,14-38,14-53,15-15,1-108.75,1.68-121.37,3.34-12.63,1.66-55.76,1.61-57.91,53.66-2.14,52.05-3.58,170.32-3.58,170.32,0,0-9.57,9.32-15.35,0-3.57-166.64,4.59-222.51,19.93-227.32,15.34-4.81,121.25-12.97,121.25-12.97l103.45-23.52,6.57,21.49Z"/><path class="u" d="M530.23,641.96c-.46-1.96-50.37-44.63-50.37-44.63l3.25-17.33,54.66,50.01-7.54,11.96Z"/><path class="u" d="M411.62,352.9c-12.85,214.35-14.83,430.63-14.83,430.63,0,0-10.77,13.28-18.89,0-.26,.44,16.36-529.53,16.36-529.53h22.98l-5.62,98.9Z"/><path class="s" d="M507.14,654.18l-170.37,9.82-131-131.67,176.65-27.33,149.35,138.38s-7.78,9.16-24.63,10.79Z"/><g><path class="v" d="M293.25,591.11c-9.63-13-18.16-21.77-23.62-26.85l75.77,14.8-52.15,12.05Z"/><path class="l" d="M89.1,839.4l53.3,11.62,.7-1.64,19.84-46.38h0s36.7-137.99,39.13-147.69c2.43-9.7,41.71-31.2,41.71-31.2l35.77,39.55c.85,.96,1.66,1.88,2.44,2.77,26.66,30.47,42.04,57.39,42.19,57.66l1.03,1.82,40-21.32-1.19-1.95c-.22-.36-11.79-19.31-25.73-41.75-5.6-7.35-25.62-38.94-27.62-40.11-2-1.17,26.76,7.63,30.49,7.7,3.73,.07,106.22-44.62,106.22-44.62,0,0,21.3,9.41,36.03,15.12l-141.67-119.94-.98,.16c-.41,.07-41.83,6.74-83.76,15.7-85.8,18.33-90.19,28.2-91.63,31.44-1.23,2.77-.08,8.22,28.07,41.16,10.23,11.97,22.16,25.38,34.21,38.77l-46.13,10.66c-8.23,1.9-14.86,7.77-17.73,15.72l-74.7,206.75Zm180.53-275.13l75.77,14.8-52.15,12.05c-9.63-13-18.16-21.77-23.62-26.85Z"/><path class="a`" d="M310.67,620.78c-2-1.17,26.76,7.63,30.49,7.7,3.73,.07,106.22-44.62,106.22-44.62,0,0,21.3,9.41,36.03,15.12l13.65,11.56-38.14,40.74-.3,.32-.4,.18c-14.93,6.67-63.21,7.79-109.89,8.88-3.39,.08-6.74,.16-10.05,.24-5.6-7.35-25.62-38.94-27.62-40.11Z"/><path class="a`" d="M202.07,655.3c2.43-9.7,41.71-31.2,41.71-31.2l35.77,39.55c-40.36,3.64-57.31,8.36-61.09,9.55l-55.52,129.79h0s36.7-137.99,39.13-147.69Z"/></g><polygon class="n" points="429.22 577.59 422.48 587.35 305.67 616.03 199.16 520.65 199.16 510.39 429.22 577.59"/><polygon class="o" points="198.69 510.65 305.49 607.61 429.22 577.59 322.42 480.63 198.69 510.65"/><polygon class="i" points="265.46 525.1 273.71 532.6 281.64 530.66 273.39 523.17 265.46 525.1"/><ellipse class="ac" cx="217.4" cy="532.06" rx="2.69" ry="1.61" transform="translate(-322.93 728.01) rotate(-87.71)"/><path class="ac" d="M225.54,541.49h5.11c1.71,0,3.1,1.39,3.1,3.1v.57h-8.49v-3.39c0-.15,.13-.28,.28-.28Z" transform="translate(37.43 1100.99) rotate(-138.1)"/><path class="c" d="M310.3,359.02c4.47-20.02,12.47-57.02,15.47-64.02s45.3-87.81,80.65-91.91c35.35-4.09,48.94,130.14,48.94,130.14,0,0-83.76,73.42-101.68,76.09-17.91,2.67-35.15,1.57-35.15,1.57l-8.23-51.88Z"/><path class="w" d="M381.19,262.38c-6.14,2.77-27.14,108.77-32.14,117.77s-14.54,16.2-14.54,16.2l-14.69,14.7s25.06,1.76,35.15-1.57,29.21-74.18,29.15-75.75-2.93-71.34-2.93-71.34Z"/><g><path class="p" d="M124.16,877.46c.06-.66,.14-1.33,.18-2,.1-1.99-1.37-3.31-3.33-2.91-3.13,.66-6.24,1.37-9.35,2.08-7.32,1.66-13.83-.02-19.61-4.74-.12-.1-.2-.23-.3-.36-.33-.2-.7-.36-.99-.62-2.43-2.17-5.22-3.26-8.5-2.93,.02,.38,0,.78,.06,1.16,.32,1.99,.75,3.96,.98,5.96,.25,2.13-1.65,3.7-3.73,3.2-1.42-.33-2.08-1.33-2.34-2.68-.43-2.16-.86-4.32-1.29-6.49-1.96,.34-3.92,.68-5.87,1.02,.03,.42,.02,.85,.09,1.28,.31,1.87,.72,3.73,.97,5.6,.32,2.41-1.84,4.16-4.08,3.35-1.25-.46-1.8-1.46-2.04-2.69-.41-2.12-.86-4.23-1.28-6.36-1.96,.34-3.9,.68-5.86,1.02,.33,2.1,.63,4.19,.99,6.28,.28,1.58-.06,2.89-1.49,3.79,.15,.28,.36,.52,.42,.82,.3,1.55,.61,3.09,.82,4.66,.46,3.4,2.82,6.42,6.78,7.26,18.66,3.98,37.28,8.08,55.91,12.13l1.06-4.88c.06-.92,.11-1.83,.19-2.75,.47-5.47,.95-10.92,1.44-16.4-1.92,.44-3.84,.92-5.77,1.34-2.62,.56-5.24,1.16-7.88,1.58-2.89,.45-5.78,.27-8.69-.11-2.58-.33-4.97-1.13-7.3-2.15-1.16-.51-1.42-1.52-.93-2.54,.41-.86,1.53-1.18,2.57-.73,4.26,1.82,8.72,2.64,13.28,1.9,5.01-.81,9.96-2.05,14.94-3.1h-.02Z"/><path class="x" d="M.01,890.33c.62,3.39,1.71,4.49,5.15,5.24,35.42,7.71,70.87,15.41,106.29,23.16,3.09,.67,5.61,.22,7.46-2.52l.2-.93c-34.65-7.54-69.28-15.09-103.93-22.61-2.86-.62-5.14-2.97-4.11-6.21-1.42-.32-2.82-.75-4.25-.94-2.51-.32-4.22-1.5-4.88-4L.02,890.34h0Z"/><path class="f" d="M11.07,886.45c-1.04,3.25,1.25,5.59,4.11,6.21,34.65,7.52,69.29,15.07,103.93,22.61l1.12-5.11c-23.25-5.06-46.5-10.12-69.75-15.18-.51-.11-.99-.25-1.49-.38-.47-.08-.93-.14-1.39-.25-7.3-1.59-14.6-3.18-21.9-4.76-4.87-1.05-9.74-2.09-14.61-3.14h-.01Z"/><path d="M48.98,894.6c.5,.14,1,.27,1.49,.38,23.25,5.06,46.5,10.13,69.75,15.18l1.06-4.88c-18.64-4.05-37.26-8.15-55.91-12.13-3.95-.84-6.32-3.86-6.78-7.26-.21-1.56-.52-3.11-.82-4.66-.06-.28-.27-.54-.42-.82-2.61,.79-4.02-.09-4.54-2.8-.4-2.06-.83-4.13-1.26-6.19-4.36,1.42-5.94,4.15-5.1,8.72,.56,3.07,1.08,6.14,1.62,9.21l.9,5.24h.01Z"/><path class="aa" d="M48.98,894.6c-.3-1.75-.6-3.49-.9-5.24-10.76-2.34-21.51-4.69-32.26-7.02-1.76-.38-3.03-1.92-3.06-3.71-.03-1.95,.86-3.56,1.98-5.05,.75-1,1.61-1.92,2.43-2.88-2.35,.42-4.75,.7-7.05,1.31-3.37,.9-5.76,3.09-7.26,6.25-.08,.17-.22,.31-.34,.45l-.61,2.79c.66,2.5,2.37,3.69,4.88,4,1.43,.18,2.85,.62,4.25,.94,4.87,1.05,9.74,2.09,14.61,3.14,7.3,1.59,14.6,3.17,21.9,4.76,.46,.11,.94,.17,1.39,.25h.02Z"/><path class="r" d="M17.18,870.69c-.81,.96-1.67,1.87-2.43,2.88-1.13,1.49-2.01,3.1-1.98,5.05,.03,1.79,1.3,3.33,3.06,3.71,10.75,2.35,21.51,4.69,32.26,7.02-.54-3.07-1.06-6.14-1.62-9.21-.84-4.56,.75-7.3,5.1-8.72-.41-2.22-.83-4.45-1.25-6.69-10.43,1.86-20.87,3.73-31.3,5.59-.62,.11-1.24,.23-1.85,.35h0Z"/><path class="g" d="M75.93,867.14c.43,2.16,.87,4.33,1.29,6.49,.27,1.35,.93,2.34,2.34,2.68,2.09,.5,3.98-1.08,3.73-3.2-.23-2-.66-3.98-.98-5.96-.06-.37-.04-.77-.06-1.16-.43-2.15-.87-4.31-1.28-6.47-.02-.09,.19-.23,.3-.34-.25-.34-.52-.66-.74-1.01-.76-1.24-1.83-1.81-3.02-1.59-1.52,.27-2.26,.99-2.59,2.5-.09,.42-.18,.84-.27,1.28,.42,2.27,.85,4.53,1.28,6.81h0Z"/><path class="g" d="M63.72,869.33c.43,2.12,.88,4.24,1.28,6.36,.24,1.25,.79,2.25,2.04,2.69,2.23,.82,4.4-.93,4.08-3.35-.25-1.88-.66-3.73-.97-5.6-.07-.42-.07-.86-.09-1.28-.29-1.34-.62-2.67-.86-4.02-.16-.92-.2-1.85-.29-2.78-.32-.54-.59-1.11-.98-1.59-.79-.97-2.16-1.32-3.21-.88-1.09,.46-2.35,1.69-2.12,2.96,.04,.22-.06,.46-.1,.7,.41,2.27,.82,4.55,1.23,6.81h0Z"/><path class="j" d="M50.32,864.75c.41,2.22,.83,4.45,1.25,6.69,.42,2.06,.85,4.12,1.26,6.19,.53,2.71,1.94,3.59,4.54,2.8,1.43-.9,1.76-2.21,1.49-3.79-.36-2.09-.67-4.19-.99-6.28-.39-2.27-.78-4.56-1.16-6.83-.61-.97-1.05-2.07-2.32-2.49-2.04-.66-4.25,1.07-3.95,3.02,.03,.22-.06,.46-.1,.7h-.02Z"/><path d="M124.16,877.46c-4.98,1.05-9.92,2.29-14.94,3.1-4.55,.74-9.02-.08-13.28-1.9-1.05-.45-2.15-.12-2.57,.73-.49,1.03-.23,2.04,.93,2.54,2.33,1.02,4.73,1.82,7.3,2.15,2.91,.38,5.81,.56,8.69,.11,2.65-.42,5.26-1.02,7.88-1.58,1.93-.42,3.85-.88,5.77-1.34,.07-1.26,.13-2.53,.2-3.81h.01Z"/><path class="k" d="M81.26,859.17c-.1,.12-.31,.25-.3,.34,.41,2.16,.84,4.32,1.28,6.47,3.28-.31,6.07,.78,8.5,2.93,.29,.26,.66,.42,.99,.62,1.94-1.51,2.72-3.53,2.45-5.92-.19-1.68-.58-3.33-.84-5.01-.17-1.13-.82-1.4-1.85-1.21-3.41,.6-6.82,1.18-10.24,1.77h0Z"/><path class="y" d="M56.7,863.53c.39,2.27,.78,4.55,1.16,6.83,1.96-.33,3.9-.68,5.86-1.02-.41-2.27-.82-4.55-1.23-6.81-1.93,.34-3.86,.67-5.79,1.01h0Z"/><path class="y" d="M68.89,861.36c.09,.93,.13,1.87,.29,2.78,.24,1.35,.57,2.68,.86,4.02,1.96-.34,3.92-.68,5.87-1.02-.42-2.27-.85-4.53-1.28-6.81-1.91,.34-3.84,.67-5.75,1.02h.01Z"/><polygon class="i" points="289.9 517.26 298.15 524.75 306.09 522.82 297.84 515.32 289.9 517.26"/></g><path class="d" d="M289.1,524.94c3.26-2.22,9.54-10.6,13.92-17.1,4.38-6.5,9.59-15.15,9.84-18.12,.38-4.54-1.09-11.27-5.22-15.41,.95-5.01,19.27-33.62,36.99-61.29,9.18-14.34,17.86-27.89,23.87-37.76l.06-.1h0c2.95-4.86,4.99-8.38,6.22-10.75,1.47-2.83,1.57-3.54,1.51-3.84-2.74-10.07-16.09-12.68-26.81-13.11-13.49-.53-27.32,2.31-27.86,3.82-.95,2.64-1.32,3.8-2.58,7.66l-1.05,3.21h0l-.21,.65c-.16,.5-.33,1.03-.52,1.6-2.38,7.28-8.23,30.44-12.09,45.76-1.55,6.12-2.77,10.95-3.29,12.87-1.1,4.04-2.16,9.2-3.28,14.67-2.25,10.98-4.8,23.42-8.35,29.64-.5,.15-.95,.54-1.55,1.33-5,6.55-9.16,11.6-12.5,15.67-6.45,7.84-9.76,11.87-9.98,15.45-.08,1.31,.25,2.56,.99,3.91,2.8,5.12,12.28,20.1,18.88,21.69,1.15,.28,2.16,.13,3.01-.45Z"/><path class="h" d="M322.52,350.62c3.95-6.9,33.46-2.5,33.46-2.5l-60.55,104.47s19.28-88.82,27.08-101.97Z"/><path class="w" d="M354.09,398.23c1.68-8.23-6.32-19.23-18.32-20.23s-24,6-25,10c-3,1-2.4-22.95-.47-28.98,1.93-6.03,22.47-19.02,26.47-18.02s32,2,35,3,8,10,5,17-20,40-22,41-.68-3.77-.68-3.77Z"/><path class="c" d="M359.19,342.24c-2.43,8.76-7.43,33.76-12.43,33.76s-13-7-20-4-12.72,6.32-13.36,5.66-5.99-5.68-3.32-17.67c2.68-11.99,8.57-21.09,15.62-23.04s33.48,5.29,33.48,5.29Z"/><polygon class="l" points="88.35 829.99 147.73 848.53 140.51 863.87 86.06 846.51 88.35 829.99"/><polygon class="m" points="95.54 849.54 89.39 871.84 122.25 880.89 130.37 861.07 95.54 849.54"/><polygon class="m" points="337.58 733.5 349.61 753.26 378.73 735.54 369.87 716.04 337.58 733.5"/><polygon class="l" points="317.72 726.71 372.09 696.48 378.21 712.29 328.11 739.77 317.72 726.71"/><path class="p" d="M304.74,812.23c.98-2.17,2.28-4.2,3.43-6.29,.3-.55,.59-1.11,.9-1.66,5.15-9.26,10.3-18.52,15.45-27.79-.16-.18-.28-.4-.48-.52-1.7-1.01-1.64-3.8,.16-4.97,1.13-.73,2.25-.37,3.4-.22,.97-1.7,1.92-3.41,2.89-5.11-.16-.18-.28-.41-.48-.52-1.13-.63-1.28-2.38-.94-3.51,.33-1.09,1.47-1.91,2.72-1.92,.61,0,1.24,.17,1.85,.25,.95-1.69,1.9-3.4,2.85-5.1-.27-.34-.54-.67-.81-1.01-.96-1.21-1.05-2.24-.31-3.59,.58-1.06,1.71-1.52,3.15-1.33,.42,.06,.83,.04,1.26,.06,1.7-3.02,3.41-6.03,5.1-9.05,.52-.92,1.13-1.25,2.11-.67,1.46,.86,2.98,1.61,4.41,2.52,2.03,1.29,3.11,3.18,3.04,5.64,.15,0,.32,.02,.47,0,7.31-1.49,12.73-5.46,16.07-12.19,1.42-2.86,2.83-5.73,4.3-8.56,.93-1.79,2.88-2.09,4.35-.75,.49,.45,.95,.94,1.43,1.41,.94,.85,1.88,1.71,2.82,2.55,3.94,3.82,7.86,7.65,11.8,11.48,.66,.64,1.34,1.26,2.02,1.89,1.04,1.3,2.07,2.6,3.1,3.91,1.04,1.3,2.07,2.6,3.1,3.91,1.09,1.36,2.17,2.73,3.26,4.09l.59,.74c.95,3.16-.29,5.41-2.77,7.38-28.4,22.55-56.77,45.13-85.14,67.7-2.75,2.19-4.29,2.33-7.31,.67-1.87-2.36-3.74-4.71-5.63-7.07-.59-.74-1.19-1.49-1.77-2.23-.05-.18-.06-.38-.14-.55-1.51-3.16-1.69-6.4-.25-9.57l-.02-.02Z"/><g><path class="p" d="M381.06,727.34c-.48-.47-.94-.96-1.43-1.41-1.48-1.34-3.43-1.04-4.35,.75-1.46,2.84-2.88,5.7-4.3,8.56-3.35,6.73-8.77,10.7-16.07,12.19-.15,.03-.32,.01-.47,0-.37,.12-.73,.31-1.11,.37-3.21,.51-5.83,1.99-7.66,4.73,.31,.23,.6,.5,.93,.68,1.74,1,3.55,1.92,5.24,3.01,1.81,1.15,1.82,3.62,.13,4.92-1.15,.89-2.35,.77-3.56,.12-1.94-1.04-3.9-2.07-5.84-3.1-.97,1.74-1.95,3.47-2.92,5.19,.35,.25,.67,.53,1.04,.73,1.65,.94,3.34,1.8,4.95,2.79,2.08,1.28,2.06,4.06,.01,5.28-1.14,.68-2.26,.47-3.37-.12-1.9-1.02-3.82-2.02-5.73-3.02-.97,1.72-1.94,3.46-2.92,5.18,1.83,1.07,3.65,2.17,5.49,3.2,1.4,.8,2.21,1.87,2,3.55,.3,.05,.64,.05,.89,.2,1.39,.75,2.78,1.49,4.13,2.32,2.92,1.79,6.76,1.87,9.91-.66,14.87-11.93,29.83-23.77,44.75-35.64l-3.1-3.91c-.67-.63-1.35-1.24-2.02-1.89-3.94-3.82-7.86-7.64-11.8-11.48-.87,1.77-1.72,3.55-2.61,5.31-1.22,2.38-2.41,4.8-3.76,7.1-1.48,2.52-3.45,4.64-5.59,6.67-1.89,1.79-4.01,3.13-6.29,4.3-1.11,.58-2.08,.15-2.56-.88-.4-.86,.05-1.92,1.06-2.45,4.1-2.14,7.55-5.08,9.87-9.08,2.55-4.39,4.72-9.02,7.04-13.53l.02,.02Z"/><path class="x" d="M312.53,831.65c3.02,1.66,4.56,1.52,7.31-.67,28.38-22.57,56.74-45.16,85.14-67.7,2.47-1.97,3.72-4.22,2.77-7.38l-.59-.74c-27.75,22.07-55.5,44.13-83.23,66.21-2.29,1.83-5.56,2.12-7.42-.74-1.15,.9-2.37,1.7-3.42,2.71-1.83,1.74-3.82,2.32-6.19,1.24l5.63,7.07h0Z"/><path class="f" d="M316.51,820.64c1.86,2.86,5.12,2.57,7.42,.74,27.74-22.08,55.49-44.15,83.23-66.21l-3.26-4.09c-18.63,14.81-37.24,29.62-55.87,44.43-.4,.31-.82,.61-1.24,.92-.36,.31-.71,.63-1.08,.93-5.84,4.65-11.7,9.31-17.54,13.96-3.9,3.11-7.78,6.23-11.67,9.33h0Z"/><path d="M346.8,796.42c.41-.3,.83-.6,1.24-.92,18.63-14.81,37.24-29.62,55.87-44.43l-3.1-3.91c-14.93,11.87-29.88,23.72-44.75,35.64-3.15,2.53-6.99,2.45-9.91,.66-1.34-.83-2.74-1.57-4.13-2.32-.26-.14-.6-.13-.89-.2-1.04,2.51-2.61,3.05-5.05,1.74-1.85-1-3.72-1.96-5.58-2.94-1.65,4.27-.54,7.22,3.53,9.47,2.73,1.5,5.43,3.05,8.16,4.57l4.62,2.62h0Z"/><path class="aa" d="M346.8,796.42c-1.54-.87-3.09-1.75-4.62-2.62-8.62,6.85-17.23,13.7-25.84,20.54-1.41,1.11-3.4,1.14-4.82,.02-1.53-1.21-2.22-2.92-2.66-4.73-.3-1.22-.47-2.47-.69-3.7-1.16,2.08-2.46,4.11-3.43,6.29-1.44,3.19-1.25,6.43,.25,9.57,.08,.17,.09,.36,.14,.55l1.77,2.23c2.36,1.07,4.36,.5,6.19-1.24,1.05-1,2.27-1.81,3.42-2.71,3.89-3.11,7.77-6.23,11.67-9.33,5.84-4.65,11.7-9.31,17.54-13.96,.37-.3,.72-.62,1.08-.93h0Z"/><path class="r" d="M308.17,805.94c.23,1.24,.4,2.48,.69,3.7,.43,1.82,1.13,3.52,2.66,4.73,1.41,1.11,3.41,1.09,4.82-.02,8.62-6.85,17.23-13.7,25.84-20.54-2.72-1.53-5.43-3.07-8.16-4.57-4.06-2.24-5.18-5.19-3.53-9.47-1.99-1.09-3.98-2.17-5.97-3.26-5.15,9.26-10.3,18.52-15.45,27.79-.3,.55-.6,1.1-.9,1.66h-.01Z"/><path class="g" d="M342.56,758.18c1.94,1.03,3.9,2.06,5.84,3.1,1.21,.64,2.4,.76,3.56-.12,1.7-1.29,1.69-3.76-.13-4.92-1.69-1.08-3.49-2-5.24-3.01-.33-.19-.62-.45-.93-.68-1.94-1.03-3.89-2.06-5.83-3.1-.08-.05-.06-.29-.08-.44-.42-.02-.84-.01-1.26-.06-1.44-.19-2.56,.28-3.15,1.33-.74,1.35-.66,2.38,.31,3.59,.27,.34,.54,.67,.81,1.01,2.03,1.1,4.06,2.21,6.08,3.3h.02Z"/><path class="g" d="M336.55,769.03c1.91,1.01,3.83,2,5.73,3.02,1.12,.6,2.24,.81,3.37,.12,2.04-1.22,2.07-4.01-.01-5.28-1.61-.99-3.31-1.86-4.95-2.79-.37-.2-.7-.49-1.04-.73-1.23-.62-2.46-1.21-3.66-1.88-.82-.46-1.56-1.02-2.35-1.53-.62-.09-1.23-.25-1.85-.25-1.25,0-2.39,.84-2.72,1.92-.33,1.13-.18,2.88,.94,3.51,.2,.11,.32,.34,.48,.52,2.02,1.12,4.04,2.24,6.06,3.35h-.01Z"/><path class="j" d="M324.53,776.5c1.99,1.09,3.98,2.17,5.97,3.26,1.86,.98,3.73,1.94,5.58,2.94,2.43,1.31,4.01,.77,5.05-1.74,.21-1.68-.59-2.75-2-3.55-1.84-1.04-3.67-2.14-5.49-3.2-2.01-1.14-4.01-2.27-6.03-3.42-1.14-.14-2.27-.51-3.4,.22-1.8,1.17-1.85,3.97-.16,4.97,.19,.11,.32,.34,.48,.52h0Z"/><path d="M381.06,727.34c-2.33,4.52-4.5,9.14-7.04,13.53-2.3,3.99-5.76,6.93-9.87,9.08-1.01,.53-1.46,1.59-1.06,2.45,.48,1.03,1.45,1.46,2.56,.88,2.26-1.17,4.4-2.51,6.29-4.3,2.13-2.02,4.11-4.14,5.59-6.67,1.35-2.31,2.54-4.72,3.76-7.1,.9-1.76,1.75-3.54,2.61-5.31-.94-.85-1.88-1.71-2.82-2.55h0Z"/><path class="k" d="M339.76,749c.03,.16,0,.4,.08,.44,1.93,1.05,3.88,2.07,5.83,3.1,1.83-2.75,4.45-4.21,7.66-4.73,.38-.06,.74-.25,1.11-.37,.07-2.46-1.01-4.34-3.04-5.64-1.43-.91-2.95-1.66-4.41-2.52-.98-.58-1.61-.25-2.11,.67-1.69,3.02-3.4,6.04-5.1,9.05h-.01Z"/><path class="y" d="M327.61,770.79c2.01,1.14,4.01,2.27,6.03,3.42,.97-1.72,1.94-3.46,2.92-5.18-2.02-1.12-4.04-2.24-6.06-3.35-.97,1.7-1.92,3.41-2.89,5.11h0Z"/><path class="y" d="M333.63,759.97c.78,.51,1.53,1.08,2.35,1.53,1.2,.66,2.44,1.25,3.66,1.88,.97-1.74,1.95-3.47,2.92-5.19-2.03-1.11-4.06-2.21-6.08-3.3-.95,1.69-1.9,3.4-2.85,5.1h0Z"/></g><g><path class="c" d="M344.81,471.79l-.02,.07c10.09-74.29,31.88-222.54,48.88-253.33,22.9-41.47,82.1-29.53,97.8-12.5,15.7,17.03,57.3,115.97,61.41,308.46h-99.58l-19.53-26.49-88.96-16.21Z"/><path class="c" d="M453.3,514.49l52.57,71.29c-10.1,12.22,1.16,16.13-14.47,16.67-15.63,.55-65.63-60.45-80.63-67.45-6.54-3.05-19.34-11.49-31.94-20.51h74.47Z"/><path class="c" d="M344.79,471.86c-.45,3.35-.89,6.54-1.29,9.57-.24-4.57,1.12-9.05,1.29-9.57Z"/><path class="c" d="M344.81,486.84c-.85-1.63-1.21-3.53-1.31-5.41,.41-3.03,.84-6.22,1.29-9.57l.02-.07,88.96,16.21,19.53,26.49h-74.47c-16.31-11.68-32.3-24.35-34.02-27.65Z"/></g><path class="c" d="M579.13,430.22s10.63-8.22,13.63-20.22-8.13-113.94-25-136c-39-51-56-66-76.3-67.97-26.65-2.59,9.9,136.06,9.9,136.06l30.11,64.95,47.67,23.18Z"/><path class="w" d="M534.37,395.83c-4.6-6.83-2.6-10.83-1.6-33.83,1-23-.4-53.88-3.2-54.94s-92.8,207.42-92.8,207.42h116.11l-1.34-60.36-17.17-58.3Z"/><path class="d" d="M429.32,189.63c12.15-2.36,20.02-8.82,24.94-17.42,.57,2.05,1.32,4.33,2.19,6.67,2.7,7.31,6.36,15.24,8,18.59,2.5,5.11-48.91,32.08-52.7,24.23-2.12-4.38-7.16-16.6-11.21-27.03-1.32-3.38-2.53-6.56-3.49-9.24,7.89,4.82,18.3,6.9,32.26,4.19h.01Z"/><path class="h" d="M405.63,207.45c-1.69-4.13-3.47-8.59-5.09-12.77-1.32-3.38-2.53-6.56-3.49-9.24,7.89,4.82,18.3,6.9,32.26,4.19h.01c12.15-2.36,20.02-8.81,24.94-17.42,.57,2.05,1.32,4.33,2.19,6.67,.5,1.36,1.03,2.73,1.58,4.1-11.08,10.96-30.11,23.87-52.4,24.47Z"/><path class="b" d="M457.84,127.91l-78.96,40.27s-6.58-6.82-9.86-13.63c-20.32-35.63-18.91-56.65-12.1-61.75,.76-38.71,48.53-43.43,63-44.19-3.42,.88-.58,4.16-3.56,10.37,3.82-4.34,14.14-5.96,20.21-.75,6.06,5.2,20.05,41.36,22.3,50.61,2.25,9.26-1.01,19.06-1.01,19.06h-.02Z"/><path class="ab" d="M457.59,126.75l3.27,21.2s2.7,2.48,8.67-5.21c5.97-7.69-3.6-26.6-7.52-27.52s-3.34,4.06-4.43,11.54h0Z"/><path class="ab" d="M388.21,182.99s-5.88,.18-11.46-5.26c-10.34-10.52-11.56-21.1-8.61-21.2s5.52,3.45,7.8,5.38"/><path class="d" d="M370.63,150.03c5.87,11.81,13.97,38.86,35.1,45.28,8.23,2.5,18.42,1.87,31.25-4.01,11.16-5.11,17.62-12.94,20.95-22.01,6.53-17.76,1.08-40.3-4.65-56.74-3.35-9.61-6.8-17.14-8.01-20.39,0,0-6.03-15.56-17.52-22.42-13.56-8.1-59.45,22.63-66.38,31.21-5.45,6.77-1.64,23.16,4.23,37.85,1.57,3.95,3.3,7.77,5.03,11.25h0Z"/><ellipse class="q" cx="409.65" cy="136.56" rx="2.82" ry="5.2" transform="translate(-18.93 189.29) rotate(-25.45)"/><ellipse class="q" cx="388.45" cy="142.92" rx="3.01" ry="5.23" transform="translate(-24.83 165.64) rotate(-23.35)"/><path class="m" d="M398.54,149.46s-.24-2.11,.99-1.23c1.84,1.32,14.73,20.52,15.17,22.09s-6.29,2.9-6.29,2.9c-2.57,.81-4.18,.55-6.1-5.39s-2.23-8.05-3.77-18.35h0Z"/><path class="ad" d="M424.38,116.57c.61,1.44-4.5-1.23-10.69-.71s-10.48,5.8-7.41,.25c4.87-8.27,12.53-4.13,18.1,.46h0Z"/><path class="ad" d="M370.4,139.57c.85,1.32,1.54-4.42,5.47-9.22s10.71-5.37,4.4-5.97c-9.58-.66-10.49,8-9.87,15.18h0Z"/><path class="w" d="M552.88,514.49c-.11,19.51-39.9,67.07-47,71.29-7.1,4.22-10,3.26-11.05,5.24s-32.87-29.2-39.46-37.61-36.36-32.44-34.97-38.92,27.69-32.36,33.04-38.43,99.45,38.43,99.45,38.43Z"/><polygon class="i" points="298.83 585.39 310.31 596.11 318.24 594.17 306.76 583.45 298.83 585.39"/><polygon class="i" points="314.97 585.39 323.22 592.88 331.16 590.94 322.91 583.45 314.97 585.39"/><polygon class="i" points="325.74 580 336.14 589.65 344.08 587.72 333.67 578.07 325.74 580"/><path class="u" d="M557.62,476.15c-12.85,238.74-15.83,427.27-15.83,427.27,0,0-10.77,14.79-18.89,0-.26,.49,17.36-537.43,17.36-537.43h22.98l-5.62,110.15Z"/><polygon class="i" points="335.96 574.08 349.06 586.42 357 584.49 343.9 572.15 335.96 574.08"/><polygon class="i" points="353.73 575.7 361.98 583.19 369.91 581.26 361.66 573.77 353.73 575.7"/><polygon class="i" points="342.96 566.01 351.21 573.5 359.15 571.57 350.9 564.08 342.96 566.01"/><polygon class="i" points="332.2 556.32 340.45 563.81 348.38 561.88 340.13 554.39 332.2 556.32"/><polygon class="i" points="321.43 546.63 329.68 554.13 337.62 552.19 329.37 544.7 321.43 546.63"/><polygon class="i" points="310.67 536.95 318.92 544.44 326.85 542.5 318.6 535.01 310.67 536.95"/><polygon class="i" points="299.9 527.26 308.15 534.75 316.09 532.82 307.84 525.32 299.9 527.26"/><polygon class="i" points="325.74 564.93 333.99 572.42 341.93 570.49 333.67 563 325.74 564.93"/><polygon class="i" points="314.97 555.25 323.22 562.74 331.16 560.8 322.91 553.31 314.97 555.25"/><polygon class="i" points="304.21 545.56 312.46 553.05 320.4 551.12 312.14 543.62 304.21 545.56"/><polygon class="i" points="293.44 535.87 301.69 543.36 309.63 541.43 301.38 533.94 293.44 535.87"/><polygon class="i" points="282.68 527.18 290.93 534.67 298.87 532.74 290.62 525.25 282.68 527.18"/><polygon class="i" points="308.51 563.86 316.76 571.35 324.7 569.42 316.45 561.92 308.51 563.86"/><polygon class="i" points="296.67 567.09 304.92 574.58 312.86 572.64 304.61 565.15 296.67 567.09"/><polygon class="i" points="319.28 573.55 324.3 577.81 332.24 575.87 327.22 571.61 319.28 573.55"/><polygon class="i" points="306.36 576.78 311.38 581.04 319.32 579.1 314.3 574.84 306.36 576.78"/><polygon class="i" points="297.75 554.17 306 561.66 313.94 559.73 305.69 552.24 297.75 554.17"/><polygon class="i" points="286.98 544.48 295.24 551.97 303.17 550.04 294.92 542.55 286.98 544.48"/><polygon class="i" points="276.22 534.79 284.47 542.28 292.41 540.35 284.16 532.86 276.22 534.79"/><path class="c" d="M592.77,410c-8,20-52,90-77,92l-25,2s10.44-5.42,7.22-24.71c-3.22-19.29-21.86-21.97-23.04-28.13s55.55-33.39,56.68-70.28,33.14-32.88,41.14-18.88c8,14,20,48,20,48Z"/><polygon class="n" points="153.73 367.01 260.53 463.97 305.95 608.42 199.16 511.46 153.73 367.01"/><polygon class="i" points="327.01 520.95 354.41 545.83 380.77 539.41 353.37 514.53 327.01 520.95"/><polygon class="t" points="308.27 606.93 262.95 462.73 155.49 366 153.73 367.01 305.49 607.61 308.27 606.93"/><path class="d" d="M343.08,537.95c5.93-5.12,13.9-11.32,16.83-11.92,4.45-.91,11.32-.25,15.92,3.36,4.87-1.53,31.1-23.11,56.48-43.99,13.15-10.82,25.58-21.04,34.67-28.18l.1-.07h0c4.47-3.5,7.72-5.94,9.93-7.44,2.63-1.8,3.33-1.98,3.63-1.95,10.32,1.52,14.5,14.47,16.19,25.07,2.13,13.34,.94,27.4-.5,28.12-2.51,1.25-3.62,1.77-7.31,3.47l-3.06,1.42h0l-.66,.3c-.47,.21-.96,.44-1.48,.69-6.94,3.22-29.23,11.77-43.98,17.42-5.91,2.26-10.57,4.05-12.41,4.8-3.88,1.57-8.88,3.23-14.17,4.99-10.64,3.54-22.69,7.55-28.45,11.8-.09,.51-.42,1.01-1.14,1.7-5.91,5.74-10.44,10.47-14.08,14.27-9.58,10-12.8,13.37-18.16,11.22-4.17-1.68-14.62-6.59-20.28-11.67-1.69-1.52-2.95-3.05-3.49-4.51-.41-1.11-.38-2.13,.09-3.04,1.82-3.5,9.39-10.73,15.33-15.85Z"/><path class="h" d="M496.28,500.83c6.44-4.66-.42-32.44-.42-32.44l-102.2,72.57s90.37-30.97,102.62-40.13Z"/></svg>