<?xml version="1.0" encoding="UTF-8"?><svg id="a" xmlns="http://www.w3.org/2000/svg" viewBox="0 0 600.31 929.82"><defs><style>.b{fill:#9d5349;}.c{stroke:#384068;stroke-miterlimit:10;}.c,.d{fill:#232f51;}.e{fill:#e3cf25;}.f{fill:#db937d;}.g{fill:#fed9cd;}.h{fill:#e8ddd8;}.i{fill:#d78383;}.j{fill:#e8ddd9;}.k{fill:#5e90b9;}.l{fill:#18203c;}.m{fill:#db736d;}.n{fill:#ab3345;}.o{fill:#6d93bb;}.p{fill:#5c90b8;}.q{fill:#7c3aee;}.r{fill:#e39b37;}.s{fill:#fed0bf;}.t{fill:#5f91b9;}.u{fill:#4a80aa;}.v{fill:#d79783;}.w{fill:#7b453b;}</style></defs><g><path class="q" d="M316.57,263.72c-4.62-64.45-69.76-170.26-165.79-140.1-96.03,30.17-103.51,137.05-87.17,265.63,3.36,26.41,8.32,56.21,15.4,86.96-23.65,6.56-41.01,28.22-41.01,53.95,0,30.93,25.07,56,56,56,6.62,0,12.97-1.16,18.87-3.27,34.33,80.39,88.55,146.87,172.83,150.59,151.33,6.68,30.87-469.77,30.87-469.77Z"/><circle class="q" cx="47" cy="79.16" r="47"/><circle class="q" cx="11" cy="514.16" r="7"/><circle class="q" cx="131" cy="704.16" r="21"/><circle class="q" cx="47" cy="180.16" r="12"/></g><g><path class="l" d="M329.2,694.59c2.22,17.76,11.44,167.83,11.44,167.83h-50.07s-3.2-27.22-7.3-61.06h0l45.92-106.77h.01Z"/><polyline class="l" points="400.24 455.29 401.31 506.64 213.79 504.97 211.31 455.29 397.34 455.29"/><polygon class="d" points="344.09 850.55 286.33 852.5 289.02 868.02 342.06 865.91 344.09 850.55"/><polygon class="m" points="332.83 866.28 332.83 887.77 301.17 887.77 298.79 868.02 332.83 866.28"/><polygon class="m" points="292.71 810.35 278.63 826.58 254.71 805.83 265.85 789.35 292.71 810.35"/><path class="d" d="M213.76,503.65s0,8.46,2.66,26.22,46.88,133.56,49.89,142.76c1.35,4.13,6.38,42.8,11.51,84.17-4.66,9.25-8.53,16.89-10.97,21.71l12.54-8.97c1.33,10.83,2.65,21.63,3.88,31.82h0l21.49-49.97,74.16-53.03c11.25-16.4,19.49-28.49,20.81-30.62,4.82-7.76,.27-89.97,1.62-164.1H213.76Zm111.66,156.38c-4.34-40.84-11.05-104.29-14.9-130.15h.12c3,13.11,21.05,112.54,21.05,112.54-.44,1.96-2.55,9.56-6.28,17.62h0Z"/><path class="l" d="M264.01,784.1s1.03-2.03,2.84-5.59h0l112.07-80.14c-29.69,43.29-80.36,116.7-80.36,116.7l-34.55-30.96h0Z"/><polygon class="d" points="311.96 807.22 266.85 771.09 258.79 784.62 300.41 817.56 311.96 807.22"/></g><path class="e" d="M443.47,320.18c-7.47-7.02-30.47-24.02-33.47-31.02s-27.3-120.81-62.65-124.91c-35.35-4.09-48.94,130.14-48.94,130.14,0,0,83.76,73.42,101.68,76.09s35.15,1.57,35.15,1.57l8.23-51.88Z"/><path class="r" d="M372.58,223.55c6.14,2.77,27.14,108.77,32.14,117.77s14.54,16.2,14.54,16.2l14.69,14.7s-25.06,1.76-35.15-1.57-29.21-74.18-29.15-75.75,2.93-71.34,2.93-71.34Z"/><path class="e" d="M174.63,391.38s-10.63-8.22-13.63-20.22,8.13-113.94,25-136c39-51,56-66,76.3-67.97,26.65-2.59-9.9,136.06-9.9,136.06l-30.11,64.95-47.67,23.18Z"/><path class="e" d="M200.89,475.65c4.11-192.49,45.71-291.43,61.41-308.46s74.9-28.97,97.8,12.5,54.47,295.96,54.47,295.96H200.89Z"/><path class="n" d="M403.77,907.47c-1.91-1.12-3.98-1.95-5.99-2.91-.52-.26-1.05-.52-1.57-.77-8.88-4.24-17.77-8.49-26.65-12.73,.03-.22,0-.46,.08-.65,.74-1.67-.81-3.76-2.79-3.68-1.24,.05-1.9,.93-2.69,1.66-1.65-.78-3.29-1.55-4.94-2.33,.02-.22,0-.46,.08-.65,.52-1.08-.31-2.49-1.17-3.17-.83-.65-2.14-.66-3.09,0-.47,.33-.85,.79-1.27,1.18-1.63-.78-3.27-1.55-4.9-2.33,.02-.4,.05-.8,.07-1.21,.08-1.44-.41-2.26-1.7-2.88-1.01-.49-2.11-.23-3.1,.68-.28,.26-.61,.48-.91,.72-2.91-1.37-5.83-2.73-8.73-4.11-.88-.42-1.53-.33-1.96,.63-.64,1.43-1.4,2.82-1.99,4.28-.84,2.08-.64,4.08,.73,5.91-.12,.08-.23,.19-.36,.25-6.34,2.8-12.58,2.7-18.73-.59-2.62-1.4-5.22-2.82-7.86-4.17-1.66-.85-3.3-.04-3.7,1.78-.13,.61-.22,1.22-.33,1.84-.25,1.15-.51,2.3-.76,3.46-.92,5.01-1.84,10.02-2.76,15.04-.16,.84-.34,1.68-.51,2.51-.08,1.54-.17,3.09-.25,4.63s-.17,3.09-.25,4.63c-.09,1.62-.18,3.23-.26,4.85l-.05,.88c.98,2.9,3.13,3.94,6.06,4.1,33.64,1.8,67.27,3.65,100.91,5.48,3.26,.18,4.51-.54,5.9-3.42,.15-2.79,.3-5.59,.46-8.38,.05-.88,.1-1.76,.14-2.65-.06-.16-.16-.32-.19-.49-.56-3.2-2.16-5.76-4.96-7.39h-.01Z"/><path class="r" d="M219.4,356.99c4.6-6.83,2.6-10.83,1.6-33.83s.4-53.88,3.2-54.94,92.8,207.42,92.8,207.42h-116.11l1.34-60.36,17.17-58.3Z"/><path class="n" d="M310.57,887.56c-.56-2.14-1.44-4.2-2.17-6.29-.19-.55-.37-1.11-.57-1.66-3.28-9.28-6.56-18.56-9.84-27.85,.17-.14,.32-.32,.52-.4,1.71-.66,2.09-3.23,.63-4.58-.92-.84-2-.69-3.08-.73-.62-1.71-1.23-3.42-1.85-5.13,.17-.14,.32-.33,.52-.4,1.13-.4,1.54-1.98,1.41-3.07-.13-1.05-1.05-1.98-2.19-2.18-.56-.1-1.16-.04-1.73-.06-.61-1.7-1.21-3.41-1.82-5.11,.3-.27,.6-.53,.9-.8,1.07-.96,1.31-1.89,.84-3.24-.37-1.06-1.33-1.66-2.68-1.71-.39-.01-.77-.09-1.16-.14-1.09-3.03-2.19-6.05-3.27-9.08-.33-.92-.84-1.32-1.83-.94-1.47,.56-2.98,1.01-4.43,1.62-2.06,.87-3.34,2.43-3.66,4.69-.14-.03-.3-.03-.43-.08-6.46-2.5-10.81-6.98-12.83-13.66-.86-2.84-1.7-5.69-2.61-8.51-.57-1.78-2.31-2.36-3.87-1.36-.52,.34-1.02,.71-1.53,1.07-.99,.63-1.99,1.27-2.98,1.9-4.2,2.89-8.39,5.79-12.59,8.68-.7,.48-1.42,.95-2.14,1.42-1.15,1.03-2.3,2.06-3.45,3.1-1.15,1.03-2.3,2.06-3.45,3.1-1.21,1.08-2.41,2.16-3.62,3.24l-.66,.59c-1.36,2.75-.57,5,1.39,7.19,22.51,25.06,44.99,50.15,67.47,75.23,2.18,2.43,3.57,2.8,6.59,1.75,2.08-1.87,4.16-3.73,6.25-5.6,.66-.59,1.32-1.18,1.97-1.77,.07-.16,.11-.34,.21-.48,1.87-2.66,2.54-5.6,1.72-8.73l.02-.02Z"/><g><path class="n" d="M300.3,884.23c.11-.61,.2-1.23,.33-1.84,.4-1.81,2.04-2.63,3.7-1.78,2.64,1.36,5.25,2.77,7.86,4.17,6.15,3.29,12.39,3.39,18.73,.59,.13-.06,.24-.16,.36-.25,.35-.1,.72-.15,1.04-.31,2.71-1.34,5.48-1.63,8.34-.53-.11,.34-.19,.7-.34,1.02-.78,1.7-1.65,3.36-2.35,5.1-.75,1.85,.57,3.72,2.55,3.79,1.35,.05,2.19-.68,2.76-1.82,.92-1.83,1.84-3.66,2.76-5.49,1.67,.79,3.34,1.58,5.01,2.36-.13,.37-.23,.76-.4,1.12-.74,1.6-1.56,3.16-2.25,4.78-.88,2.08,.62,4.18,2.83,4.01,1.23-.1,1.97-.86,2.49-1.91,.89-1.8,1.81-3.58,2.72-5.38,1.67,.79,3.33,1.57,5,2.36-.81,1.8-1.6,3.6-2.44,5.38-.64,1.35-.66,2.6,.4,3.76-.2,.21-.45,.38-.58,.63-.65,1.31-1.31,2.62-1.88,3.97-1.25,2.93-4.11,5.05-7.86,4.83-17.69-1.04-35.38-1.96-53.07-2.93l.25-4.63c.17-.84,.35-1.67,.51-2.51,.93-5.01,1.84-10.02,2.76-15.04,1.61,.87,3.21,1.77,4.84,2.62,2.21,1.15,4.41,2.33,6.67,3.36,2.48,1.12,5.11,1.67,7.81,2.05,2.39,.34,4.73,.21,7.07-.12,1.16-.17,1.65-1.01,1.46-2.05-.16-.87-1.08-1.43-2.12-1.29-4.26,.58-8.46,.21-12.36-1.57-4.29-1.96-8.42-4.29-12.62-6.46h.02Z"/><path class="s" d="M408.32,926.38c-1.39,2.88-2.64,3.6-5.9,3.42-33.63-1.83-67.27-3.68-100.91-5.48-2.93-.16-5.08-1.19-6.06-4.1l.05-.88c32.89,1.79,65.77,3.58,98.66,5.39,2.71,.15,5.34-1.39,5.21-4.55,1.35,.06,2.71,.02,4.04,.21,2.33,.33,4.15-.3,5.36-2.38l-.46,8.38h.01Z"/><path class="g" d="M399.37,920.18c.13,3.17-2.5,4.7-5.21,4.55-32.89-1.81-65.77-3.6-98.66-5.39l.26-4.85c22.07,1.2,44.14,2.41,66.21,3.61,.48,.03,.95,.02,1.43,.03,.44,.04,.87,.1,1.31,.12,6.93,.38,13.86,.75,20.79,1.14,4.62,.26,9.24,.53,13.86,.79h.01Z"/><path d="M363.41,918.12c-.48,0-.96,0-1.43-.03-22.07-1.2-44.14-2.4-66.21-3.61l.25-4.63c17.69,.97,35.38,1.89,53.07,2.93,3.75,.22,6.61-1.9,7.86-4.83,.57-1.35,1.23-2.66,1.88-3.97,.12-.24,.38-.42,.58-.63,2.14,1.35,3.62,.91,4.76-1.39,.87-1.75,1.76-3.49,2.65-5.23,3.55,2.35,4.3,5.18,2.42,9.07-1.26,2.61-2.48,5.23-3.72,7.85l-2.1,4.47h0Z"/><path class="u" d="M363.41,918.12c.7-1.49,1.4-2.98,2.1-4.47,10.21,.56,20.42,1.11,30.62,1.67,1.67,.09,3.19-.97,3.66-2.57,.51-1.74,.11-3.4-.53-5.01-.43-1.08-.97-2.12-1.47-3.18,2,.96,4.08,1.8,5.99,2.91,2.8,1.64,4.4,4.19,4.96,7.39,.03,.17,.12,.33,.19,.49l-.14,2.65c-1.21,2.08-3.03,2.72-5.36,2.38-1.33-.19-2.7-.15-4.04-.21-4.62-.26-9.24-.53-13.86-.79-6.93-.38-13.86-.76-20.79-1.14-.44-.02-.88-.08-1.31-.12h-.02Z"/><path class="p" d="M397.79,904.56c.49,1.06,1.03,2.09,1.47,3.18,.65,1.61,1.04,3.27,.53,5.01-.47,1.6-1.99,2.66-3.66,2.57-10.21-.55-20.42-1.11-30.62-1.67,1.24-2.62,2.46-5.24,3.72-7.85,1.88-3.88,1.13-6.72-2.42-9.07,.92-1.89,1.84-3.78,2.77-5.68,8.88,4.24,17.77,8.49,26.65,12.73,.53,.25,1.05,.51,1.57,.77h-.01Z"/><path class="h" d="M346.05,886.88c-.92,1.83-1.85,3.66-2.76,5.49-.57,1.14-1.41,1.87-2.76,1.82-1.99-.07-3.3-1.95-2.55-3.79,.7-1.73,1.57-3.4,2.35-5.1,.15-.32,.23-.68,.34-1.02,.92-1.82,1.84-3.65,2.74-5.48,.04-.08-.11-.25-.18-.38,.31-.24,.63-.46,.91-.72,.99-.92,2.09-1.17,3.1-.68,1.29,.62,1.78,1.44,1.7,2.88-.02,.4-.05,.8-.07,1.21-.94,1.93-1.88,3.85-2.83,5.78h0Z"/><path class="h" d="M356.44,891.86c-.91,1.79-1.83,3.58-2.72,5.38-.52,1.06-1.26,1.82-2.49,1.91-2.2,.18-3.71-1.92-2.83-4.01,.69-1.62,1.51-3.18,2.25-4.78,.17-.36,.27-.75,.4-1.12,.59-1.13,1.21-2.24,1.76-3.39,.37-.78,.64-1.61,.95-2.42,.42-.4,.8-.85,1.27-1.18,.95-.67,2.26-.65,3.09,0,.86,.68,1.69,2.09,1.17,3.17-.09,.19-.06,.43-.08,.65-.93,1.93-1.86,3.87-2.78,5.8h.01Z"/><path class="j" d="M369.57,891.06c-.92,1.89-1.84,3.78-2.77,5.68-.88,1.74-1.78,3.48-2.65,5.23-1.14,2.3-2.62,2.74-4.76,1.39-1.06-1.16-1.03-2.41-.4-3.76,.84-1.78,1.63-3.59,2.44-5.38,.91-1.94,1.82-3.89,2.72-5.83,.79-.72,1.45-1.6,2.69-1.66,1.99-.09,3.54,2.01,2.79,3.68-.08,.19-.06,.43-.08,.65h.02Z"/><path d="M300.3,884.23c4.2,2.17,8.32,4.5,12.62,6.46,3.89,1.78,8.1,2.15,12.36,1.57,1.05-.14,1.96,.42,2.12,1.29,.19,1.04-.3,1.88-1.46,2.05-2.34,.34-4.68,.46-7.07,.12-2.7-.38-5.34-.93-7.81-2.05-2.27-1.03-4.46-2.21-6.67-3.36-1.63-.85-3.23-1.74-4.84-2.62,.25-1.15,.51-2.3,.76-3.46h0Z"/><path class="k" d="M343.24,878.43c.06,.13,.22,.3,.18,.38-.9,1.83-1.82,3.66-2.74,5.48-2.86-1.09-5.63-.8-8.34,.53-.32,.16-.69,.21-1.04,.31-1.37-1.83-1.57-3.83-.73-5.91,.59-1.46,1.34-2.84,1.99-4.28,.43-.97,1.08-1.05,1.96-.63,2.91,1.38,5.82,2.74,8.73,4.11h-.01Z"/><path class="t" d="M364.16,888.39c-.91,1.94-1.82,3.88-2.72,5.83-1.67-.78-3.33-1.57-5-2.36,.93-1.93,1.86-3.87,2.78-5.8,1.64,.78,3.29,1.55,4.94,2.33h0Z"/><path class="t" d="M353.78,883.44c-.31,.81-.58,1.64-.95,2.42-.55,1.15-1.17,2.26-1.76,3.39-1.67-.79-3.34-1.58-5.01-2.36,.94-1.93,1.88-3.85,2.83-5.78,1.63,.78,3.27,1.55,4.9,2.33h-.01Z"/></g><g><path class="n" d="M253.85,797.96c.51-.36,1.01-.73,1.53-1.07,1.56-1,3.3-.42,3.87,1.36,.9,2.83,1.75,5.67,2.61,8.51,2.02,6.68,6.37,11.16,12.83,13.66,.13,.05,.29,.06,.43,.08,.32,.17,.62,.4,.96,.51,2.86,.97,5.03,2.73,6.28,5.52-.32,.16-.63,.36-.96,.48-1.75,.65-3.55,1.21-5.27,1.94-1.84,.77-2.23,3.03-.88,4.49,.92,.99,2.03,1.07,3.24,.66,1.94-.65,3.89-1.29,5.83-1.93,.62,1.74,1.25,3.48,1.87,5.21-.36,.17-.7,.38-1.07,.51-1.66,.6-3.34,1.13-4.97,1.79-2.1,.85-2.52,3.4-.83,4.83,.94,.8,2,.78,3.11,.41,1.9-.64,3.81-1.26,5.72-1.88,.62,1.73,1.24,3.47,1.87,5.2-1.84,.7-3.68,1.42-5.53,2.08-1.41,.51-2.31,1.37-2.38,2.94-.28,0-.59-.05-.85,.04-1.39,.47-2.78,.93-4.14,1.48-2.95,1.19-6.48,.66-8.97-2.14-11.77-13.24-23.63-26.4-35.45-39.59l3.45-3.1c.71-.47,1.43-.93,2.14-1.42,4.2-2.89,8.39-5.78,12.59-8.68,.52,1.76,1.02,3.52,1.57,5.27,.75,2.37,1.46,4.77,2.34,7.09,.96,2.54,2.44,4.79,4.08,6.98,1.45,1.93,3.19,3.49,5.09,4.91,.93,.7,1.88,.46,2.48-.41,.5-.73,.25-1.77-.59-2.41-3.42-2.6-6.13-5.83-7.63-9.85-1.65-4.42-2.92-8.99-4.35-13.49l-.02,.02Z"/><path class="s" d="M300.42,904.14c-3.02,1.05-4.41,.68-6.59-1.75-22.49-25.08-44.96-50.17-67.47-75.23-1.96-2.19-2.75-4.44-1.39-7.19l.66-.59c21.99,24.52,43.98,49.04,65.95,73.57,1.81,2.03,4.76,2.8,6.91,.47,.91,1,1.91,1.93,2.71,3.01,1.41,1.88,3.14,2.72,5.48,2.1l-6.25,5.6h-.01Z"/><path class="g" d="M298.48,893.43c-2.15,2.33-5.09,1.56-6.91-.47-21.98-24.53-43.97-49.05-65.95-73.57l3.62-3.24c14.76,16.46,29.51,32.91,44.27,49.37,.32,.35,.66,.69,.99,1.03,.28,.34,.55,.69,.84,1.02,4.63,5.17,9.27,10.34,13.9,15.51,3.09,3.45,6.16,6.91,9.24,10.36h0Z"/><path d="M274.5,866.55c-.33-.34-.67-.68-.99-1.03-14.76-16.46-29.51-32.91-44.27-49.37l3.45-3.1c11.83,13.19,23.68,26.36,35.45,39.59,2.49,2.81,6.02,3.33,8.97,2.14,1.36-.55,2.75-1.01,4.14-1.48,.26-.09,.57-.03,.85-.04,.56,2.46,1.92,3.2,4.35,2.38,1.85-.63,3.71-1.22,5.57-1.83,.85,4.17-.63,6.7-4.7,8.13-2.73,.95-5.45,1.95-8.18,2.92l-4.64,1.68h0Z"/><path class="u" d="M274.5,866.55c1.55-.56,3.1-1.12,4.64-1.68,6.83,7.61,13.65,15.22,20.48,22.83,1.12,1.24,2.94,1.57,4.41,.77,1.59-.87,2.49-2.33,3.17-3.92,.46-1.07,.81-2.19,1.21-3.28,.74,2.09,1.61,4.15,2.17,6.29,.82,3.14,.15,6.08-1.72,8.73-.1,.14-.14,.32-.21,.48l-1.97,1.77c-2.33,.61-4.07-.22-5.48-2.1-.81-1.08-1.8-2.01-2.71-3.01-3.08-3.45-6.15-6.91-9.24-10.36-4.63-5.17-9.27-10.34-13.9-15.51-.29-.33-.56-.68-.84-1.02h0Z"/><path class="p" d="M308.4,881.27c-.4,1.1-.75,2.21-1.21,3.28-.68,1.6-1.58,3.05-3.17,3.92-1.46,.8-3.29,.47-4.41-.77-6.83-7.61-13.65-15.22-20.48-22.83,2.73-.98,5.45-1.97,8.18-2.92,4.07-1.42,5.55-3.95,4.7-8.13,1.99-.69,3.98-1.37,5.97-2.06,3.28,9.28,6.56,18.56,9.84,27.85,.19,.55,.38,1.1,.57,1.66h0Z"/><path class="h" d="M284.32,832.18c-1.94,.64-3.89,1.28-5.83,1.93-1.21,.4-2.32,.32-3.24-.66-1.36-1.45-.96-3.71,.88-4.49,1.72-.73,3.51-1.29,5.27-1.94,.33-.12,.64-.32,.96-.48,1.94-.64,3.88-1.28,5.82-1.93,.08-.03,.1-.26,.14-.39,.39,.05,.77,.12,1.16,.14,1.35,.05,2.3,.65,2.68,1.71,.47,1.35,.24,2.28-.84,3.24-.3,.27-.6,.53-.9,.8-2.03,.69-4.06,1.39-6.08,2.08h-.02Z"/><path class="h" d="M288.14,843.05c-1.91,.63-3.82,1.24-5.72,1.88-1.12,.38-2.18,.39-3.11-.41-1.68-1.43-1.27-3.99,.83-4.83,1.63-.66,3.32-1.19,4.97-1.79,.37-.13,.72-.34,1.07-.51,1.22-.38,2.44-.73,3.64-1.15,.82-.29,1.59-.69,2.39-1.04,.58,.01,1.17-.04,1.73,.06,1.14,.2,2.06,1.14,2.19,2.18,.13,1.09-.28,2.67-1.41,3.07-.2,.07-.35,.26-.52,.4-2.02,.71-4.05,1.42-6.07,2.13h.01Z"/><path class="j" d="M297.99,851.76c-1.99,.69-3.98,1.37-5.97,2.06-1.86,.61-3.72,1.2-5.57,1.83-2.43,.82-3.79,.08-4.35-2.38,.07-1.57,.97-2.43,2.38-2.94,1.85-.67,3.69-1.39,5.53-2.08,2.02-.73,4.03-1.46,6.05-2.2,1.07,.05,2.16-.11,3.08,.73,1.47,1.35,1.08,3.92-.63,4.58-.19,.07-.35,.26-.52,.4h0Z"/><path d="M253.85,797.96c1.43,4.5,2.7,9.07,4.35,13.49,1.49,4.01,4.2,7.24,7.63,9.85,.84,.64,1.09,1.68,.59,2.41-.6,.87-1.55,1.11-2.48,.41-1.89-1.42-3.64-2.98-5.09-4.91-1.64-2.18-3.12-4.43-4.08-6.98-.88-2.33-1.59-4.72-2.34-7.09-.55-1.75-1.05-3.51-1.57-5.27,.99-.63,1.99-1.27,2.98-1.9h0Z"/><path class="k" d="M288.31,824.21c-.05,.14-.06,.37-.14,.39-1.93,.66-3.87,1.29-5.82,1.93-1.25-2.8-3.42-4.55-6.28-5.52-.34-.11-.64-.34-.96-.51,.32-2.26,1.6-3.82,3.66-4.69,1.45-.61,2.96-1.06,4.43-1.62,.99-.38,1.51,.02,1.83,.94,1.08,3.03,2.18,6.06,3.27,9.08h.01Z"/><path class="t" d="M296.06,846.05c-2.02,.73-4.03,1.46-6.05,2.2-.62-1.73-1.24-3.47-1.87-5.2,2.02-.71,4.05-1.42,6.07-2.13,.62,1.71,1.23,3.42,1.85,5.13h0Z"/><path class="t" d="M292.22,835.21c-.79,.35-1.57,.75-2.39,1.04-1.2,.42-2.43,.77-3.64,1.15-.62-1.74-1.25-3.48-1.87-5.21,2.03-.7,4.06-1.39,6.08-2.08,.61,1.7,1.21,3.41,1.82,5.11h0Z"/></g><path class="f" d="M311.25,143.23c-12.32,1.18-21.69-2.78-28.85-9.63,.04,2.13-.04,4.52-.2,7.02-.51,7.78-1.78,16.42-2.4,20.1-.95,5.61,56,16.89,57.41,8.29,.79-4.8,2.16-17.95,3.09-29.1,.3-3.62,.56-7.01,.73-9.85-6.2,6.86-15.59,11.81-29.75,13.16h-.01Z"/><path class="f" d="M599.6,391.04c-2.42-3.12-11.17-8.87-17.92-12.84-6.76-3.97-15.71-8.64-18.7-8.7-4.56-.1-11.18,1.79-15.06,6.16-5.06-.63-34.74-17.16-63.45-33.15-14.88-8.28-28.93-16.11-39.16-21.5l-.11-.06h0c-5.03-2.64-8.66-4.46-11.1-5.54-2.91-1.3-3.63-1.35-3.92-1.27-9.88,3.35-11.67,16.84-11.43,27.57,.3,13.5,3.98,27.12,5.53,27.57,2.69,.78,3.88,1.09,7.81,2.1l3.27,.85h0l.66,.17c.51,.13,1.05,.27,1.63,.42,7.41,1.92,30.88,6.34,46.42,9.26,6.2,1.17,11.1,2.09,13.05,2.49,4.1,.85,9.32,1.58,14.84,2.37,11.1,1.57,23.67,3.35,30.1,6.51,.18,.49,.6,.92,1.42,1.47,6.84,4.59,12.15,8.43,16.41,11.52,8.22,5.95,12.44,9.01,16.04,9.01,1.31,0,2.54-.41,3.84-1.23,4.94-3.11,19.31-13.49,20.49-20.18,.21-1.17,0-2.17-.64-2.98Z"/><path class="f" d="M261.61,515.89c-1-7.78-2.79-17.71-4.57-20.11-2.7-3.65-8.26-7.74-14.09-8.13-2.6-4.39-7.71-37.98-12.66-70.46-2.56-16.84-4.98-32.74-6.99-44.13l-.02-.12h0c-.99-5.6-1.78-9.58-2.42-12.17-.76-3.1-1.16-3.69-1.4-3.88-8.7-5.76-20.46,1.09-28.79,7.84-10.49,8.51-19,19.76-18.41,21.26,1.03,2.61,1.52,3.73,3.12,7.47l1.33,3.1h0l.29,.66c.2,.47,.42,.97,.64,1.5,3.02,7.03,13.9,28.28,21.1,42.34,2.88,5.63,5.16,10.07,6.04,11.86,1.84,3.76,4.45,8.33,7.22,13.18,5.56,9.74,11.85,20.77,13.29,27.79-.27,.44-.36,1.03-.29,2.02,.56,8.22,.77,14.76,.94,20.02,.45,13.84,.6,18.5,6.02,20.48,4.22,1.54,15.28,4.86,22.89,4.86,2.27,0,4.23-.3,5.61-1.02,1.05-.55,1.71-1.33,1.97-2.33,.99-3.82,.17-14.26-.82-22.04Z"/><path class="c" d="M218.18,522.35s16.82-18.19,47.82-13.19l6,47s-15.82,6.51-26.91,7.26-13.09-.26-13.09-.26l-13.82-40.81Z"/><path class="i" d="M172.39,385.95c-1.68-7.77,21.98-23.86,21.98-23.86l27.6,122.27s-46.57-83.41-49.57-98.41Z"/><path class="i" d="M339.02,153.6c.45-4.44,.89-9.22,1.26-13.69,.3-3.62,.56-7.01,.73-9.85-6.2,6.86-15.59,11.81-29.75,13.16h-.01c-12.32,1.19-21.69-2.77-28.85-9.63,.04,2.13-.04,4.52-.2,7.02-.1,1.44-.22,2.92-.35,4.38,13.73,7.37,35.64,14.35,57.18,8.6Z"/><path class="i" d="M423.56,368.41c-7.13-3.52-4.56-33.25-4.56-33.25l108,54s-89.83-13.77-103.44-20.75Z"/><path class="b" d="M264.73,95.83l88.54,4.13s3.18-8.92,3.36-16.48c3.82-40.84-6.13-59.41-14.44-61.25-16.65-34.95-62.13-19.56-75.62-14.28,3.48-.61,2.25,3.55,7.52,7.98-5.27-2.38-15.34,.41-18.72,7.65-3.38,7.24-1.21,45.95,.55,55.31s8.78,16.95,8.78,16.95h.02Z"/><path class="v" d="M264.49,94.67l5.76,20.66s-1.44,3.37-10.05-1.17-7.69-25.72-4.49-28.17,4.72,2.32,8.79,8.68h0Z"/><path class="v" d="M350.88,117.3s5.43-2.26,8.27-9.52c5.09-13.85,1.83-23.99-.9-22.87s-3.61,5.42-4.89,8.12"/><path class="f" d="M353.31,80.02c-.48,13.18,3.3,41.17-13.31,55.72-6.47,5.67-16.02,9.3-30.12,9.23-12.28-.06-21.38-4.52-28.16-11.41-13.27-13.48-17.6-36.27-19.15-53.61-.91-10.14-.87-18.42-1.12-21.88,0,0-.92-16.66,6.72-27.65,9.02-12.97,63.5-3.89,73.35,1.07,7.76,3.92,11.04,20.43,11.75,36.22,.2,4.25,.2,8.44,.06,12.32h0Z"/><ellipse class="o" cx="298.73" cy="73.48" rx="5.2" ry="2.82" transform="translate(219.54 370.74) rotate(-88.9)"/><ellipse class="o" cx="323.23" cy="73.76" rx="3.01" ry="5.23" transform="translate(-1.24 5.68) rotate(-1)"/><path class="m" d="M312.94,77.91s-.66-2.02-1.41-.72c-1.13,1.96-4.96,24.76-4.71,26.38s6.92,.05,6.92,.05c2.68-.32,4.03-1.23,3.34-7.42s-1.29-8.25-4.14-18.27h0Z"/><path class="w" d="M281.87,64.66c.04,1.56,3.6-2.98,9.45-5.05s11.94,.96,6.85-2.83c-7.84-5.52-13.12,1.4-16.3,7.88h0Z"/><path class="w" d="M340.86,66.49c-.23,1.55-3.22-3.39-8.78-6.15-5.56-2.75-11.97-.48-6.47-3.63,8.45-4.55,12.86,2.96,15.25,9.76h0Z"/></svg>