<?xml version="1.0" encoding="utf-8"?>
<!-- Generator: Adobe Illustrator 26.1.0, SVG Export Plug-In . SVG Version: 6.00 Build 0)  -->
<svg version="1.1" id="Calque_1" xmlns="http://www.w3.org/2000/svg" xmlns:xlink="http://www.w3.org/1999/xlink" x="0px" y="0px"
	 viewBox="0 0 321.5 1125.7" style="enable-background:new 0 0 321.5 1125.7;" xml:space="preserve">
<style type="text/css">
	.st0{fill:#AB3345;}
	.st1{fill:#18203C;}
	.st2{fill:#232F51;}
	.st3{fill:#DB736D;}
	.st4{fill:#E3CF25;}
	.st5{fill:#E39B37;}
	.st6{fill:url(#SVGID_1_);}
	.st7{fill:#FED0BF;}
	.st8{fill:#FED9CD;}
	.st9{fill:#4A80AA;}
	.st10{fill:#5C90B8;}
	.st11{fill:#E8DDD8;}
	.st12{fill:#E8DDD9;}
	.st13{fill:#5E90B9;}
	.st14{fill:#5F91B9;}
	.st15{fill:url(#SVGID_00000106865115777460764740000003689159256306339007_);}
	.st16{fill:#9D5349;}
	.st17{fill:#D79783;}
	.st18{fill:url(#SVGID_00000076566973320042323070000010172030276582882434_);}
	.st19{fill:#DB937D;}
	.st20{fill:#7F93BB;}
	.st21{fill:#7B453B;}
	.st22{fill:#FFFFFF;}
	.st23{fill:#6547D9;stroke:#4D1BD9;stroke-width:0.1;stroke-miterlimit:10;}
	.st24{fill:#E1C119;}
</style>
<g id="a">
</g>
<g id="b">
	<path class="st0" d="M290.7,1103.3c-1.9-1.1-4-1.9-6-2.9c-0.5-0.3-1-0.5-1.6-0.8c-8.9-4.2-17.8-8.5-26.6-12.7c0-0.2,0-0.5,0.1-0.7
		c0.7-1.7-0.8-3.8-2.8-3.7c-1.2,0.1-1.9,0.9-2.7,1.7c-1.6-0.8-3.3-1.6-4.9-2.3c0-0.2,0-0.5,0.1-0.7c0.5-1.1-0.3-2.5-1.2-3.2
		c-0.8-0.7-2.1-0.7-3.1,0c-0.5,0.3-0.9,0.8-1.3,1.2c-1.6-0.8-3.3-1.6-4.9-2.3c0-0.4,0.1-0.8,0.1-1.2c0.1-1.4-0.4-2.3-1.7-2.9
		c-1-0.5-2.1-0.2-3.1,0.7c-0.3,0.3-0.6,0.5-0.9,0.7c-2.9-1.4-5.8-2.7-8.7-4.1c-0.9-0.4-1.5-0.3-2,0.6c-0.6,1.4-1.4,2.8-2,4.3
		c-0.8,2.1-0.6,4.1,0.7,5.9c-0.1,0.1-0.2,0.2-0.4,0.2c-6.3,2.8-12.6,2.7-18.7-0.6c-2.6-1.4-5.2-2.8-7.9-4.2c-1.7-0.8-3.3,0-3.7,1.8
		c-0.1,0.6-0.2,1.2-0.3,1.8c-0.2,1.2-0.5,2.3-0.8,3.5c-0.9,5-1.8,10-2.8,15c-0.2,0.8-0.3,1.7-0.5,2.5c-0.1,1.5-0.2,3.1-0.2,4.6
		s-0.2,3.1-0.2,4.6c-0.1,1.6-0.2,3.2-0.3,4.8l-0.1,0.9c1,2.9,3.1,3.9,6.1,4.1c33.6,1.8,67.3,3.7,100.9,5.5c3.3,0.2,4.5-0.5,5.9-3.4
		c0.1-2.8,0.3-5.6,0.5-8.4c0-0.9,0.1-1.8,0.1-2.7c-0.1-0.2-0.2-0.3-0.2-0.5C295.1,1107.5,293.5,1105,290.7,1103.3L290.7,1103.3z"/>
	<path class="st0" d="M197.5,1083.4c-0.6-2.1-1.4-4.2-2.2-6.3c-0.2-0.6-0.4-1.1-0.6-1.7c-3.3-9.3-6.6-18.6-9.8-27.8
		c0.2-0.1,0.3-0.3,0.5-0.4c1.7-0.7,2.1-3.2,0.6-4.6c-0.9-0.8-2-0.7-3.1-0.7c-0.6-1.7-1.2-3.4-1.9-5.1c0.2-0.1,0.3-0.3,0.5-0.4
		c1.1-0.4,1.5-2,1.4-3.1c-0.1-1.1-1.1-2-2.2-2.2c-0.6-0.1-1.2,0-1.7-0.1c-0.6-1.7-1.2-3.4-1.8-5.1c0.3-0.3,0.6-0.5,0.9-0.8
		c1.1-1,1.3-1.9,0.8-3.2c-0.4-1.1-1.3-1.7-2.7-1.7c-0.4,0-0.8-0.1-1.2-0.1c-1.1-3-2.2-6-3.3-9.1c-0.3-0.9-0.8-1.3-1.8-0.9
		c-1.5,0.6-3,1-4.4,1.6c-2.1,0.9-3.3,2.4-3.7,4.7c-0.1,0-0.3,0-0.4-0.1c-6.5-2.5-10.8-7-12.8-13.7c-0.9-2.8-1.7-5.7-2.6-8.5
		c-0.6-1.8-2.3-2.4-3.9-1.4c-0.5,0.3-1,0.7-1.5,1.1c-1,0.6-2,1.3-3,1.9c-4.2,2.9-8.4,5.8-12.6,8.7c-0.7,0.5-1.4,1-2.1,1.4
		c-1.2,1-2.3,2.1-3.4,3.1c-1.2,1-2.3,2.1-3.4,3.1c-1.2,1.1-2.4,2.2-3.6,3.2l-0.7,0.6c-1.4,2.8-0.6,5,1.4,7.2
		c22.5,25.1,45,50.1,67.5,75.2c2.2,2.4,3.6,2.8,6.6,1.8c2.1-1.9,4.2-3.7,6.2-5.6c0.7-0.6,1.3-1.2,2-1.8c0.1-0.2,0.1-0.3,0.2-0.5
		C197.7,1089.5,198.3,1086.6,197.5,1083.4L197.5,1083.4z"/>
	<g>
		<path class="st1" d="M216.1,890.5c2.2,17.8,11.4,167.8,11.4,167.8h-50.1c0,0-3.2-27.2-7.3-61.1l0,0L216.1,890.5L216.1,890.5z"/>
		<polyline class="st1" points="287.2,651.2 288.3,702.5 100.7,700.8 98.3,651.2 284.3,651.2 		"/>
		<polygon class="st2" points="231,1046.4 173.3,1048.4 176,1063.9 229,1061.8 		"/>
		<polygon class="st3" points="219.8,1062.2 219.8,1083.7 188.1,1083.7 185.7,1063.9 		"/>
		<polygon class="st3" points="179.7,1006.2 165.6,1022.5 141.7,1001.7 152.8,985.2 		"/>
		<path class="st2" d="M100.7,699.5c0,0,0,8.5,2.7,26.2s46.9,133.6,49.9,142.8c1.4,4.1,6.4,42.8,11.5,84.2
			c-4.7,9.2-8.5,16.9-11,21.7l12.5-9c1.3,10.8,2.6,21.6,3.9,31.8l0,0l21.5-50l74.2-53c11.2-16.4,19.5-28.5,20.8-30.6
			c4.8-7.8,0.3-90,1.6-164.1L100.7,699.5L100.7,699.5z M212.4,855.9c-4.3-40.8-11.1-104.3-14.9-130.2h0.1
			c3,13.1,21.1,112.5,21.1,112.5C218.2,840.2,216.1,847.8,212.4,855.9L212.4,855.9z"/>
		<path class="st1" d="M151,980c0,0,1-2,2.8-5.6l0,0l112.1-80.1c-29.7,43.3-80.4,116.7-80.4,116.7L151,980L151,980z"/>
		<polygon class="st2" points="198.9,1003.1 153.8,967 145.7,980.5 187.4,1013.4 		"/>
	</g>
	<path class="st4" d="M148.8,361.7c-26.6-8.4-110,98.9-111.9,122.9c-1.9,24.1,8.7,75.7,43,63.2c34.3-12.5,56.5-51.9,56.5-51.9
		S179.4,371.4,148.8,361.7L148.8,361.7z"/>
	<path class="st5" d="M227.6,671.5H87.8c1.6-69,4.8-121.5,14.9-173.5c5.5-11,21.5-36.6,37-63.1L227.6,671.5L227.6,671.5z"/>
	<path class="st5" d="M255.5,599.7c-29.6-21.3-40.3-65.3-40.3-65.3s-4.9-86.5,10.4-119.8c-6.4,39.1,16.3,80.6,16.3,80.6
		s-8.9,56.9,20.7,78.2c9.9,7.1,19.1,6.6,27.3,2c0.9,6.1,1.8,12.2,2.7,18.2C282.5,604.5,269.6,609.8,255.5,599.7L255.5,599.7z"/>
	<g>
		
			<linearGradient id="SVGID_1_" gradientUnits="userSpaceOnUse" x1="875.6" y1="573.8736" x2="832.9899" y2="574.2536" gradientTransform="matrix(-1 0 0 -1 1071.28 1126)">
			<stop  offset="0" style="stop-color:#DB937D"/>
			<stop  offset="1" style="stop-color:#DB736D"/>
		</linearGradient>
		<path class="st6" d="M241.5,532.3c-3-1.7-6.2-3.6-9.9-5.8c-1.1-0.7-1.7-0.8-2.4-0.5c-1.8-0.2-4.3-0.7-7.3-1.4l0,0
			c3.6,16.3,10.1,36.7,12.9,40.8c2.8,4.1,7.2,8.4,7.2,8.4l3.5,2c2.8,1.5,5.1,2.6,6.6,2.9c3,0.7,5.5-2.9,7.5-7.9
			C249.7,562,244.4,547.2,241.5,532.3L241.5,532.3z"/>
		<path class="st4" d="M247,375.6c-26-34.5-63.3-37.8-97.8-12.5c-13.4,9.8-28.3,63.7-40.9,128.3c5.5-11,15.9-30,31.4-56.4
			l85.4,236.6h76.3c-3.5-38.5-6.1-58-8.9-77.8c-10.1,10.8-23,16.1-37.1,6c-29.6-21.3-40.3-65.3-40.3-65.3s-4.9-86.5,10.4-119.8
			c-6.4,39.1,13.3,68.1,13.3,68.1s-2.1,25,2.6,49.6c2.8,14.9,8.2,29.6,18,38.6c1,0.9,2,1.8,3.1,2.5c9.9,7.1,19.1,6.6,27.3,2
			c10.3-5.9,18.8-18.3,24.4-30.7c3.3-7.3,5.7-14.5,6.9-20.4C326,500.6,274.9,374.7,247,375.6L247,375.6z"/>
	</g>
	<path class="st3" d="M279,461.1c3.2,5.9,3.8,6.9,5.3,10c1.3,2.5-26.2,42.8-44.3,33c-0.4-0.2-0.9-1.5-1.7-3.7
		c-0.9-2.7-2.1-6.9-3.5-12c3.7-0.8,9.1-2.4,15.5-5C259.7,479.5,273.6,466.4,279,461.1L279,461.1z"/>
	<path class="st4" d="M305.7,499.9c-11.9-18.7-21.4-36.8-21.4-36.8s-19.1,19.7-30.9,24.6c-11.8,4.9-20.6,5.9-20.6,5.9
		s9.1,46.4,14.3,55.3S305.7,499.9,305.7,499.9L305.7,499.9z"/>
	<g>
		<path class="st0" d="M187.2,1080.1c0.1-0.6,0.2-1.2,0.3-1.8c0.4-1.8,2-2.6,3.7-1.8c2.6,1.4,5.2,2.8,7.9,4.2
			c6.1,3.3,12.4,3.4,18.7,0.6c0.1-0.1,0.2-0.2,0.4-0.2c0.4-0.1,0.7-0.2,1-0.3c2.7-1.3,5.5-1.6,8.3-0.5c-0.1,0.3-0.2,0.7-0.3,1
			c-0.8,1.7-1.6,3.4-2.4,5.1c-0.8,1.8,0.6,3.7,2.6,3.8c1.4,0.1,2.2-0.7,2.8-1.8c0.9-1.8,1.8-3.7,2.8-5.5c1.7,0.8,3.3,1.6,5,2.4
			c-0.1,0.4-0.2,0.8-0.4,1.1c-0.7,1.6-1.6,3.2-2.2,4.8c-0.9,2.1,0.6,4.2,2.8,4c1.2-0.1,2-0.9,2.5-1.9c0.9-1.8,1.8-3.6,2.7-5.4
			c1.7,0.8,3.3,1.6,5,2.4c-0.8,1.8-1.6,3.6-2.4,5.4c-0.6,1.3-0.7,2.6,0.4,3.8c-0.2,0.2-0.4,0.4-0.6,0.6c-0.6,1.3-1.3,2.6-1.9,4
			c-1.2,2.9-4.1,5.1-7.9,4.8c-17.7-1-35.4-2-53.1-2.9l0.2-4.6c0.2-0.8,0.4-1.7,0.5-2.5c0.9-5,1.8-10,2.8-15c1.6,0.9,3.2,1.8,4.8,2.6
			c2.2,1.2,4.4,2.3,6.7,3.4c2.5,1.1,5.1,1.7,7.8,2.1c2.4,0.3,4.7,0.2,7.1-0.1c1.2-0.2,1.6-1,1.5-2.1c-0.2-0.9-1.1-1.4-2.1-1.3
			c-4.3,0.6-8.5,0.2-12.4-1.6C195.6,1084.6,191.4,1082.3,187.2,1080.1L187.2,1080.1z"/>
		<path class="st7" d="M295.3,1122.3c-1.4,2.9-2.6,3.6-5.9,3.4c-33.6-1.8-67.3-3.7-100.9-5.5c-2.9-0.2-5.1-1.2-6.1-4.1l0.1-0.9
			c32.9,1.8,65.8,3.6,98.7,5.4c2.7,0.2,5.3-1.4,5.2-4.6c1.4,0.1,2.7,0,4,0.2c2.3,0.3,4.1-0.3,5.4-2.4L295.3,1122.3L295.3,1122.3z"/>
		<path class="st8" d="M286.3,1116.1c0.1,3.2-2.5,4.7-5.2,4.6c-32.9-1.8-65.8-3.6-98.7-5.4l0.3-4.8c22.1,1.2,44.1,2.4,66.2,3.6
			c0.5,0,0.9,0,1.4,0c0.4,0,0.9,0.1,1.3,0.1c6.9,0.4,13.9,0.8,20.8,1.1C277.1,1115.5,281.7,1115.8,286.3,1116.1L286.3,1116.1z"/>
		<path d="M250.4,1114c-0.5,0-1,0-1.4,0c-22.1-1.2-44.1-2.4-66.2-3.6l0.2-4.6c17.7,1,35.4,1.9,53.1,2.9c3.8,0.2,6.6-1.9,7.9-4.8
			c0.6-1.3,1.2-2.7,1.9-4c0.1-0.2,0.4-0.4,0.6-0.6c2.1,1.3,3.6,0.9,4.8-1.4c0.9-1.8,1.8-3.5,2.6-5.2c3.6,2.3,4.3,5.2,2.4,9.1
			c-1.3,2.6-2.5,5.2-3.7,7.8L250.4,1114L250.4,1114z"/>
		<path class="st9" d="M250.4,1114c0.7-1.5,1.4-3,2.1-4.5c10.2,0.6,20.4,1.1,30.6,1.7c1.7,0.1,3.2-1,3.7-2.6c0.5-1.7,0.1-3.4-0.5-5
			c-0.4-1.1-1-2.1-1.5-3.2c2,1,4.1,1.8,6,2.9c2.8,1.6,4.4,4.2,5,7.4c0,0.2,0.1,0.3,0.2,0.5l-0.1,2.7c-1.2,2.1-3,2.7-5.4,2.4
			c-1.3-0.2-2.7-0.2-4-0.2c-4.6-0.3-9.2-0.5-13.9-0.8c-6.9-0.4-13.9-0.8-20.8-1.1C251.2,1114.1,250.8,1114,250.4,1114L250.4,1114z"
			/>
		<path class="st10" d="M284.7,1100.4c0.5,1.1,1,2.1,1.5,3.2c0.6,1.6,1,3.3,0.5,5c-0.5,1.6-2,2.7-3.7,2.6
			c-10.2-0.6-20.4-1.1-30.6-1.7c1.2-2.6,2.5-5.2,3.7-7.8c1.9-3.9,1.1-6.7-2.4-9.1c0.9-1.9,1.8-3.8,2.8-5.7
			c8.9,4.2,17.8,8.5,26.6,12.7C283.7,1099.9,284.2,1100.2,284.7,1100.4L284.7,1100.4z"/>
		<path class="st11" d="M233,1082.8c-0.9,1.8-1.9,3.7-2.8,5.5c-0.6,1.1-1.4,1.9-2.8,1.8c-2-0.1-3.3-1.9-2.6-3.8
			c0.7-1.7,1.6-3.4,2.4-5.1c0.1-0.3,0.2-0.7,0.3-1c0.9-1.8,1.8-3.7,2.7-5.5c0-0.1-0.1-0.2-0.2-0.4c0.3-0.2,0.6-0.5,0.9-0.7
			c1-0.9,2.1-1.2,3.1-0.7c1.3,0.6,1.8,1.4,1.7,2.9c0,0.4-0.1,0.8-0.1,1.2C234.9,1078.9,233.9,1080.8,233,1082.8L233,1082.8z"/>
		<path class="st11" d="M243.4,1087.7c-0.9,1.8-1.8,3.6-2.7,5.4c-0.5,1.1-1.3,1.8-2.5,1.9c-2.2,0.2-3.7-1.9-2.8-4
			c0.7-1.6,1.5-3.2,2.2-4.8c0.2-0.4,0.3-0.8,0.4-1.1c0.6-1.1,1.2-2.2,1.8-3.4c0.4-0.8,0.6-1.6,0.9-2.4c0.4-0.4,0.8-0.8,1.3-1.2
			c0.9-0.7,2.3-0.7,3.1,0c0.9,0.7,1.7,2.1,1.2,3.2c-0.1,0.2-0.1,0.4-0.1,0.7C245.2,1083.9,244.3,1085.8,243.4,1087.7L243.4,1087.7z"
			/>
		<path class="st12" d="M256.5,1086.9c-0.9,1.9-1.8,3.8-2.8,5.7c-0.9,1.7-1.8,3.5-2.6,5.2c-1.1,2.3-2.6,2.7-4.8,1.4
			c-1.1-1.2-1-2.4-0.4-3.8c0.8-1.8,1.6-3.6,2.4-5.4c0.9-1.9,1.8-3.9,2.7-5.8c0.8-0.7,1.4-1.6,2.7-1.7c2-0.1,3.5,2,2.8,3.7
			C256.5,1086.5,256.5,1086.7,256.5,1086.9L256.5,1086.9z"/>
		<path d="M187.2,1080.1c4.2,2.2,8.3,4.5,12.6,6.5c3.9,1.8,8.1,2.2,12.4,1.6c1.1-0.1,2,0.4,2.1,1.3c0.2,1-0.3,1.9-1.5,2.1
			c-2.3,0.3-4.7,0.5-7.1,0.1c-2.7-0.4-5.3-0.9-7.8-2.1c-2.3-1-4.5-2.2-6.7-3.4c-1.6-0.8-3.2-1.7-4.8-2.6
			C186.7,1082.4,187,1081.3,187.2,1080.1L187.2,1080.1z"/>
		<path class="st13" d="M230.2,1074.3c0.1,0.1,0.2,0.3,0.2,0.4c-0.9,1.8-1.8,3.7-2.7,5.5c-2.9-1.1-5.6-0.8-8.3,0.5
			c-0.3,0.2-0.7,0.2-1,0.3c-1.4-1.8-1.6-3.8-0.7-5.9c0.6-1.5,1.3-2.8,2-4.3c0.4-1,1.1-1.1,2-0.6
			C224.4,1071.6,227.3,1072.9,230.2,1074.3L230.2,1074.3z"/>
		<path class="st14" d="M251.1,1084.3c-0.9,1.9-1.8,3.9-2.7,5.8c-1.7-0.8-3.3-1.6-5-2.4c0.9-1.9,1.9-3.9,2.8-5.8
			C247.8,1082.7,249.5,1083.5,251.1,1084.3L251.1,1084.3z"/>
		<path class="st14" d="M240.7,1079.3c-0.3,0.8-0.6,1.6-0.9,2.4c-0.6,1.2-1.2,2.3-1.8,3.4c-1.7-0.8-3.3-1.6-5-2.4
			c0.9-1.9,1.9-3.8,2.8-5.8C237.5,1077.8,239.1,1078.5,240.7,1079.3L240.7,1079.3z"/>
	</g>
	<g>
		<path class="st0" d="M140.8,993.8c0.5-0.4,1-0.7,1.5-1.1c1.6-1,3.3-0.4,3.9,1.4c0.9,2.8,1.8,5.7,2.6,8.5c2,6.7,6.4,11.2,12.8,13.7
			c0.1,0,0.3,0.1,0.4,0.1c0.3,0.2,0.6,0.4,1,0.5c2.9,1,5,2.7,6.3,5.5c-0.3,0.2-0.6,0.4-1,0.5c-1.8,0.7-3.6,1.2-5.3,1.9
			c-1.8,0.8-2.2,3-0.9,4.5c0.9,1,2,1.1,3.2,0.7c1.9-0.7,3.9-1.3,5.8-1.9c0.6,1.7,1.2,3.5,1.9,5.2c-0.4,0.2-0.7,0.4-1.1,0.5
			c-1.7,0.6-3.3,1.1-5,1.8c-2.1,0.8-2.5,3.4-0.8,4.8c0.9,0.8,2,0.8,3.1,0.4c1.9-0.6,3.8-1.3,5.7-1.9c0.6,1.7,1.2,3.5,1.9,5.2
			c-1.8,0.7-3.7,1.4-5.5,2.1c-1.4,0.5-2.3,1.4-2.4,2.9c-0.3,0-0.6-0.1-0.9,0c-1.4,0.5-2.8,0.9-4.1,1.5c-2.9,1.2-6.5,0.7-9-2.1
			c-11.8-13.2-23.6-26.4-35.4-39.6l3.4-3.1c0.7-0.5,1.4-0.9,2.1-1.4c4.2-2.9,8.4-5.8,12.6-8.7c0.5,1.8,1,3.5,1.6,5.3
			c0.8,2.4,1.5,4.8,2.3,7.1c1,2.5,2.4,4.8,4.1,7c1.4,1.9,3.2,3.5,5.1,4.9c0.9,0.7,1.9,0.5,2.5-0.4c0.5-0.7,0.2-1.8-0.6-2.4
			c-3.4-2.6-6.1-5.8-7.6-9.8C143.5,1002.9,142.2,998.3,140.8,993.8L140.8,993.8z"/>
		<path class="st7" d="M187.4,1100c-3,1.1-4.4,0.7-6.6-1.8c-22.5-25.1-45-50.2-67.5-75.2c-2-2.2-2.8-4.4-1.4-7.2l0.7-0.6
			c22,24.5,44,49,65.9,73.6c1.8,2,4.8,2.8,6.9,0.5c0.9,1,1.9,1.9,2.7,3c1.4,1.9,3.1,2.7,5.5,2.1L187.4,1100L187.4,1100z"/>
		<path class="st8" d="M185.4,1089.3c-2.1,2.3-5.1,1.6-6.9-0.5c-22-24.5-44-49.1-65.9-73.6l3.6-3.2c14.8,16.5,29.5,32.9,44.3,49.4
			c0.3,0.3,0.7,0.7,1,1c0.3,0.3,0.6,0.7,0.8,1c4.6,5.2,9.3,10.3,13.9,15.5C179.3,1082.4,182.3,1085.9,185.4,1089.3L185.4,1089.3z"/>
		<path d="M161.4,1062.4c-0.3-0.3-0.7-0.7-1-1c-14.8-16.5-29.5-32.9-44.3-49.4l3.4-3.1c11.8,13.2,23.7,26.4,35.4,39.6
			c2.5,2.8,6,3.3,9,2.1c1.4-0.6,2.8-1,4.1-1.5c0.3-0.1,0.6,0,0.9,0c0.6,2.5,1.9,3.2,4.4,2.4c1.9-0.6,3.7-1.2,5.6-1.8
			c0.9,4.2-0.6,6.7-4.7,8.1c-2.7,0.9-5.4,1.9-8.2,2.9L161.4,1062.4L161.4,1062.4z"/>
		<path class="st9" d="M161.4,1062.4c1.6-0.6,3.1-1.1,4.6-1.7c6.8,7.6,13.6,15.2,20.5,22.8c1.1,1.2,2.9,1.6,4.4,0.8
			c1.6-0.9,2.5-2.3,3.2-3.9c0.5-1.1,0.8-2.2,1.2-3.3c0.7,2.1,1.6,4.2,2.2,6.3c0.8,3.1,0.1,6.1-1.7,8.7c-0.1,0.1-0.1,0.3-0.2,0.5
			l-2,1.8c-2.3,0.6-4.1-0.2-5.5-2.1c-0.8-1.1-1.8-2-2.7-3c-3.1-3.4-6.1-6.9-9.2-10.4c-4.6-5.2-9.3-10.3-13.9-15.5
			C162,1063.1,161.7,1062.8,161.4,1062.4L161.4,1062.4z"/>
		<path class="st10" d="M195.4,1077.2c-0.4,1.1-0.8,2.2-1.2,3.3c-0.7,1.6-1.6,3.1-3.2,3.9c-1.5,0.8-3.3,0.5-4.4-0.8
			c-6.8-7.6-13.6-15.2-20.5-22.8c2.7-1,5.4-2,8.2-2.9c4.1-1.4,5.6-3.9,4.7-8.1c2-0.7,4-1.4,6-2.1c3.3,9.3,6.6,18.6,9.8,27.8
			C195,1076,195.2,1076.6,195.4,1077.2L195.4,1077.2z"/>
		<path class="st11" d="M171.3,1028.1c-1.9,0.6-3.9,1.3-5.8,1.9c-1.2,0.4-2.3,0.3-3.2-0.7c-1.4-1.4-1-3.7,0.9-4.5
			c1.7-0.7,3.5-1.3,5.3-1.9c0.3-0.1,0.6-0.3,1-0.5c1.9-0.6,3.9-1.3,5.8-1.9c0.1,0,0.1-0.3,0.1-0.4c0.4,0,0.8,0.1,1.2,0.1
			c1.4,0,2.3,0.7,2.7,1.7c0.5,1.3,0.2,2.3-0.8,3.2c-0.3,0.3-0.6,0.5-0.9,0.8C175.3,1026.7,173.3,1027.4,171.3,1028.1L171.3,1028.1z"
			/>
		<path class="st11" d="M175.1,1038.9c-1.9,0.6-3.8,1.2-5.7,1.9c-1.1,0.4-2.2,0.4-3.1-0.4c-1.7-1.4-1.3-4,0.8-4.8
			c1.6-0.7,3.3-1.2,5-1.8c0.4-0.1,0.7-0.3,1.1-0.5c1.2-0.4,2.4-0.7,3.6-1.2c0.8-0.3,1.6-0.7,2.4-1c0.6,0,1.2,0,1.7,0.1
			c1.1,0.2,2.1,1.1,2.2,2.2c0.1,1.1-0.3,2.7-1.4,3.1c-0.2,0.1-0.4,0.3-0.5,0.4C179.1,1037.5,177.1,1038.2,175.1,1038.9L175.1,1038.9
			z"/>
		<path class="st12" d="M184.9,1047.6c-2,0.7-4,1.4-6,2.1c-1.9,0.6-3.7,1.2-5.6,1.8c-2.4,0.8-3.8,0.1-4.4-2.4c0.1-1.6,1-2.4,2.4-2.9
			c1.9-0.7,3.7-1.4,5.5-2.1c2-0.7,4-1.5,6.1-2.2c1.1,0.1,2.2-0.1,3.1,0.7c1.5,1.3,1.1,3.9-0.6,4.6
			C185.3,1047.3,185.1,1047.5,184.9,1047.6L184.9,1047.6z"/>
		<path d="M140.8,993.8c1.4,4.5,2.7,9.1,4.4,13.5c1.5,4,4.2,7.2,7.6,9.8c0.8,0.6,1.1,1.7,0.6,2.4c-0.6,0.9-1.6,1.1-2.5,0.4
			c-1.9-1.4-3.6-3-5.1-4.9c-1.6-2.2-3.1-4.4-4.1-7c-0.9-2.3-1.6-4.7-2.3-7.1c-0.6-1.8-1.1-3.5-1.6-5.3
			C138.8,995.1,139.8,994.5,140.8,993.8L140.8,993.8z"/>
		<path class="st13" d="M175.3,1020.1c-0.1,0.1-0.1,0.4-0.1,0.4c-1.9,0.7-3.9,1.3-5.8,1.9c-1.2-2.8-3.4-4.5-6.3-5.5
			c-0.3-0.1-0.6-0.3-1-0.5c0.3-2.3,1.6-3.8,3.7-4.7c1.4-0.6,3-1.1,4.4-1.6c1-0.4,1.5,0,1.8,0.9
			C173.1,1014,174.2,1017.1,175.3,1020.1L175.3,1020.1z"/>
		<path class="st14" d="M183,1041.9c-2,0.7-4,1.5-6.1,2.2c-0.6-1.7-1.2-3.5-1.9-5.2c2-0.7,4.1-1.4,6.1-2.1
			C181.8,1038.5,182.4,1040.2,183,1041.9L183,1041.9z"/>
		<path class="st14" d="M179.2,1031.1c-0.8,0.3-1.6,0.8-2.4,1c-1.2,0.4-2.4,0.8-3.6,1.2c-0.6-1.7-1.2-3.5-1.9-5.2
			c2-0.7,4.1-1.4,6.1-2.1C178,1027.7,178.6,1029.4,179.2,1031.1L179.2,1031.1z"/>
	</g>
	
		<linearGradient id="SVGID_00000153687122455204271960000007238126132660793985_" gradientUnits="userSpaceOnUse" x1="806.8" y1="591.9394" x2="981.27" y2="591.9394" gradientTransform="matrix(-1 0 0 -1 1071.28 1126)">
		<stop  offset="0" style="stop-color:#DB937D"/>
		<stop  offset="1" style="stop-color:#DB736D"/>
	</linearGradient>
	<path style="fill:url(#SVGID_00000153687122455204271960000007238126132660793985_);" d="M107.1,492.4c2.4-1.5,37.1,7.9,49.3,11.3
		c10.2,2.8,47.3,16.4,65.4,20.9l0,0c3.6,16.3,10.1,36.7,12.9,40.8c2.8,4.1,7.2,8.4,7.2,8.4l3.5,2c-10.2-5.6-26.5-17.3-28.4-21.1
		c-1.3-2.6-2.4-6.9-2-11.3c-32.8-0.3-117.7,4.6-120.6,1.9C80.1,530.6,104.7,493.9,107.1,492.4L107.1,492.4z"/>
	<path class="st4" d="M127.2,488.8c-27.6-4.4-90.6-9.6-89.7,4.3c0.9,13.9,8.9,59.6,35.8,59.4s45.1,0.6,45.1,0.6
		S140.2,531.1,127.2,488.8L127.2,488.8z"/>
	<path class="st5" d="M279,461.1c8.7,6.2,18.3,13.4,24.7,23.5c6.4,10.1,11.2,22.5,7.4,20.5s-3.5-7.8-11.1-13.5
		C290.8,484.7,279,461.1,279,461.1L279,461.1z"/>
	<path class="st5" d="M64.8,486.3c10.2-3.2,22.2-7.7,34-6.6c11.9,1,24.8,4.7,20.8,6.5s-8,0.4-17.5,0.7
		C92.7,487.1,64.8,486.3,64.8,486.3L64.8,486.3z"/>
	<path class="st16" d="M256.4,303.3c0,0,8.9-5.3,13.2-13.8s17.4-45,16.2-52.9S275.7,223.2,270,224c6.3-2.8,6.3-7.1,9.5-5.5
		c-11.5-8.9-50.7-36.5-76.6-7.7c-8.5-0.6-23.3,14.4-31.2,54.7c-2,7.3-1.4,16.8-1.4,16.8L256.4,303.3L256.4,303.3z"/>
	<path class="st17" d="M256.9,302.2c5.7-5,8.5-9.1,10.9-5.8s-2.7,23.8-12.3,25.8s-10-1.7-10-1.7L256.9,302.2L256.9,302.2z"/>
	<path class="st17" d="M172.2,275.5c-0.5-3-0.1-7.3-2.4-9.2s-8.3,7-7.3,21.7c0.7,7.8,5.2,11.5,5.2,11.5"/>
	<g>
		
			<radialGradient id="SVGID_00000104678082606108143080000014169735349859526335_" cx="168.6019" cy="1174.2469" r="31.33" gradientTransform="matrix(0.9738 0.268 0.1258 -0.5566 -111.0772 945.5347)" gradientUnits="userSpaceOnUse">
			<stop  offset="1.000000e-02" style="stop-color:#DB746D"/>
			<stop  offset="0.44" style="stop-color:#DB756D"/>
			<stop  offset="1" style="stop-color:#DB937D"/>
		</radialGradient>
		<path style="fill:url(#SVGID_00000104678082606108143080000014169735349859526335_);" d="M199.2,335.1
			c-13.6-4.3-21.7-11.2-26.3-19.2c-0.4,2.8-0.9,6.2-1.4,9.8c-1.5,11.1-2.9,24.2-3.2,29.1c-0.4,8.7,57.6,9.8,57.9,4.1
			c0.2-3.7,0.8-12.4,1.9-20.1c0.4-2.5,0.8-4.8,1.3-6.9C221,337,211,338.9,199.2,335.1L199.2,335.1z"/>
		<path class="st19" d="M175.9,263.1c1-3.8,2.1-7.8,3.5-11.8c5.1-14.9,13-29.9,21.5-31.4c10.9-2,65.7,4.7,70.7,19.7
			c4.2,12.7-1.4,28.4-1.4,28.4c-1.2,3.2-3.5,11.2-7.3,20.7c-6.4,16.2-17,36.8-33.5,46c-8.4,4.7-18.4,6.4-30.2,3
			c-13.6-3.9-21.7-10.1-26.3-17.4C161.1,301.6,172.6,275.8,175.9,263.1L175.9,263.1z"/>
	</g>
	<ellipse transform="matrix(0.2997 -0.954 0.954 0.2997 -100.0204 402.855)" class="st20" cx="224.4" cy="269.6" rx="5.2" ry="3"/>
	<ellipse transform="matrix(0.2997 -0.954 0.954 0.2997 -109.6137 377.0169)" class="st20" cx="202" cy="263.2" rx="5.2" ry="3"/>
	<path class="st3" d="M209,268.7c-6.8,7.9-8.2,9.5-11.4,14.9s-2.4,6.7-0.1,8.1c0,0,5.4,4.2,6.3,2.9s7-23.7,6.8-25.9
		C210.5,267.2,209,268.7,209,268.7L209,268.7z"/>
	<path class="st21" d="M238.8,270.7c-3.4-6.4-8.9-13.1-16.6-7.3c-4.9,4,1,0.7,6.9,2.6S238.9,272.2,238.8,270.7L238.8,270.7z"/>
	<path class="st21" d="M189.8,253c4.2-5.9,10.6-11.8,17.4-5.1c4.4,4.6-1.1,0.6-7.2,1.6S189.5,254.6,189.8,253L189.8,253z"/>
	<path class="st17" d="M181.2,327.6c1.2-7,22.7-3.1,30.3-1.1c7.6,2,5.8,10.2,10.4,39.6c0.1,1,0.1,1.5-0.1,2
		c3,10.2,17.5,28.2,24.1,39.1c3.6,5.9,26.7,42.1,31.8,51.6c0.4,0.8,0.8,1.5,1.2,2.2c-5.4,5.3-19.3,18.5-28.7,22.3
		c-6.3,2.6-11.8,4.1-15.5,5c-8.8-32.9-25.3-106.6-29.8-112.5l0,0c-6.3,0.2-12.1-3.9-14.7-6.8C186.7,365.1,180.1,334.7,181.2,327.6
		L181.2,327.6z"/>
	<g>
		<circle class="st22" cx="183.9" cy="203.9" r="12.7"/>
		<circle class="st22" cx="163.2" cy="168.6" r="20.7"/>
		<circle class="st22" cx="119.8" cy="84.4" r="89.6"/>
		<path class="st23" d="M121.5,43.4c2.1-0.8,3.5-2.6,4-4.7l3.3-1.3l7.1,17.8l-17.8,7.1l1.3,3.3c2.1,0.5,3.8,1.9,4.7,4
			c1.4,3.4-0.3,7.3-3.7,8.6c-3.4,1.4-7.3-0.3-8.6-3.7c-0.8-2.1-0.5-4.4,0.6-6.1l-1.3-3.3l-17.8,7.1l-7.1-17.8l3.3-1.3
			c1.8,1.2,4,1.5,6.1,0.6c3.4-1.4,5.1-5.2,3.7-8.6c-1.4-3.4-5.2-5-8.6-3.7c-2.1,0.8-3.5,2.6-4,4.7l-3.3,1.3l-7.1-17.8l17.8-7.1
			L93,19.7c-2.1-0.5-3.8-1.9-4.7-4c-1.4-3.4,0.3-7.3,3.7-8.6s7.3,0.3,8.6,3.7c0.8,2.1,0.5,4.4-0.6,6.1l1.1,2.8l17.7-7.1l7.1,17.8
			l-3.3,1.3c-1.8-1.2-4-1.5-6.1-0.6c-3.4,1.4-5.1,5.2-3.7,8.6S118.1,44.7,121.5,43.4L121.5,43.4z"/>
		<path class="st23" d="M149.7,92.4l-2.9,1l1.9,5.5l2.9-1c1.1,2.2,2.5,4.3,4.3,6.2l-1.9,2.4l4.5,3.7l1.9-2.4c2.2,1.4,4.5,2.4,7,3
			l-0.4,3.1l5.7,0.7l0.4-3c2.5,0,5.1-0.4,7.5-1.2l1.3,2.8l5.2-2.4l-1.3-2.8c1.5-0.9,2.9-2.1,4.3-3.4c0.5-0.5,1-1.1,1.4-1.6l2.6,1.7
			l3.1-4.8l-2.6-1.7c1.1-2.3,1.9-4.8,2.2-7.2l3.1,0l0.1-5.8l-3.1,0c-0.3-2.5-0.9-5-2-7.3l2.6-1.6l-3-4.9l-2.6,1.6
			c-0.6-0.7-1.2-1.4-1.9-2.1c-1.1-1.2-2.4-2.2-3.7-3l1.4-2.7l-5.2-2.6l-1.4,2.8c-2.4-0.9-4.9-1.3-7.4-1.4l-0.3-3.1l-5.7,0.6l0.3,3.1
			c-3.3,0.7-6.5,2.2-9.4,4.4l-2.2-2.2l-4.1,4l2.1,2.2c-1.6,2-2.9,4.3-3.7,6.6l-3-0.7l-1.3,5.6l3,0.7C149,87.3,149.2,89.9,149.7,92.4
			L149.7,92.4z M159.4,87.5c0-7.6,6.1-13.7,13.7-13.7s13.7,6.1,13.7,13.7s-6.1,13.7-13.7,13.7S159.4,95.1,159.4,87.5z"/>
		<g>
			<path class="st24" d="M160.1,139.2L160.1,139.2L160.1,139.2L160.1,139.2c0,0,0.1,0.1,0.1,0.1c0,0,0,0,0.1,0.1l0,0
				c0,0,0.1,0.1,0.2,0.1c0.1,0.1,0.1,0.1,0.2,0.1l0,0l0,0l0,0l0,0l0,0l0,0l0,0c0,0,0,0,0.1,0c0,0,0.1,0.1,0.2,0.1
				c0.1,0,0.2,0.1,0.2,0.1l0,0l0,0c0.1,0,0.2,0.1,0.3,0.1c0.1,0,0.2,0,0.3,0.1c0,0,0,0,0.1,0l0.1,0l0,0c0.1,0,0.2,0,0.3,0l0.1,0
				l0.1,0.1l-0.1,0.2l0,0l0,0l0,0l0,0l0,0l0,0l0,0l0,0l0,0l0,0l0,0l0,0l0,0l0,0l0,0l0,0l0,0l0,0l0,0l0,0l0,0l0,0l0,0l0,0l0,0
				c0,0,0,0,0,0.1l0,0.3l0,0l0,0l0,0l0,0l0,0l0,0l0,0l0,0l0,0l0,0l1.9,2.3l0,0l0,0c0,0,0,0,0,0.1l0,0c0,0,0,0,0,0l0,0c0,0,0,0,0,0
				l0,0c0,0,0,0,0.1,0l0,0l0,0l0,0l0.1,0c0,0,0,0,0,0c0,0,0,0,0,0l0.2,0l0,0l0.1,0l0,0l0.1,0l0.1,0l0.1,0l0,0l0,0c0,0,0.1,0,0.1,0
				l0,0c0,0,0.1,0,0.1,0l0,0l0,0c0,0,0.1,0,0.1,0l0,0c0.1,0,0.1,0,0.1,0l0,0l0,0c0,0,0.1,0,0.1,0l0.1,0c0,0,0.1,0,0.1,0l0,0l0,0
				c0,0,0.1,0,0.1,0l0.1,0c0,0,0.1,0,0.1,0l0,0l0,0c0,0,0.1,0,0.1-0.1l0,0c0.1,0,0.1-0.1,0.2-0.1l0,0c0.1,0,0.1,0,0.1-0.1l0,0
				c0,0,0.1,0,0.1-0.1l0,0c0,0,0.1,0,0.1-0.1l0,0l0.1,0c0,0,0.1,0,0.1-0.1l0.1,0c0,0,0.1,0,0.1-0.1l0,0c0,0,0.1-0.1,0.2-0.1l0,0
				l0.1,0l0.1-0.1l0.1,0l0.1-0.1l0.1,0l0.1-0.1l0.1,0l0,0l0.1,0l0.1,0c0,0,0.1,0,0.1-0.1l0.1,0c0.1,0,0.1-0.1,0.2-0.1l0,0
				c0.1,0,0.1-0.1,0.2-0.1l0,0l0.1,0c0,0,0.1-0.1,0.1-0.1l0.1,0l0.1-0.1l0.1,0l0.1-0.1l0.1,0l0.1,0l0.1,0l0.1,0
				c0.1,0,0.1-0.1,0.2-0.1l0.1,0c0.1,0,0.1-0.1,0.2-0.1l0.1,0l0.1-0.1l0,0l0.1-0.1l0.1-0.1l0.1-0.1l0.1-0.1l0.1-0.1l0.1-0.1l0.1-0.1
				l0,0l0.1-0.1l0.1-0.1l0.1-0.1l0.1-0.1c0.1,0,0.1-0.1,0.2-0.1l0.1,0c0.1-0.1,0.2-0.1,0.2-0.2l0.1,0c0.1,0,0.1-0.1,0.2-0.1l0.1-0.1
				l0.1-0.1l0.1-0.1l0.1-0.1l0.1-0.1l0.1-0.1l0,0c0.1,0,0.1-0.1,0.2-0.1l0.1-0.1c0.1-0.1,0.1-0.1,0.2-0.2l0.1,0l0,0
				c0.1-0.1,0.3-0.2,0.4-0.3l0,0l0,0c0.1-0.1,0.2-0.2,0.3-0.3l0,0l0,0c0.1-0.1,0.2-0.2,0.3-0.2l0,0l0,0c0.1-0.1,0.2-0.2,0.3-0.3l0,0
				l0.2-0.1c0.1-0.1,0.1-0.1,0.2-0.2l0,0l0,0l0.1-0.1c0,0,0.1-0.1,0.1-0.1l0.1-0.1l0,0l0,0l0.1-0.1l0.1-0.1c0,0,0.1-0.1,0.1-0.1l0,0
				l0,0l0.1-0.1c0,0,0.1-0.1,0.1-0.1l0.1-0.1l0.1,0l0,0l0,0l0.1,0l0.1-0.1l0.1-0.1l0.1-0.1l0,0l0,0l0,0l0,0l0.1-0.1l0.1-0.1l0.1,0
				l0.1-0.1l0.1,0l0,0l0.1,0l0.1-0.1l0.1-0.1l0.1,0l0.1-0.1l0.1,0l0,0l0.1,0l0.1-0.1l0.1-0.1l0.1,0l0.1-0.1l0.1,0l0,0l0.1,0l0.1-0.1
				l0.1-0.1l0,0l0.1-0.1l0.1-0.1l0,0l0,0l0.1-0.1l0,0l0.1-0.1l0,0l0.1-0.1l0.1-0.1l0,0l0,0l0.1-0.1l0.1-0.1l0,0l0.1-0.1l0.1-0.1l0,0
				l0,0l0,0l0,0l0.1-0.1l0,0l0.1-0.1l0.1-0.1l0.1-0.1l0,0l0,0l0.1-0.1l0.1-0.1l0,0l0,0l0,0l0.1-0.1l0.1-0.1l0,0l0,0l0,0l0.1-0.1
				l0.1-0.1l0.1-0.1l0,0l0.1-0.1l0.1-0.1l0.1-0.1l0,0l0,0l0,0l0.1-0.1l0,0l0,0l0.1-0.1l0.1-0.1l0,0l0,0l0.1-0.1l0.1-0.1l0,0l0,0l0,0
				l0.1-0.1l0,0l0,0l0.1-0.1l0,0l0,0l0.1-0.1l0,0l0,0l0.1-0.1l0,0l0,0l0,0l0.1-0.1l0,0l0,0l0-0.1l0-0.1l0,0l0,0l0,0l0.1,0l0,0l0,0
				l0,0l0,0l0,0l0,0l0,0l0,0l0,0l0-0.1l0,0l0,0l0,0l0,0l0,0l0,0l0,0l0,0l0,0l0,0l0,0l0,0l0,0l0,0l0,0l0,0l0,0l0,0l0,0l0,0l0,0l0,0
				l0,0l0,0l0,0l0,0l0,0l0,0l0,0l0,0l0,0l0,0l0,0l0,0l0,0l0,0l0,0l0,0l0,0l0,0l0,0l0,0l0,0l0,0l0,0l0,0l0,0l0,0l0-0.1l0,0l0-0.1l0,0
				l0-0.1c0,0,0,0,0,0c0,0,0,0,0,0l0-0.1l0,0l0,0l0,0l0,0l0,0l0,0l0,0l0,0l0,0l0,0l-1.9-2.3l0,0l0,0c0,0,0,0,0-0.1l0,0c0,0,0,0,0,0
				l0,0l0,0l0,0l0,0l0,0l0,0l0,0l0,0l0,0l0,0l0,0l0,0l0,0l0,0l0,0l0,0l0,0l0,0l0,0l0,0l0,0l0,0l0,0l0,0l0,0l0,0c0,0,0,0,0,0l0,0l0,0
				l0,0l0,0l0,0l0,0l0,0l-0.1,0l0,0l-0.1,0l0,0l0,0l0,0l-0.1,0l0,0l0,0l0,0l0,0l0,0l0,0l0,0l0,0l0,0l0,0l0,0l0,0l0,0l0,0l0,0l0,0
				l0,0l0,0l0,0l-0.2,0.1l0,0c0-0.1,0-0.2,0-0.3c0-0.1,0-0.2,0-0.3l0,0c0-0.2,0-0.4,0-0.5l0,0c0-0.2-0.1-0.3-0.1-0.5l0,0l0,0.1
				l0-0.1l0,0l0,0l0-0.1c0,0,0,0,0-0.1l0,0l0,0c-0.1-0.2-0.2-0.3-0.3-0.5l0,0c0,0,0-0.1-0.1-0.1c0,0,0-0.1-0.1-0.1l0,0
				c0,0-0.1-0.1-0.1-0.1l0,0l0,0l0,0c0,0-0.1-0.1-0.1-0.1c-0.1-0.1-0.2-0.2-0.3-0.3l0,0l0,0l0,0l0,0c0,0,0,0-0.1,0l0,0
				c0,0,0,0-0.1-0.1l0,0c-0.1-0.1-0.3-0.2-0.4-0.2c-0.1-0.1-0.2-0.1-0.3-0.2c0,0-0.1,0-0.1,0c0,0,0,0-0.1,0
				c-0.1-0.1-0.3-0.1-0.5-0.2l0,0l0,0l0,0l0,0c-0.2-0.1-0.3-0.1-0.5-0.1c-0.8-0.2-1.6-0.2-2.3-0.2c-0.1,0-0.2,0-0.3,0l-0.1,0l0,0
				l-0.2,0c0,0-0.1,0-0.1,0l0,0l0,0l0,0c-0.1,0-0.2,0-0.3,0l0,0l0,0c0,0-0.1,0-0.2,0l-2-2.4l0,0l0,0c0,0,0,0,0,0l0,0l0,0l0,0l0,0
				l0,0l0,0l0,0l0,0l0,0l0,0l0,0l0,0l0,0l0,0l0,0l0,0l0,0l0,0l0,0l0,0l0,0c0,0,0,0,0,0c0,0,0,0,0,0l0,0l-0.1,0l0,0l0,0l0,0l0,0l0,0
				l-0.1,0l0,0l-0.1,0l0,0l-0.1,0l0,0l0,0l0,0l0,0l0,0l0,0l0,0l0,0l0,0l0,0l0,0l0,0l0,0l0,0l0,0l0,0l0,0l0,0l0,0l0,0l0,0l0,0l0,0
				l0,0l0,0l0,0l0,0l0,0l0,0l0,0l0,0l-0.5,0.2l0,0l0,0l-0.1,0l0,0l-0.1,0l0,0l0,0l0,0c-0.1-0.1-0.2-0.1-0.3-0.2
				c-1.7-1-2.4-1.5-2.9-1.8c-0.2-0.1-0.5-0.3-0.7-0.4l-0.1,0c-0.1-0.1-0.2-0.1-0.3-0.2l0,0l-0.3-0.2L164,117l-0.2-0.1l-0.1-0.1
				c-0.7-0.5-1.4-0.9-2-1.4c-0.6-0.4-1.1-0.8-1.5-1.2c-0.1-0.1-0.2-0.2-0.2-0.2c0,0,0-0.1-0.1-0.1l0,0c0.2-0.2,0.4-0.4,0.6-0.6l0,0
				c0.1-0.1,0.2-0.2,0.3-0.3c0,0,0.1-0.1,0.1-0.2l0,0c0.1-0.1,0.2-0.2,0.2-0.3c0,0,0.1-0.1,0.1-0.1l0,0l0,0l0,0
				c0.1-0.1,0.1-0.1,0.1-0.2l0,0c0,0,0.1,0,0.1-0.1c0.1-0.1,0.1-0.2,0.2-0.2c0,0,0,0,0.1-0.1c0.1-0.1,0.1-0.1,0.1-0.2l0,0l0,0l0,0
				c0.1-0.1,0.1-0.2,0.2-0.2l0,0l0,0l0,0c0,0,0,0,0.1-0.1l0,0l0,0l0,0c0.1-0.1,0.1-0.2,0.1-0.3l0,0c0,0,0,0,0-0.1l0,0
				c0-0.1,0.1-0.1,0.1-0.2l0,0c0,0,0-0.1,0-0.1l0,0c0,0,0-0.1,0-0.2c0-0.2,0-0.3,0-0.5c0,0,0-0.1,0-0.1l0,0
				c-0.1-0.3-0.2-0.5-0.5-0.8c-0.1-0.2-0.3-0.3-0.5-0.5c0,0-0.1-0.1-0.2-0.1l0,0l0,0l0,0l0,0l0,0l0,0l0,0l0,0l0,0l0,0l0,0l0,0l0,0
				l0,0l0,0l0,0l0,0l0,0l0,0l0,0l0,0l0,0l0,0l0,0l0,0l0,0l0,0l0,0l0,0l0,0l0,0l0,0l0,0l0,0l0,0l0,0l0,0l0,0l0,0l0,0l0,0l0,0l0,0l0,0
				l0,0l0,0l0,0l0,0l0,0l0,0l0,0l0,0l0,0l0,0l0,0l0,0l0,0l0,0l0,0l0,0l0,0l0,0l0,0l0,0l0,0l0,0l0,0l0,0l0,0l0,0l0,0l0,0l0,0l0,0l0,0
				l0,0l0,0l0,0l-2.4,0.6l-0.1,0l-0.2,0l-0.6,0.1L157,109l-0.1,0l-0.1,0l-0.1,0l0,0l-0.2,0l-0.4-0.4l0-0.1c0,0,0-0.1,0-0.1l0,0l0,0
				l0,0l0-0.1l0,0c0-0.1,0.1-0.2,0.1-0.2c0,0,0-0.1,0-0.1l0,0c0-0.1,0.1-0.2,0.1-0.3l0-0.1l0,0l0-0.1l0-0.1l0-0.1c0,0,0-0.1,0-0.1
				l0,0c0-0.1,0-0.2,0.1-0.3l0-0.1c0-0.3,0.1-0.5,0.1-0.8l0,0c0,0,0-0.1,0-0.1c0,0,0-0.1,0-0.1l0,0c0-0.4,0-0.8-0.1-1.2l0,0
				c0,0,0-0.1,0-0.1l0-0.1c0,0,0-0.1,0-0.1l0,0c0,0,0-0.1,0-0.1l0,0l0,0l0-0.1l0,0l0,0c0,0,0-0.1,0-0.1l0,0
				c-0.1-0.3-0.2-0.6-0.3-0.8c0-0.1,0-0.1-0.1-0.2c0,0,0-0.1,0-0.1c0-0.1-0.1-0.2-0.2-0.4c-0.2-0.5-0.5-0.9-0.8-1.3l0,0
				c0-0.1-0.1-0.1-0.1-0.2c-1.3-1.7-3.4-2.9-5.5-3.2c-0.4-0.1-0.9-0.1-1.6,0c-0.6,0-1.2,0.2-1.9,0.4c-0.1,0-0.3,0.1-0.4,0.1l0,0l0,0
				l0,0c-0.1,0-0.1,0.1-0.2,0.1l0,0l0,0l0,0l-0.1,0l-0.1,0l-0.1,0l-0.1,0l-0.1,0c-0.1,0-0.1,0.1-0.2,0.1l0,0c0,0-0.1,0-0.1,0.1l0,0
				c-0.1,0-0.1,0.1-0.2,0.1l-0.1,0l-0.1,0c0,0-0.1,0-0.1,0.1l0,0l-0.1,0c-0.5,0.3-1,0.7-1.5,1.3l0,0c-0.1,0.1-0.1,0.1-0.2,0.2l0,0
				l-0.1,0l0,0c0,0,0,0.1-0.1,0.1l0,0l0,0l0,0c-0.1,0.1-0.1,0.1-0.2,0.2c-0.1,0.1-0.2,0.2-0.2,0.3l0,0c-0.1,0.1-0.1,0.1-0.1,0.2
				l0,0.1l0,0c0,0-0.1,0.1-0.1,0.1l0,0c-0.1,0.1-0.1,0.1-0.1,0.2c-0.1,0.1-0.1,0.3-0.2,0.4c0,0,0,0.1-0.1,0.1c0,0.1-0.1,0.2-0.1,0.3
				c0,0,0,0.1-0.1,0.1c-0.2,0.5-0.5,1.2-0.6,2l0,0.1l0,0l0,0c0,0,0,0.1,0,0.1l0,0.1c0,0.3,0,0.6,0,0.9l0,0.1c0,0,0,0.1,0,0.1l0,0.1
				c0,0.1,0,0.4,0.1,0.9c0,0.1,0,0.2,0.1,0.3l0,0c0,0.2,0.1,0.4,0.1,0.5c0.1,0.2,0.2,0.6,0.3,0.9c0,0.1,0.1,0.2,0.1,0.3l0,0
				c0.1,0.2,0.2,0.3,0.2,0.5c0,0,0,0.1,0.1,0.1c0.1,0.2,0.3,0.4,0.4,0.7c0.1,0.1,0.2,0.2,0.2,0.3l0,0c0,0,0,0.1,0.1,0.1
				c0.1,0.1,0.2,0.2,0.3,0.3l0,0l0,0l0,0l0,0l0,0l0,0l0,0l0,0c0,0,0.1,0.1,0.1,0.1l0,0c0,0.1,0.1,0.1,0.1,0.1l0,0l0,0l0,0l0,0
				c0,0,0.1,0.1,0.1,0.1l0,0l0,0l0,0.1l0,0l0,0l0,0c0,0,0,0,0.1,0.1l0,0l0,0c0,0,0.1,0.1,0.1,0.1l0,0l0,0l0.1,0.1
				c0.1,0.1,0.2,0.2,0.3,0.2c0,0,0.1,0,0.1,0.1c0.1,0,0.1,0.1,0.2,0.1l0,0c0.2,0.1,0.4,0.3,0.6,0.4c0.1,0,0.1,0.1,0.2,0.1
				c0,0,0.1,0,0.1,0l0,0c0,0,0.1,0,0.1,0.1c0.1,0,0.1,0.1,0.2,0.1l0,0l0,0l0,0l0,0l0,0l0,0c0.1,0,0.2,0.1,0.3,0.1l0,0l0,0l0,0
				c0,0,0.1,0,0.1,0l0,0l0,0l0,0l0,0l0,0l0,0l0,0c0,0,0.1,0,0.1,0l0,0l0.1,0l0,0c0.7,0.2,1.3,0.3,1.8,0.3c0,0,0.1,0,0.1,0l0,0
				c0,0,0,0,0.1,0l0,0l0,0c0.2,0,0.4,0,0.8,0c0.2,0,0.3,0,0.4,0l0,0l0.1,0l0,0c0.1,0,0.1,0,0.2,0l0.4,0.4c-0.6,1.2-1.2,2.5-1.8,3.7
				l0,0l0,0l0,0l0,0l0,0l0,0l0,0l0,0l0,0l0,0l0,0l0,0l0,0.1l0,0l0,0.3l0,0l0,0l0,0l0,0l0,0l0,0l0,0l0,0l0,0c0.1,0.1,0.1,0.2,0.2,0.4
				c0,0,0,0,0,0.1l0,0l0,0l0,0l0,0l0,0c0,0.1,0.1,0.1,0.1,0.2c0,0,0,0,0,0.1c0,0,0,0.1,0.1,0.1l0,0l0,0c0.1,0.1,0.1,0.2,0.2,0.2l0,0
				c0,0,0,0,0.1,0.1l0,0c0.1,0,0.1,0.1,0.1,0.1l0,0l0,0l0,0l0,0l0,0c0.1,0,0.1,0.1,0.2,0.1l0,0c0,0,0,0,0,0l0,0c0,0,0,0,0.1,0l0,0
				l0,0c0,0,0.1,0,0.1,0l0,0c0.3,0.1,0.5,0.1,0.8,0l0,0c0.1,0,0.1,0,0.2,0l0,0l0,0l0,0c0,0,0.1,0,0.1,0c0.1,0,0.1,0,0.1,0l0,0l0,0
				l0,0c0,0,0.1,0,0.2-0.1l0,0c0,0,0.1,0,0.1,0l0,0c0,0,0.1,0,0.1-0.1l0.1,0c0.1,0,0.1-0.1,0.2-0.1l0,0l0,0l0,0
				c0.1-0.1,0.2-0.1,0.3-0.2l0,0l0,0l0,0c0.1,0,0.1-0.1,0.2-0.1c0.3-0.1,0.5-0.3,0.9-0.5c0.1-0.1,0.2-0.1,0.3-0.2l0,0l0.1-0.1
				c0.1-0.1,0.2-0.2,0.4-0.2c0,0.1,0.1,0.1,0.1,0.2c0,0,0.1,0.1,0.1,0.1c0.4,0.7,0.9,1.9,1.4,3.2l0.1,0.4l0,0l0.3,0.7l0,0.1l0.2,0.5
				c0.3,0.9,0.7,1.8,0.9,2.7c0.1,0.3,0.2,0.6,0.3,1c0,0.1,0.1,0.3,0.1,0.4c0.1,0.3,0.2,0.6,0.3,0.8l-0.5,0.7l0,0l0,0l0,0l0,0l0,0
				l0,0l0,0l0,0l0,0l0,0l0,0l0,0l0,0l0,0l0,0l0,0l0,0l0,0l0,0l0,0l0,0l0,0l0,0l0,0l0,0l0,0l0,0l0,0l0,0l0,0l0,0l0,0l0,0l0,0l0,0l0,0
				l0,0l0,0l0,0l0,0l0,0.1l0,0l0,0.1l0,0l0,0.2l0,0l0,0l0,0l0,0l0,0l0,0l0,0l0,0l2,2.4c0,0.1,0,0.1-0.1,0.2l0,0
				c0,0.1-0.1,0.2-0.1,0.3l0,0.1c-0.3,1-0.6,2.4-0.5,3.6l0,0c0,0,0,0.1,0,0.1c0,0.3,0.1,0.5,0.1,0.7c0,0,0,0.1,0,0.1l0,0
				c0,0.1,0.1,0.3,0.1,0.4l0,0.1l0,0c0,0,0,0.1,0,0.1l0,0l0,0c0,0.1,0.1,0.1,0.1,0.2c0,0,0,0.1,0.1,0.1l0,0l0,0l0,0l0,0l0,0
				c0,0,0,0.1,0.1,0.1l0,0l0,0c0,0,0,0,0,0.1l0,0l0,0l0,0.1l0,0l0,0l0,0L160.1,139.2z M163.8,116.6L163.8,116.6
				c-0.2-0.1-0.3-0.2-0.5-0.3c-0.1,0-0.1-0.1-0.2-0.1C163.3,116.3,163.6,116.4,163.8,116.6z M166,118L166,118L166,118z M166.1,118
				c0.1,0.1,0.2,0.1,0.4,0.2C166.3,118.2,166.2,118.1,166.1,118z"/>
			<polygon class="st24" points="161.5,107.9 161.5,107.9 161.5,107.9 			"/>
		</g>
		<path class="st23" d="M96,137.8L96,137.8L96,137.8L96,137.8C96,137.9,96,137.9,96,137.8c0,0.1,0,0.1,0,0.1l0,0c0,0,0,0.1,0,0.1
			c0,0.1,0,0.1,0,0.1v0l0,0v0.1h0v0.1c0,0,0,0.1,0,0.1c0,0.1,0,0.1,0,0.2v0l0,0c0,0.1,0,0.1,0,0.2c0,0.1,0,0.1,0.1,0.2v0l0,0.1v0
			l0,0c0,0,0,0.1,0.1,0.1l0,0l0,0.1h-0.3l0,0h0h-0.2l0,0h-0.1l0,0h-0.1v0h0v0h0v0h0v0h0v0h0v0h0v0h0v0h0v0l0,0l-0.8,1.7l0,0v0
			c0,0,0,0,0,0l0,0v0l0,0c0,0,0,0,0,0l0,0c0,0,0,0,0,0l0,0v0l0,0v0.1l0,0l0,0v0l0,0v0l0,0l0,0v0l0,0v0l0,0v0h0l0,0l0,0l0,0l0,0l0,0
			l0,0l0,0l0,0l0,0l0,0c0,0,0,0,0.1,0.1l0,0c0,0,0,0.1,0.1,0.1l0,0l0,0l0.1,0.1l0,0l0,0l0,0l0,0l0.1,0.1l0,0l0.1,0.1l0,0h0
			c0,0,0.1,0.1,0.1,0.1l0,0c0,0,0.1,0.1,0.1,0.1l0,0l0.1,0.1h0l0.1,0.1l0,0l0.1,0.1l0,0l0,0l0.1,0.1l0,0l0.1,0.1l0,0l0.1,0.1l0,0
			l0,0l0.1,0.1l0,0l0.1,0.1l0,0l0.1,0.1l0,0h0l0.1,0.1l0,0l0.1,0.1l0,0c0,0,0.1,0.1,0.1,0.1h0l0.1,0.1l0,0l0,0l0.1,0.1l0.1,0
			l0.1,0.1l0.1,0l0.1,0.1l0.1,0l0,0l0.1,0l0,0l0.1,0.1l0,0c0,0,0.1,0.1,0.1,0.1l0,0l0.1,0.1h0l0.1,0.1l0.1,0.1l0.1,0l0.1,0.1l0.1,0
			l0.1,0.1l0.1,0l0,0l0.1,0l0.1,0l0.1,0.1l0.1,0l0.1,0.1l0,0c0.1,0,0.1,0.1,0.2,0.1l0,0l0.1,0.1l0.1,0l0.1,0.1l0.1,0l0.1,0.1l0.1,0
			l0.1,0l0,0l0.1,0.1l0.1,0c0.1,0,0.1,0.1,0.2,0.1l0,0l0,0c0.1,0.1,0.2,0.1,0.3,0.1h0v0c0.1,0,0.2,0.1,0.3,0.1h0l0,0
			c0.1,0,0.1,0.1,0.2,0.1h0v0c0.1,0,0.2,0.1,0.2,0.1h0l0.1,0.1c0.1,0,0.1,0.1,0.2,0.1h0l0.1,0.1l0.1,0.1l0.1,0h0l0,0l0.1,0l0.1,0
			l0.1,0.1h0l0.1,0l0.1,0l0.1,0l0,0h0v0h0l0.1,0.1l0.1,0l0.1,0h0l0,0l0,0l0.1,0l0.1,0l0,0l0.1,0l0.1,0l0,0l0.1,0l0.1,0l0.1,0l0.1,0
			l0.1,0l0,0h0l0.1,0l0.1,0l0.1,0l0,0l0.1,0l0,0h0l0,0l0.1,0l0.1,0h0l0.1,0l0.1,0h0l0,0l0.1,0l0,0l0.1,0h0l0.1,0l0.1,0h0l0.1,0
			l0.1,0h0l0.1,0l0.1,0h0l0,0h0l0.1,0h0l0.1,0l0.1,0l0.1,0h0l0,0l0.1,0l0.1,0h0l0,0h0l0.1,0l0.1,0h0l0.1,0l0.1,0l0.1,0h0l0.1,0
			l0.1,0l0.1,0h0l0,0l0.1,0h0l0.1,0l0.1,0h0l0,0l0.1,0h0l0,0h0l0.1,0h0l0,0l0.1,0h0l0,0l0.1,0h0l0,0h0.1l0,0h0l0.1,0h0l0,0h0l0,0h0
			l0,0h0.1v0h0.1l0,0h0.1l0,0h0.1l0,0h0.1l0,0h0.1l0,0h0.1l0,0h0.1l0,0h0.2c0,0,0,0,0,0l0,0c0,0,0,0,0,0h0.2l0,0h0.1l0,0h0.1v0h0v0
			h0v0h0v0h0v0h0v0h0v0h0v0h0v0h0v0l0.8-1.7l0,0v0c0,0,0,0,0,0l0,0v0l0,0v0l0,0v0l0,0v0l0,0v0l0,0v0l0,0v0l0,0v0l0,0v0l0,0v0h0v0
			l0,0v0h0v0l0,0v0h0v0l0,0v0h0v0l0,0v0h0v0l0,0v0l0,0v0h0v0h0v0l0,0l0,0v0l0,0v0l0,0h0v0l0,0l0,0v0l0,0l0,0v0h0l-0.1-0.1v0
			c0.1,0,0.1-0.1,0.2-0.1c0.1,0,0.1-0.1,0.2-0.1l0,0c0.1-0.1,0.2-0.1,0.3-0.1h0c0.1-0.1,0.2-0.1,0.3-0.2l0,0l0,0l0,0h0v0l0.1-0.1
			l0,0l0,0l0,0c0.1-0.1,0.2-0.2,0.2-0.3v0c0,0,0,0,0-0.1s0,0,0-0.1v0c0,0,0-0.1,0-0.1l0,0v0h0c0,0,0-0.1,0-0.1
			c0-0.1,0.1-0.1,0.1-0.2l0,0v-0.1h0v-0.1l0,0v-0.1l0,0c0-0.1,0-0.2,0-0.3c0-0.1,0-0.2,0-0.2c0,0,0-0.1,0-0.1v-0.1
			c0-0.1,0-0.2-0.1-0.3l0,0v0l0,0c0-0.1,0-0.2-0.1-0.4c-0.1-0.5-0.3-1-0.5-1.4c0-0.1-0.1-0.1-0.1-0.2l0,0l0,0v0l0,0l0,0l0,0l0-0.1v0
			h0v0c0-0.1-0.1-0.1-0.1-0.1v0h0c0,0,0-0.1-0.1-0.1l0.9-1.8l0,0v0h0v0l0,0v0l0,0v0l0,0v0l0,0v0l0,0v0l0,0v0l0,0v0l0,0v0l0,0v0l0,0
			v0h0v0l0,0v0h0v0l0,0v0h0v0h0v0h0v0h0v0l0,0v0l0,0l0,0v0l0,0l0,0v0h0l0,0l0,0v0l0,0v0h0v0h0l0,0h0v0h0l0,0h0v0h0l0,0l0,0l0,0
			L110,138l0,0l0,0l0,0l0,0l0,0h0l0,0l0,0c0-0.1,0-0.2,0-0.3c0.1-1.2,0.2-1.8,0.2-2.2c0-0.2,0-0.4,0.1-0.5v0c0-0.1,0-0.2,0-0.3v0
			l0-0.2l0-0.2l0-0.1v-0.1c0.1-0.5,0.2-1.1,0.2-1.5c0.1-0.5,0.2-0.9,0.3-1.2c0-0.1,0.1-0.1,0.1-0.2l0-0.1l0,0
			c0.2,0.1,0.4,0.1,0.6,0.2h0c0.1,0,0.2,0.1,0.2,0.1c0,0,0.1,0,0.1,0l0,0c0.1,0,0.2,0.1,0.2,0.1c0,0,0.1,0,0.1,0h0c0,0,0.1,0,0.1,0
			h0l0.1,0c0.1,0,0.1,0,0.2,0h0.1c0.1,0,0.1,0,0.2,0h0c0.1,0,0.1,0,0.2,0h0.1c0.1,0,0.1,0,0.2,0h0.1c0,0,0.1,0,0.2,0h0
			c0,0,0,0,0.1,0l0,0c0,0,0.1,0,0.1,0c0.1,0,0.2-0.1,0.3-0.1c0,0,0,0,0.1-0.1l0,0v0c0.1-0.1,0.2-0.3,0.3-0.5
			c0.1-0.1,0.1-0.2,0.1-0.4c0,0,0-0.1,0-0.1l0,0v-0.1l0,0l0,0v0l0,0v0l0,0v0l0,0v0l0,0v0l0,0v0l0,0v0l0,0v0l0,0v0l0,0v0l0,0v0l0,0v0
			l0,0v0l0,0v0l0,0v0h0v0h0v0h0v0l0,0v0h0v0h0v0h0v0h0v0l0,0l-1-1.2l-0.1-0.1l-0.1-0.1l-0.2-0.3l-0.2-0.2l0,0l0,0l0,0l0,0l-0.1-0.1
			l0.2-0.3h0.1c0,0,0.1,0,0.1,0h0.1c0.1,0,0.1,0,0.2,0h0.1c0.1,0,0.1,0,0.2,0h0.1l0.1,0h0.1l0,0c0,0,0.1,0,0.1,0l0,0
			c0.1,0,0.1,0,0.2-0.1h0l0,0c0.2-0.1,0.3-0.1,0.5-0.2l0,0c0,0,0.1,0,0.1,0l0.1,0h0c0.2-0.1,0.4-0.2,0.7-0.4h0l0.1-0.1l0,0l0.1,0h0
			l0.1-0.1l0,0l0,0h0l0,0h0l0,0l0,0c0,0,0,0,0.1-0.1l0,0l0,0c0.2-0.1,0.3-0.2,0.4-0.4c0,0,0.1-0.1,0.1-0.1l0.1-0.1
			c0.1-0.1,0.1-0.1,0.2-0.2c0.2-0.3,0.4-0.6,0.6-0.8l0,0c0,0,0-0.1,0.1-0.1c0.7-1.2,0.8-2.8,0.3-4.1c-0.1-0.2-0.2-0.6-0.4-0.9
			c-0.2-0.3-0.4-0.7-0.8-1c-0.1-0.1-0.1-0.1-0.2-0.2l0,0v0h0c0,0-0.1-0.1-0.1-0.1l0,0h0l0-0.1l0,0l-0.1,0l0,0l0,0
			c0,0-0.1-0.1-0.1-0.1h0l-0.1-0.1l0,0c0,0-0.1-0.1-0.1-0.1l0,0l0,0l-0.1,0h0l0,0c-0.3-0.2-0.7-0.4-1.2-0.5l0,0
			c-0.1,0-0.1,0-0.2-0.1h0l-0.1,0h0c0,0-0.1,0-0.2-0.1c-0.1,0-0.2,0-0.2-0.1l0,0c-0.1,0-0.1,0-0.2,0h-0.1l-0.1,0h0
			c-0.1,0-0.1,0-0.1,0c-0.1,0-0.2,0-0.3,0h-0.1c-0.1,0-0.1,0-0.2,0c0,0-0.1,0-0.1,0c-0.4,0-0.8,0.1-1.3,0.2h0l0,0h0c0,0-0.1,0-0.1,0
			h0c-0.2,0.1-0.3,0.2-0.5,0.2l0,0l0,0l-0.1,0l0,0h0c-0.1,0-0.2,0.1-0.5,0.3c-0.1,0-0.1,0.1-0.2,0.1l0,0l0,0
			c-0.1,0.1-0.2,0.2-0.3,0.2c-0.1,0.1-0.3,0.3-0.5,0.4c0,0.1-0.1,0.1-0.1,0.2l0,0c-0.1,0.1-0.2,0.2-0.2,0.3l0,0.1
			c-0.1,0.1-0.2,0.3-0.3,0.4c0,0.1-0.1,0.2-0.1,0.2l0,0l0,0.1c0,0.1-0.1,0.2-0.1,0.3l0,0v0l0,0v0l0,0v0l0,0l0,0c0,0,0,0.1,0,0.1l0,0
			c0,0,0,0.1,0,0.1v0h0v0l0,0c0,0,0,0.1,0,0.1l0,0v0.1h0v0l0,0l0,0.1l0,0v0l0,0.1l0,0v0.1c0,0.1-0.1,0.2-0.1,0.3v0.1
			c0,0,0,0.1,0,0.1l0,0c0,0.2,0,0.3,0,0.5c0,0,0,0.1,0,0.1c0,0,0,0.1,0,0.1l0,0c0,0,0,0.1,0,0.1c0,0,0,0.1,0,0.1v0.1l0,0v0.1
			c0,0.1,0,0.1,0,0.2l0,0v0l0,0c0,0,0,0.1,0,0.1l0,0v0.1l0,0v0l0,0v0.1h0v0.1c0.1,0.4,0.2,0.8,0.3,1.2l0,0.1l0,0c0,0,0,0,0,0.1v0
			l0,0c0,0.1,0.1,0.2,0.2,0.4c0.1,0.1,0.1,0.2,0.1,0.2l0,0l0,0l0,0c0,0,0.1,0.1,0.1,0.1l-0.2,0.3c-0.9,0-1.8,0-2.6,0h-0.2v0h-0.1v0
			h0v0h0v0h0v0h0v0h0v0h0l0,0h0v0l0,0v0h0v0h0c-0.1,0.1-0.1,0.1-0.2,0.2l0,0l0,0v0l0,0v0l0,0c0,0-0.1,0.1-0.1,0.1l0,0
			c0,0,0,0.1,0,0.1l0,0c0,0.1-0.1,0.1-0.1,0.2l0,0l0,0.1l0,0c0,0,0,0.1,0,0.1v0.1l0,0v0l0,0c0,0,0,0.1,0,0.1l0,0c0,0,0,0,0,0
			c0,0,0,0,0,0c0,0,0,0,0,0.1l0,0v0l0,0c0,0,0,0.1,0,0.1l0,0c0,0.2,0.1,0.3,0.2,0.4l0,0c0,0,0.1,0.1,0.1,0.1l0,0l0,0
			c0,0,0,0.1,0.1,0.1c0,0,0,0.1,0.1,0.1h0v0l0,0c0,0,0.1,0,0.1,0.1l0,0c0,0,0,0,0.1,0.1l0,0c0,0,0.1,0.1,0.1,0.1l0.1,0
			c0,0,0.1,0.1,0.1,0.1h0v0h0c0.1,0.1,0.1,0.1,0.2,0.1h0l0,0c0,0,0.1,0.1,0.1,0.1c0.2,0.1,0.3,0.2,0.5,0.4c0.1,0,0.1,0.1,0.2,0.1h0
			l0.1,0.1c0.1,0,0.2,0.1,0.2,0.1c0,0,0,0.1-0.1,0.1c0,0,0,0.1-0.1,0.1c-0.3,0.4-0.8,1-1.4,1.7l-0.2,0.2l0,0l-0.3,0.3l0,0.1
			l-0.2,0.2c-0.4,0.4-0.9,0.9-1.3,1.3c-0.2,0.2-0.3,0.3-0.5,0.4l-0.2,0.2c-0.1,0.1-0.3,0.3-0.4,0.4l-0.5-0.1h-0.1l0,0h-0.1l0,0h-0.4
			l0,0h0l0,0h0v0h0v0h0v0h0v0h0v0l0,0v0l0,0l-0.9,1.8c0,0-0.1,0-0.1,0h0c-0.1,0-0.1,0-0.2,0h0c-0.6,0.1-1.5,0.3-2.2,0.7h0l-0.1,0
			c-0.2,0.1-0.3,0.2-0.4,0.3l0,0h0c-0.1,0.1-0.1,0.1-0.2,0.2l0,0l0,0c0,0,0,0-0.1,0.1h0l0,0c0,0-0.1,0.1-0.1,0.1c0,0,0,0,0,0.1l0,0
			v0l0,0l0,0l0,0c0,0,0,0.1,0,0.1l0,0l0,0.1l0,0v0l0,0l0,0v0h0L96,137.8z M110.1,133.8L110.1,133.8c0-0.1,0-0.2,0.1-0.4l0-0.1
			C110.2,133.4,110.1,133.6,110.1,133.8L110.1,133.8z M109.9,135.4L109.9,135.4z M109.9,135.5c0,0.1,0,0.2,0,0.3
			C109.9,135.7,109.9,135.6,109.9,135.5z"/>
		<path class="st24" d="M121.3,92.5l-3.3,1.6l2.3,4.7l3.2-1.6c0.5,0.5,0.9,1,1.5,1.5c0.8,0.6,1.6,1.1,2.4,1.5l-0.7,3.6l5.1,1
			l0.7-3.6c1.7-0.1,3.3-0.4,4.8-1.2l2.3,2.7l4-3.4l-2.4-2.8c1-1.4,1.7-2.9,2-4.5l3.7-0.2l-0.2-5.2l-3.6,0.2c-0.4-1.4-1-2.6-1.9-3.8
			l2.3-2.8l-4-3.3l-2.3,2.8c-1.5-0.7-3.2-1.1-4.8-1.1l-0.8-3.6l-5.1,1.1l0.8,3.5c-1.4,0.7-2.7,1.7-3.8,3c0,0,0,0.1-0.1,0.1l-3.3-1.6
			L118,86l3.3,1.6C120.9,89.2,120.9,90.9,121.3,92.5L121.3,92.5z M126.7,88.8c0.7-3.1,3.7-5,6.8-4.3c3.1,0.7,5,3.7,4.3,6.8
			c-0.7,3.1-3.7,5-6.8,4.3C127.9,94.9,126,91.9,126.7,88.8z"/>
		<path class="st24" d="M152,53.1l-2.8,2.3l3.3,4l2.8-2.3c0.6,0.4,1.1,0.8,1.8,1.1c0.9,0.4,1.8,0.7,2.7,0.9l0.1,3.6l5.2-0.1
			l-0.1-3.7c1.6-0.4,3.1-1.2,4.4-2.2l2.9,2.2l3.1-4.2l-2.9-2.2c0.7-1.6,1-3.2,0.9-4.8l3.5-1l-1.4-5l-3.5,1c-0.7-1.2-1.6-2.3-2.7-3.3
			l1.6-3.2l-4.7-2.3l-1.6,3.2c-1.6-0.4-3.3-0.4-4.9,0l-1.6-3.3l-4.7,2.2l1.6,3.3c-1.2,1-2.3,2.2-3.1,3.8c0,0,0,0.1,0,0.1l-3.5-0.8
			l-1.1,5.1l3.6,0.8C150.8,50,151.2,51.6,152,53.1L152,53.1z M156.4,48.3c0-3.1,2.5-5.7,5.7-5.7s5.7,2.5,5.7,5.7s-2.5,5.7-5.7,5.7
			S156.4,51.4,156.4,48.3z"/>
		<g>
			<path class="st24" d="M99.6,111.2c0.2-0.1,0.4-0.2,0.6-0.2c1.6-0.6,2.6-2.2,2.4-3.8c-0.3-1.8-1.6-3-3.4-3.1c-0.2,0-0.4,0-0.7-0.1
				c0.5-1,0.8-2.1,0.6-3.2c-0.3-2.2-2.2-4-4.4-4c-6.5-0.3-13-0.5-19.4-0.7c-3.2-0.1-5.5,3.1-4.5,6.2c0.1,0.3,0.2,0.5,0.3,0.8
				c-0.4,0-0.9,0-1.3,0.1c-1.7,0.3-2.9,1.5-3,3.2c-0.2,1.6,0.8,3.1,2.4,3.7c0.1,0.1,0.3,0.1,0.4,0.2L99.6,111.2z"/>
			<path class="st24" d="M88.8,47.3c-0.9-2-1.8-4-2.7-5.9c-0.5-1.2-1.1-1.4-2.2-0.8c-4.7,2.5-8.5,5.9-11.2,10.6
				c-0.2,0.4-0.2,0.7,0.1,1c1.8,1.9,3.6,3.9,5.4,5.8c0.6,0.6,0.6,1.3,0.1,1.8c-0.5,0.5-1.3,0.5-1.9-0.1c-1.6-1.6-3.1-3.3-4.6-5
				c-0.2-0.2-0.3-0.3-0.6-0.6c-0.4,1.4-0.9,2.7-1.2,4c-0.1,0.2,0.2,0.5,0.3,0.7c2.8,3,5.6,6,8.4,9c0.2,0.2,0.3,0.4,0.5,0.6
				c0.6,0.7,0.7,1.4,0.2,1.9c-0.5,0.5-1.3,0.4-1.9-0.3c-2.5-2.7-5-5.4-7.6-8.1c-0.2-0.2-0.3-0.3-0.7-0.7c-0.1,1.3-0.2,2.5-0.2,3.6
				c0,0.2,0.2,0.5,0.4,0.7c3.1,3.4,6.3,6.7,9.4,10.1c0.2,0.2,0.3,0.3,0.4,0.5c0.3,0.5,0.2,1.1-0.2,1.5c-0.5,0.4-1,0.5-1.5,0.1
				c-0.2-0.1-0.4-0.3-0.5-0.5c-2.5-2.7-5-5.3-7.4-8c-0.2-0.2-0.3-0.4-0.4-0.6l-0.2,0.1c0.1,1.1,0.2,2.2,0.3,3.3
				c0.1,0.9,0.4,1.6,1.1,2.2c2.8,2.9,5.4,5.8,8.2,8.7c0.2,0.2,0.3,0.3,0.4,0.5c0.3,0.5,0.3,1.1-0.1,1.5c-0.4,0.4-1,0.5-1.5,0.1
				c-0.2-0.1-0.3-0.3-0.5-0.5c-1.9-2.1-3.9-4.2-5.8-6.2c-0.2-0.2-0.3-0.4-0.5-0.5c0.6,5.6,1.2,11.2,1.8,16.9l26.1,0.9
				c0.1-0.5,0.2-0.9,0.2-1.4c0.6-4.4,0.5-8.8-1.4-12.9c-0.9-2.1-2.3-3.8-4.2-5.1c-2.1-1.5-3.9-3.3-5.2-5.6c-0.7-1.3-1.2-2.8-1.2-4.5
				c0.3,0.2,0.5,0.4,0.6,0.5c1.6,1.3,3.3,2.5,5.3,2.9c0.7,0.1,1.5,0,2.3,0.1c0.3,0,0.6,0.1,0.8,0.2c1.1,1,2.3,1.9,3.8,2.2
				c1.5,0.3,2.8-0.2,3.7-1.4c1-1.2,1.4-2.7,1.6-4.2c0-0.4-0.2-0.8-0.4-1.2c-3-3.8-6-7.5-9-11.3c-0.3-0.4-0.5-0.9-0.5-1.4
				c0.1-3.3,0.2-6.6,0.4-10c0-0.2,0-0.4,0-0.6c0-0.6-0.3-1-0.9-1.2c-0.5-0.2-1,0-1.3,0.5c-0.9,1.2-1.8,2.3-2.6,3.5
				C90.2,45.5,89.5,46.4,88.8,47.3L88.8,47.3z"/>
		</g>
		<path class="st23" d="M58.4,109.2l-2.8,2.3l3.3,4l2.8-2.3c0.6,0.4,1.2,0.8,1.8,1.1c0.9,0.4,1.8,0.7,2.7,0.9l0.1,3.6l5.2-0.1
			l-0.1-3.7c1.6-0.4,3.1-1.2,4.4-2.2l2.9,2.2l3.1-4.2l-2.9-2.2c0.7-1.6,1-3.2,0.9-4.8l3.5-1l-1.4-5l-3.5,0.9
			c-0.7-1.2-1.6-2.3-2.7-3.3l1.6-3.2L72.7,90l-1.6,3.2c-1.7-0.4-3.3-0.4-4.9,0l-1.6-3.3l-4.7,2.2l1.6,3.3c-1.2,1-2.3,2.2-3,3.8
			c0,0,0,0.1,0,0.1l-3.5-0.8l-1.1,5.1l3.6,0.8C57.3,106.1,57.7,107.7,58.4,109.2L58.4,109.2z M62.8,104.4c0-3.1,2.5-5.7,5.7-5.7
			s5.7,2.5,5.7,5.7s-2.5,5.7-5.7,5.7S62.8,107.5,62.8,104.4z"/>
	</g>
</g>
</svg>
