<?xml version="1.0" encoding="UTF-8"?><svg id="a" xmlns="http://www.w3.org/2000/svg" viewBox="0 0 179.1 179.1"><defs><style>.c{fill:#fff;}.d{fill:#6547d9;stroke:#4d1bd9;stroke-miterlimit:10;stroke-width:.1px;}.e{fill:#e1c119}</style></defs><g id="b"><g><circle class="c" cx="89.55" cy="89.55" r="89.55"/><path class="d" d="M91.2,50.32c2.1-.84,3.52-2.64,3.99-4.68l3.32-1.33,7.13,17.75-17.75,7.13,1.33,3.32c2.05,.47,3.84,1.89,4.68,3.99,1.37,3.4-.29,7.27-3.69,8.63-3.4,1.37-7.27-.29-8.63-3.69-.84-2.1-.53-4.37,.62-6.12l-1.33-3.32-17.75,7.13-7.13-17.75,3.32-1.33c1.76,1.16,4.03,1.47,6.12,.62,3.4-1.37,5.05-5.23,3.69-8.63-1.37-3.4-5.23-5.05-8.63-3.69-2.1,.84-3.52,2.64-3.99,4.68l-3.32,1.33-7.13-17.75,17.78-7.13-1.12-2.79c-2.05-.47-3.84-1.89-4.68-3.99-1.37-3.4,.29-7.27,3.69-8.63s7.27,.29,8.63,3.69c.84,2.1,.53,4.37-.62,6.12l1.12,2.79,17.73-7.12,7.13,17.75-3.32,1.33c-1.76-1.16-4.03-1.47-6.12-.62-3.4,1.37-5.05,5.23-3.69,8.63s5.23,5.05,8.63,3.69h0Z"/><path class="d" d="M119.37,99.33l-2.91,.98,1.85,5.46,2.92-.99c1.07,2.24,2.5,4.34,4.31,6.22l-1.95,2.38,4.47,3.65,1.94-2.38c2.18,1.38,4.53,2.36,6.96,2.97l-.38,3.06,5.72,.71,.38-3.04c2.53,0,5.05-.4,7.48-1.19l1.3,2.79,5.23-2.44-1.3-2.79c1.51-.94,2.95-2.05,4.27-3.37,.51-.51,.99-1.05,1.45-1.6l2.58,1.67,3.13-4.84-2.58-1.67c1.12-2.31,1.85-4.75,2.18-7.24l3.08,.04,.08-5.77-3.07-.04c-.27-2.5-.95-4.96-2-7.3l2.63-1.6-3-4.93-2.62,1.6c-.57-.73-1.18-1.43-1.85-2.11-1.15-1.15-2.4-2.16-3.71-3.03l1.37-2.73-5.16-2.58-1.38,2.76c-2.41-.86-4.91-1.32-7.44-1.38l-.3-3.06-5.74,.56,.3,3.06c-3.33,.74-6.54,2.19-9.37,4.37l-2.16-2.2-4.12,4.04,2.15,2.19c-1.62,2.03-2.85,4.26-3.72,6.59l-2.99-.72-1.34,5.61,2.99,.71c-.29,2.52-.18,5.07,.34,7.56l-.02,.02Zm9.73-4.85c0-7.57,6.14-13.71,13.71-13.71s13.71,6.14,13.71,13.71-6.14,13.71-13.71,13.71-13.71-6.14-13.71-13.71Z"/><path class="e" d="M129.82,146.12h.02v.03s.05,.04,.08,.07c.02,.02,.05,.04,.07,.07h0s.1,.08,.16,.12c.06,.05,.12,.09,.17,.13l.05,.03h0l.02,.02h.03l.05,.04,.04,.02h0s.05,.02,.06,.03c.05,.03,.11,.06,.17,.08,.09,.04,.18,.07,.24,.1h.04c.08,.03,.17,.07,.29,.1,.11,.02,.21,.05,.32,.06h.19l.05,.03c.08,0,.17,.01,.26,.02h.07l.07,.09-.1,.18h0l-.02,.03h0l-.02,.04-.02,.04v.02l-.03,.03h0l-.02,.04v.02l-.03,.04-.02,.04v.03l-.03,.03v.03l-.02,.02v.04l-.03,.03v.04h-.02v.05l-.02,.03v.02l-.02,.05v.05s-.02,.04-.02,.06v.35h.01v.03l.02,.02v.02h.02v.03h.02v.02h.02v.02l1.9,2.34h.03s.03,.05,.04,.06h.02l.03,.03h0s.03,.02,.05,.02h0s.04,.01,.06,.02h.05l.04,.02h.1s0,0,.02,.01h.36v-.03h.07l.05-.02h.06l.04-.02h0s.06,0,.08-.02h.05s.05-.03,.08-.04h.04s.09-.04,.13-.05h0c.05,0,.09-.03,.13-.04h.04s.06-.04,.1-.05l.06-.02s.06-.02,.09-.04h.02l.04-.02s.07-.03,.1-.04l.06-.03s.07-.03,.1-.05l.04-.02h.02s.09-.05,.14-.08l.04-.02,.18-.09h0c.05-.02,.09-.04,.14-.06l.03-.02,.12-.06,.03-.02s.09-.05,.13-.07h0l.05-.02,.12-.06,.05-.03s.08-.05,.12-.07l.04-.02s.1-.06,.15-.08h0l.06-.03,.12-.07,.06-.04,.11-.07,.07-.04,.11-.07,.06-.04,.03-.02,.09-.05,.07-.04s.09-.05,.13-.08l.06-.04c.06-.04,.13-.08,.19-.11l.03-.02c.05-.03,.1-.07,.16-.1h0l.07-.04s.09-.06,.13-.09l.07-.05,.12-.08,.08-.05,.12-.08,.08-.05,.05-.03,.08-.05,.07-.05c.05-.03,.1-.07,.15-.11l.05-.03c.07-.05,.13-.09,.2-.13l.05-.04,.12-.08,.03-.02,.09-.06,.12-.09,.09-.06,.12-.09,.09-.07,.13-.09,.09-.07,.04-.03,.09-.06,.09-.07,.14-.1,.08-.06c.05-.04,.11-.08,.16-.12l.05-.04c.07-.06,.15-.11,.22-.16l.05-.04c.06-.04,.11-.09,.17-.13l.08-.06,.14-.11,.09-.07,.13-.1,.1-.07,.08-.06,.04-.03c.06-.05,.11-.09,.17-.14l.09-.07c.07-.06,.14-.11,.21-.16l.05-.04h0c.14-.11,.28-.21,.42-.32l.03-.03,.02-.02c.11-.09,.23-.18,.35-.27l.03-.03,.04-.04c.1-.08,.19-.15,.3-.23l.03-.03h0c.12-.09,.22-.17,.33-.26l.03-.03,.16-.13,.21-.17h0l.03-.03,.1-.08s.1-.08,.14-.12l.07-.06,.03-.03,.04-.03,.1-.09,.1-.09s.09-.08,.13-.12h.03l.08-.09s.08-.08,.13-.11l.11-.09,.05-.04,.03-.03h0l.05-.04,.1-.09,.12-.11,.1-.1h0l.04-.03,.04-.03,.04-.04,.07-.06,.11-.1,.05-.05,.06-.06,.06-.05,.04-.04,.06-.05,.06-.06,.09-.09,.06-.05,.06-.06,.05-.05,.04-.04,.06-.05,.07-.06,.09-.08,.05-.05,.07-.07,.05-.05,.03-.03,.05-.05,.08-.08,.08-.08,.04-.04,.08-.08,.06-.06,.02-.02,.04-.04,.09-.09h0l.07-.07,.03-.03,.09-.09,.08-.08h0l.02-.02,.09-.09,.09-.09,.02-.02,.08-.08,.09-.1,.03-.03h0l.04-.04,.02-.02,.09-.1,.04-.05,.06-.06,.08-.08,.06-.07,.03-.03,.02-.03,.06-.06,.08-.09,.04-.04,.02-.02,.03-.03,.08-.09,.09-.09h.02l.06-.07,.08-.09,.06-.07,.04-.05,.05-.06,.07-.08,.07-.08h0l.02-.02,.04-.05,.07-.08,.02-.03h0l.05-.06,.06-.07,.04-.04,.04-.05,.05-.06,.05-.06,.03-.03h0l.04-.05,.06-.08,.03-.04,.04-.05,.06-.07,.03-.04,.04-.05,.06-.07,.03-.04,.04-.05,.05-.07,.03-.04h0l.04-.05,.05-.06v-.02h.03l.04-.07,.04-.06,.02-.03,.03-.04h0l.05-.06,.02-.03,.04-.05h0l.04-.05,.02-.03,.04-.05,.03-.05v-.02h.02l.04-.07,.03-.04,.03-.04,.03-.05,.03-.04,.03-.05,.03-.04,.02-.04,.03-.05h0l.02-.03,.02-.04,.03-.05,.02-.03,.02-.03h0l.03-.06,.02-.03,.02-.04,.02-.04,.02-.03,.02-.04h0l.02-.03,.02-.03,.02-.04,.02-.03h0l.02-.03,.02-.04v-.03l.03-.03h0l.02-.04v-.03l.03-.04v-.03l.02-.02,.02-.04v-.03h.02v-.02l.02-.04v-.03l.02-.03v-.03l.02-.03v-.03l.02-.03v-.06l.02-.02v-.08h.02v-.14s.01-.02,.01-.03v-.13l-.02-.02v-.03l-.02-.02v-.03l-.02-.02v-.02h-.02v-.03l-.03-.02h0l-1.9-2.34h-.03s-.02-.05-.04-.06h0s-.03-.02-.05-.02h-.03l-.02-.02h-.18l-.03-.02h-.51l-.02,.02h-.04l-.03,.02h-.1l-.04,.03h-.1l-.04,.03h-.05l-.03,.02-.2,.05-.03-.04v-.32c.02-.12,.03-.23,.03-.33h0c0-.19,0-.37-.02-.53v-.03c-.02-.18-.07-.34-.12-.51h0l.02,.04-.02-.07v-.02l-.02-.03-.04-.1s-.02-.04-.02-.07v-.02l-.03-.04c-.07-.16-.16-.33-.26-.46l-.02-.03s-.04-.06-.07-.08c-.02-.03-.05-.06-.07-.08l.04,.04s-.06-.07-.08-.09h0l-.02-.02h0s-.08-.08-.11-.11c-.08-.08-.19-.17-.28-.26h-.02l-.04-.04-.03-.02h0s-.05-.02-.07-.03h0s-.05-.03-.08-.05h0c-.12-.08-.26-.16-.36-.21-.1-.05-.23-.11-.35-.16-.03-.01-.07-.03-.1-.04-.03,0-.05-.02-.08-.03-.15-.05-.31-.11-.49-.16h-.06c-.17-.07-.34-.1-.54-.14-.78-.15-1.58-.19-2.32-.18-.11,0-.21,0-.31,.01h-.25s-.08,.01-.12,.01h-.08c-.1,0-.18,.01-.27,.02h-.04s-.12,0-.19,.01l-1.97-2.43h-.02s-.02-.03-.03-.04h-.02l-.02-.02h-.18l-.03-.02h-.38l-.03,.03h-.05l-.04,.02h-.04l-.04,.02h-.05l-.04,.02h-.06v.02h-.05v.02h-.02l-.04,.02h-.02l-.02,.02h-.02l-.04,.02h-.03v.02h-.03l-.04,.02-.04,.02h-.02l-.5,.21-.04,.02-.04,.02-.07,.03h0l-.07,.03h-.02l-.04,.03h0c-.12-.06-.24-.14-.34-.2-1.66-1-2.41-1.45-2.92-1.77-.24-.15-.48-.29-.72-.45l-.06-.03c-.12-.07-.23-.15-.34-.22h-.02l-.28-.2-.25-.16-.17-.1-.1-.06c-.71-.46-1.39-.92-2-1.35-.6-.43-1.11-.83-1.48-1.16-.08-.08-.16-.15-.2-.22-.02-.03-.04-.05-.07-.08h0c.21-.22,.42-.44,.63-.65l.04-.04c.08-.09,.16-.18,.27-.28,.04-.05,.09-.11,.14-.16h0c.1-.12,.16-.19,.24-.26l.12-.15,.02-.02,.03-.04-.02,.02c.05-.06,.1-.12,.14-.18v-.02s.05-.05,.08-.09c.06-.08,.12-.17,.19-.25,.02-.03,.04-.05,.06-.08,.05-.08,.09-.13,.14-.2h0l.02-.02v-.02c.07-.09,.12-.17,.17-.25v-.02h.02v-.04s.04-.05,.05-.07h0l.02-.04h0c.05-.1,.1-.19,.14-.27v-.03s.03-.05,.04-.07v-.03c.04-.07,.06-.15,.09-.23v-.02s.02-.06,.03-.12h0s.02-.11,.02-.17c.01-.16,0-.33-.03-.49,0-.04-.02-.08-.03-.12v-.03c-.09-.25-.24-.52-.48-.79-.13-.15-.29-.31-.5-.47-.05-.04-.1-.08-.16-.12h-.03l-.02-.02-.03-.02-.05-.03h0l-.03-.02h-.18l-.02-.02h-.52l-2.44,.57-.12,.03-.15,.04-.55,.14-.35,.09-.07,.02-.06,.02-.07,.02h0l-.17,.04-.37-.45,.03-.08s.02-.07,.03-.1v-.04l.02-.02h0l.03-.09v-.03c.03-.08,.06-.16,.09-.23,.01-.05,.02-.07,.02-.08h0c.02-.1,.05-.19,.08-.29l.02-.09v-.04l.02-.09,.02-.08v-.07s.03-.09,.05-.13h0c.02-.09,.04-.2,.06-.3v-.12c.05-.26,.08-.53,.09-.83h0v-.29c0-.37-.02-.75-.08-1.16v-.03l-.03-.12v-.06s-.03-.07-.03-.1v-.02s-.03-.09-.04-.14v-.05l-.02-.02v-.06l-.02-.04h0s-.02-.08-.03-.12v-.05c-.09-.29-.17-.56-.27-.81-.02-.06-.05-.12-.08-.18,0-.03-.03-.06-.04-.1-.05-.12-.1-.24-.16-.35-.24-.51-.51-.94-.78-1.31h0l-.12-.15c-1.32-1.75-3.36-2.92-5.53-3.16-.39-.05-.95-.09-1.62-.02-.57,.04-1.22,.16-1.93,.4-.13,.05-.28,.1-.39,.15h-.02l-.02,.02h0c-.07,.03-.13,.06-.2,.08l-.04,.02h-.03l-.07,.04-.05,.03-.08,.04-.07,.04-.05,.03c-.05,.03-.11,.06-.16,.09h-.02s-.07,.05-.1,.07h0c-.06,.03-.1,.06-.15,.09l-.05,.03-.06,.04s-.07,.05-.11,.07l-.02,.02-.05,.03c-.46,.29-1,.7-1.53,1.28h0c-.08,.08-.13,.15-.17,.19h0l-.05,.05h0s-.04,.05-.07,.09l-.02,.02v.02h-.02l-.16,.21c-.07,.09-.16,.21-.22,.3h0c-.06,.08-.1,.15-.15,.22l-.04,.06v.03s-.05,.07-.07,.1v.02c-.06,.08-.09,.15-.13,.19-.06,.12-.15,.26-.2,.36-.02,.04-.04,.08-.05,.12-.04,.09-.08,.19-.13,.27-.02,.04-.03,.08-.05,.12-.22,.52-.45,1.2-.56,2.03v.14h-.02v.05s-.01,.1-.02,.15v.06c-.04,.29-.05,.58-.05,.89v.27c0,.09,.02,.4,.09,.85,.02,.1,.03,.22,.06,.33v.05c.04,.18,.09,.36,.13,.53,.06,.24,.17,.57,.34,.95,.04,.09,.08,.19,.13,.29l.02,.04c.07,.15,.16,.33,.25,.49l.06,.09c.12,.22,.27,.45,.41,.65,.08,.1,.15,.21,.24,.33h0l.07,.08c.08,.11,.18,.22,.29,.35h0l.02,.02h0l.02,.02h0l.05,.04,.03,.03h0s.1,.09,.14,.13h0c.05,.05,.1,.1,.15,.14l.03,.02h.02v.02s.08,.07,.12,.1h.02l.05,.05h0l.03,.02,.02,.02s.05,.04,.07,.06h.02l.04,.04s.06,.05,.1,.08h.02l.06,.05c.11,.08,.23,.18,.33,.25l.09,.06c.06,.04,.11,.07,.17,.11h0c.2,.13,.4,.25,.62,.37,.06,.03,.12,.06,.17,.09,.03,.02,.07,.03,.1,.04h0s.07,.03,.11,.05c.06,.03,.13,.05,.19,.08h.04l.03,.03h.02l.05,.02c.1,.04,.21,.09,.31,.12h.04s.07,.02,.11,.04h.02l.04,.02h.03l.03,.02h.02l.04,.02h0s.1,.03,.14,.04h0l.1,.02h.04c.66,.21,1.29,.3,1.84,.32h.28c.16,.01,.44,.02,.75-.01,.15-.02,.29-.02,.41-.04h.06c.07-.02,.13-.02,.19-.03l.37,.45c-.59,1.23-1.18,2.46-1.77,3.69v.03h-.02v.05h-.02v.04h-.02v.04h-.02v.05h-.02v.05h-.02v.08h-.02v.27h.01v.04l.02,.03,.02,.04v.03h.02v.04l.02,.02v.03c.08,.13,.13,.24,.2,.36,0,.02,.02,.04,.04,.06v.02h.02l.02,.03h0c.04,.06,.08,.11,.12,.16,.02,.02,.03,.04,.05,.06,.03,.04,.05,.07,.08,.1h.02c.08,.12,.15,.18,.17,.22h0l.06,.06h0c.06,.04,.11,.09,.15,.12l.03,.02,.04,.03,.03,.02,.03,.02h0c.06,.03,.11,.06,.18,.09h0s.03,.01,.05,.02l.04,.02s.05,.02,.09,.03h.03s.07,.03,.11,.04h0c.27,.07,.52,.06,.76,.02h.02c.07,0,.14-.03,.21-.04h.07s.07-.04,.12-.04c.05,0,.09-.03,.14-.05h.02l.15-.06,.04-.02s.08-.03,.11-.05l.04-.02s.1-.04,.14-.06l.1-.04c.07-.03,.14-.07,.21-.09h.05c.11-.08,.17-.1,.32-.18h.03l.03-.03c.06-.04,.13-.07,.19-.1,.28-.14,.49-.27,.87-.51,.09-.06,.18-.12,.29-.18l.03-.02,.11-.07c.1-.07,.23-.15,.39-.25,.04,.05,.09,.1,.14,.17l.09,.12c.42,.71,.92,1.85,1.45,3.17l.15,.39h0l.26,.69,.04,.09,.19,.5c.34,.93,.66,1.85,.95,2.68,.11,.33,.22,.65,.33,.96,.05,.14,.1,.29,.15,.42,.1,.29,.19,.58,.28,.85l-.47,.69v.02l-.02,.02-.02,.03v.02l-.02,.02h0l-.02,.03v.02l-.03,.02h0l-.02,.03v.02h-.02v.04h-.02v.03h-.02v.03l-.03,.03h0l-.02,.03-.02,.03v.03l-.03,.03v.03h-.02v.03l-.02,.02v.03h-.02v.04l-.02,.02v.04h-.02v.04h-.02v.05l-.02,.02v.04h-.02v.07h-.02v.09h-.02v.21h.01v.04h.02v.03h.02v.02h.02l1.97,2.44c-.02,.06-.03,.12-.05,.18v.04c-.04,.1-.07,.18-.1,.31l-.02,.06c-.28,.97-.56,2.36-.47,3.64v.03s0,.06,0,.09c.02,.27,.07,.5,.12,.72,0,.03,.02,.06,.02,.09v.03c.04,.13,.09,.28,.15,.41l.03,.06h0s.04,.08,.05,.12v.02l.03,.04c.03,.07,.07,.14,.11,.21l.06,.09h0l.02,.03h0l.03,.04v.02s.05,.05,.07,.08v.02h.02s.03,.04,.05,.06h0l.02,.03,.05,.05h0l.03,.03h0l.22-.08Zm3.68-22.58h-.02c-.16-.11-.3-.21-.45-.31-.06-.04-.12-.08-.18-.11,.2,.14,.41,.27,.65,.43Zm2.18,1.38l.09,.05-.09-.05Zm.13,.07c.11,.07,.24,.15,.36,.22-.12-.07-.25-.15-.36-.22Z"/><path class="d" d="M65.74,144.79h0v.02h0s-.01,.05-.02,.06c0,.02-.01,.04-.02,.06h0l-.03,.12c-.01,.05-.02,.09-.03,.14v.04h0v.11h-.01v.17c0,.07,0,.12,.01,.16v.03h0c0,.05,.01,.11,.03,.19,.01,.07,.03,.13,.05,.2v.04l.03,.05v.03l.02,.03,.06,.15,.02,.04-.03,.07h-.63l-.04,.03h-.05v.02h-.04v.02h-.04v.02h-.03v.02h-.03v.02h-.02v.02h-.02v.02h-.01v.02h-.01v.02h0l-.84,1.74h0v.02s-.01,.02-.01,.04h0v.04h0v.03h0v.04h0v.02h0v.06l.02,.03h0v.02l.02,.03v.02l.02,.03h0v.02l.02,.03v.02l.03,.03v.02h.02l.02,.04,.02,.03,.02,.03,.02,.02h0l.03,.04,.02,.02,.03,.04,.02,.02h0s.04,.04,.06,.07h0s.04,.05,.06,.07h0l.02,.02,.05,.05,.03,.03,.04,.04h0l.02,.03,.05,.05,.03,.03,.05,.05,.02,.02h.01l.07,.07,.02,.02s.06,.05,.1,.08h0l.07,.06h.02l.07,.07,.02,.02,.08,.06h0l.02,.02,.07,.05,.03,.02,.07,.05,.02,.02,.09,.06h0l.03,.03,.07,.05,.04,.03,.07,.05,.04,.03,.07,.05,.04,.03h.02l.05,.05,.04,.03,.08,.05,.04,.02s.08,.05,.12,.08h.02l.1,.08h0l.04,.03,.08,.06,.05,.03,.08,.05,.05,.03,.08,.05,.05,.03,.03,.02,.05,.03,.04,.03,.1,.06,.03,.02s.09,.05,.13,.08l.03,.02,.08,.05h.02l.06,.05,.08,.05,.06,.04,.08,.05,.06,.04,.09,.05,.06,.04,.03,.02,.06,.03,.06,.03,.09,.05,.06,.03,.11,.06,.04,.02c.05,.03,.1,.06,.16,.09l.04,.02,.12,.07,.06,.03,.1,.05,.07,.04,.1,.05,.07,.04,.05,.03,.03,.02,.12,.07,.07,.03c.05,.03,.1,.05,.15,.08l.04,.02h0l.3,.15h.02v.02c.1,.04,.18,.09,.27,.13h.02l.03,.03c.07,.04,.14,.07,.22,.11h.02v.02c.09,.04,.17,.08,.25,.12h.03l.12,.07c.05,.03,.11,.05,.16,.08h.02l.07,.05,.11,.05,.05,.02h.03l.03,.03,.08,.04,.08,.04,.1,.05h.02l.06,.04,.1,.04,.08,.04,.04,.02h.02v.02h.04l.08,.05,.1,.04,.08,.04h.03l.03,.03,.04,.02,.05,.02,.08,.04,.04,.02,.05,.02,.05,.02,.04,.02,.05,.02,.05,.02,.08,.03,.05,.02,.05,.02,.04,.02h.03l.05,.03,.06,.02,.07,.03,.04,.02,.06,.02,.04,.02h.03l.04,.03,.06,.03,.07,.03h.04l.07,.04,.05,.02h.02l.03,.02,.08,.03h0l.06,.02h.02l.08,.04,.06,.02h.02l.08,.04,.08,.03h.02l.07,.03,.08,.03h.03l.03,.02h.02l.08,.04h.04l.05,.03,.07,.02,.05,.02h.03l.02,.02,.05,.02,.07,.03h.04l.02,.02h.02l.07,.03,.08,.03h.02l.05,.02,.08,.03,.06,.02h.04l.05,.03,.07,.02,.06,.02h.02l.04,.02,.06,.02h.03l.05,.02,.06,.02h.04l.04,.02,.05,.02h.04l.03,.02h.04l.06,.03h.03l.04,.02,.06,.02h.03l.04,.02,.06,.02h.03l.04,.02h.05l.03,.02h.04l.05,.02h.03l.04,.02h.04l.03,.02h.04l.04,.02h.07v.02h.07l.04,.02h.06l.04,.02h.06l.04,.02h.07l.03,.02h.09l.03,.02h.09l.04,.02h.14l.02,.02h.48l.02-.02h.07l.02-.02h.05v-.02h.04v-.02h.04v-.02h.02v-.02h.03v-.02h.03v-.02h.02v-.02h.02v-.02h.01v-.02h.01v-.02l.84-1.73h0v-.02s.01-.02,.01-.03h0v-.04h0v-.02h0v-.02h0v-.02h0v-.02h0v-.02h0v-.02h0v-.03h0v-.02h0v-.03h-.01v-.02h0v-.03h-.01v-.02h0v-.03h-.02v-.02h0v-.02h-.02v-.02h0v-.02h-.02v-.02h0v-.02l-.02-.02v-.02h-.02v-.02h-.02v-.03l-.03-.02h0v-.02h0v-.02l-.03-.02h-.01v-.02l-.02-.02h0v-.02l-.03-.02h0v-.02h-.02l-.09-.11v-.03c.08-.03,.14-.06,.2-.09,.07-.02,.14-.05,.2-.08h0c.12-.05,.22-.09,.3-.15h.02c.1-.07,.18-.14,.27-.21h0l-.02,.02,.04-.03h.01v-.02l.06-.05,.03-.03h0l.02-.03c.08-.08,.15-.18,.2-.27v-.02s.03-.04,.04-.06l.03-.06v.03s.01-.05,.02-.07h0v-.02h.01s.02-.07,.03-.09c.02-.07,.05-.15,.07-.24h0v-.07h.01v-.05h0v-.06h0c.01-.09,.02-.19,.02-.27v-.36c-.01-.1-.03-.21-.05-.33h0v-.02h0c-.02-.13-.04-.23-.08-.36-.12-.49-.32-.97-.53-1.39l-.09-.18-.02-.04h0v-.03l-.03-.03h0l-.02-.04-.04-.07v-.02h-.01v-.02c-.04-.05-.07-.1-.09-.15v-.02h-.02s-.04-.06-.06-.11l.87-1.81h0v-.04h.01v-.03h0v-.02h0v-.02h0v-.02h0v-.02h0v-.02h0v-.02h0v-.02h0v-.02h0v-.02h0v-.03h-.01v-.02h0v-.02h-.02v-.02h0v-.02h-.02v-.02h-.01v-.02h-.02v-.03h-.02v-.02h0v-.02l-.03-.02h0v-.02l-.03-.02h0v-.02h-.01l-.02-.03h0v-.02h0v-.02h-.02v-.02h-.02l-.02-.03h-.01v-.02h-.02l-.02-.03h-.01v-.02h-.01l-.02-.03-.02-.02h0l-.25-.24-.02-.02-.02-.02-.04-.03h0l-.03-.03h-.01l-.02-.03h0c0-.09,.02-.17,.02-.26,.13-1.24,.18-1.8,.22-2.18l.06-.54v-.04c.02-.09,.03-.17,.04-.26v-.02l.03-.21,.02-.19,.02-.13v-.07c.08-.54,.16-1.06,.25-1.53,.09-.46,.17-.87,.27-1.17,.02-.07,.05-.13,.07-.18l.03-.06h0c.18,.06,.36,.12,.55,.18h.03c.07,.04,.15,.06,.24,.09,.04,0,.09,.03,.13,.04h0c.09,.03,.15,.05,.22,.06l.12,.03h.03s.1,.03,.14,.04h.01l.07,.02c.06,0,.13,.03,.19,.04h.06c.06,.02,.1,.03,.15,.04h.03c.06,0,.13,.02,.18,.03h.13c.06,0,.13,.02,.18,0h.08s.1,0,.15-.02h.01s.04,0,.08-.02h0s.07-.02,.1-.03c.1-.03,.19-.08,.28-.15,.02-.02,.04-.03,.06-.05h0v-.02c.13-.11,.24-.27,.34-.49,.05-.12,.1-.25,.14-.42,0-.04,.02-.08,.03-.12h0v-.06l.02-.03h0v-.02h0v-.02h0v-.02h0v-.02h0v-.02h0v-.02h0v-.02h0v-.02h0v-.02h0v-.02h0v-.02h0v-.02h0v-.02h0v-.02h0v-.02h-.01v-.02h-.01v-.02h-.01v-.02h0v-.02h-.01v-.02h-.01v-.02h-.01v-.02h-.01v-.02h0l-1-1.25-.05-.06-.06-.08-.23-.29-.15-.18-.03-.04-.02-.03-.03-.04h0l-.06-.09,.16-.33h.05s.05,0,.07-.01h.12c.05-.02,.11-.03,.16-.03h.06c.06-.02,.12-.03,.18-.04h.08l.05-.03h.05l.04-.02s.06-.01,.08-.02h0c.06-.02,.13-.03,.19-.05h.03l.04-.02c.16-.05,.33-.11,.5-.19h0s.06-.03,.09-.04l.06-.03h.02c.21-.11,.43-.24,.65-.38h.02l.06-.05,.03-.02,.05-.04h.01l.07-.06h0l.02-.02h.01l.02-.02h.01l.02-.03h0s.04-.04,.06-.05h0l.03-.02c.15-.12,.28-.25,.4-.37l.09-.09,.05-.05c.06-.06,.11-.13,.16-.19,.23-.28,.41-.55,.55-.81h0s.04-.07,.06-.11c.65-1.24,.77-2.75,.32-4.06-.08-.24-.21-.57-.43-.94-.18-.32-.42-.67-.76-1.01-.06-.06-.13-.14-.19-.19h0v-.02h-.01s-.07-.06-.1-.09l-.02-.02h-.01l-.04-.05-.03-.02-.05-.04-.04-.03-.03-.02s-.06-.05-.09-.07h-.01l-.06-.05h0s-.06-.05-.09-.07l-.03-.02-.04-.03-.07-.04h-.02l-.03-.03c-.29-.19-.68-.39-1.16-.54h0c-.06-.02-.11-.04-.15-.05h-.03l-.08-.03h-.04s-.1-.03-.15-.05c-.07-.02-.16-.03-.23-.05h0c-.06-.01-.11-.02-.16-.02h-.07l-.07-.02h-.01c-.06,0-.11-.01-.14-.01-.08,0-.19-.01-.27-.01h-.35c-.36,.01-.82,.07-1.33,.23h-.04l-.04,.03h-.03s-.06,.03-.09,.04h-.04c-.18,.08-.35,.15-.53,.24l-.04,.02h0l-.05,.03-.04,.02h-.02c-.05,.04-.23,.13-.47,.29-.06,.03-.12,.08-.18,.13l-.02,.02h0c-.1,.07-.19,.15-.27,.22-.12,.1-.28,.26-.46,.45-.04,.05-.09,.1-.13,.16l-.02,.02c-.07,.08-.15,.19-.22,.28l-.04,.06c-.1,.13-.19,.28-.26,.42-.04,.07-.08,.15-.12,.23h0l-.03,.06c-.04,.08-.08,.17-.12,.26h0v.02h0v.02h0v.04l-.02,.03h0s-.03,.08-.04,.12h0s-.03,.09-.04,.13v.02h-.01v.02h0l-.03,.09h0v.05h-.02v.03h0l-.02,.07h0v.04l-.03,.08h0v.06c-.03,.09-.05,.18-.07,.26v.07s-.03,.08-.03,.13h0c-.02,.15-.04,.3-.04,.46v.19h0v.26h0v.05c0,.07,.01,.14,.02,.21h0v.02h0v.07h0v.07h0v.04h0v.1h.01v.09c.08,.44,.2,.82,.34,1.15l.03,.07h0s.01,.03,.03,.07v.02h0c.04,.1,.12,.25,.21,.43,.05,.08,.09,.16,.14,.23h0l.02,.03h0s.05,.07,.07,.1l-.16,.33c-.87,0-1.75-.01-2.62-.02h-.2v.02h-.07v.02h-.04v.02h-.03v.02h-.02v.02h-.01v.02h-.02v.02h-.02l-.02,.03h-.01v.02h0v.02h-.02v.02h-.01c-.06,.08-.11,.14-.15,.21l-.02,.03h0v.02h0v.02h0s-.05,.08-.07,.11l-.02,.04s-.03,.05-.04,.07h0c-.04,.09-.05,.14-.06,.17h0l-.02,.05h0s-.03,.09-.03,.12v.06l-.02,.02v.02h0v.13h0v.12h0v.02h0s0,.05,.01,.07h0c.03,.17,.1,.32,.19,.44h0s.05,.08,.08,.12l.02,.02h0s.03,.05,.05,.07c.02,.02,.04,.05,.06,.07h.01v.02h0s.05,.04,.07,.07l.02,.02,.06,.06,.02,.02,.07,.07,.05,.04s.08,.07,.11,.09h.01v.02h.01c.06,.06,.1,.09,.18,.15h.02l.02,.03s.07,.06,.11,.08c.16,.13,.29,.21,.53,.37,.06,.04,.12,.08,.19,.12h.02l.07,.05c.07,.04,.15,.1,.25,.15-.02,.04-.04,.08-.06,.13-.01,.03-.03,.05-.05,.08-.3,.44-.82,1.04-1.44,1.7l-.19,.2h0l-.32,.34-.04,.05-.24,.24c-.44,.45-.89,.89-1.29,1.28-.16,.16-.32,.31-.47,.45l-.21,.2c-.14,.14-.28,.27-.41,.39l-.53-.08h-.1l-.02-.02h-.12l-.02-.02h-.39l-.02,.02h-.04l-.02,.02h-.03v.02h-.02v.02h-.03v.02h-.02v.02h-.01v.02h0v.02h0l-.87,1.81s-.08,0-.12,.02h-.03c-.07,0-.12,.02-.2,.03h-.04c-.64,.11-1.52,.32-2.24,.73h-.02l-.05,.04c-.15,.09-.28,.18-.38,.27l-.04,.04h-.02c-.07,.06-.14,.14-.2,.21l-.03,.03h0s-.03,.04-.05,.06h-.01l-.02,.03s-.06,.08-.09,.13c-.01,.02-.03,.04-.04,.06h0v.02h0l-.02,.03h0s-.02,.05-.03,.07h0l-.02,.06h0v.02l-.02,.04h0v.03h-.42Zm14.09-4.03h0c.02-.13,.03-.24,.05-.36l.02-.14c-.02,.15-.04,.31-.07,.49h0Zm-.2,1.65h0Zm-.01,.09c0,.08-.02,.17-.03,.27,0-.09,.02-.18,.03-.27Z"/><path class="e" d="M91.04,99.45l-3.26,1.63,2.32,4.66,3.23-1.61c.45,.53,.94,1.04,1.5,1.51,.75,.62,1.58,1.09,2.43,1.48l-.73,3.57,5.11,1.04,.72-3.58c1.65-.05,3.3-.44,4.78-1.2l2.34,2.75,3.96-3.38-2.36-2.77c1.01-1.38,1.66-2.92,1.96-4.51l3.65-.15-.22-5.2-3.61,.15c-.38-1.36-1.02-2.63-1.91-3.79l2.3-2.81-4.03-3.3-2.3,2.81c-1.52-.75-3.16-1.1-4.8-1.11l-.8-3.57-5.08,1.14,.79,3.54c-1.43,.69-2.74,1.67-3.81,2.98-.03,.03-.04,.06-.06,.1l-3.27-1.55-2.23,4.7,3.3,1.56c-.35,1.63-.33,3.31,.05,4.92l.02-.02Zm5.38-3.66c.69-3.05,3.73-4.97,6.79-4.27s4.97,3.73,4.27,6.79-3.73,4.97-6.79,4.27-4.97-3.73-4.27-6.79Z"/><path class="e" d="M121.69,60.03l-2.82,2.31,3.3,4.03,2.79-2.29c.56,.42,1.15,.81,1.8,1.14,.87,.44,1.78,.71,2.7,.9l.08,3.64,5.21-.12-.09-3.65c1.6-.42,3.12-1.16,4.4-2.23l2.89,2.16,3.11-4.17-2.92-2.18c.68-1.57,.97-3.21,.91-4.83l3.53-.96-1.37-5.02-3.49,.95c-.67-1.24-1.58-2.34-2.7-3.27l1.62-3.25-4.66-2.32-1.62,3.25c-1.65-.39-3.32-.37-4.93-.02l-1.57-3.3-4.7,2.24,1.56,3.28c-1.24,.99-2.3,2.24-3.05,3.75-.02,.04-.02,.07-.04,.11l-3.53-.79-1.13,5.08,3.56,.79c.02,1.67,.41,3.3,1.14,4.79l.02-.02Zm4.44-4.76c0-3.13,2.54-5.67,5.67-5.67s5.67,2.54,5.67,5.67-2.54,5.67-5.67,5.67-5.67-2.54-5.67-5.67Z"/><g><path class="e" d="M69.28,118.19c.19-.07,.37-.16,.56-.22,1.62-.57,2.64-2.18,2.41-3.8-.25-1.77-1.6-3.03-3.37-3.14-.21-.01-.4-.03-.66-.05,.51-1.04,.82-2.06,.64-3.21-.34-2.2-2.16-3.96-4.38-4.05-6.47-.25-12.96-.49-19.43-.69-3.2-.09-5.51,3.12-4.52,6.17l.27,.79c-.45,.02-.87,0-1.27,.06-1.65,.26-2.85,1.55-3.01,3.2-.15,1.64,.8,3.13,2.36,3.71,.15,.06,.29,.12,.44,.18l29.97,1.06Z"/><path class="e" d="M58.54,54.26c-.93-2.03-1.81-3.96-2.7-5.9-.54-1.2-1.05-1.4-2.2-.79-4.72,2.47-8.55,5.87-11.18,10.55-.24,.43-.19,.66,.13,.99,1.83,1.93,3.64,3.88,5.44,5.83,.56,.6,.6,1.28,.14,1.78-.5,.54-1.26,.49-1.86-.14-1.55-1.65-3.1-3.32-4.64-4.97-.17-.18-.35-.35-.63-.64-.44,1.39-.86,2.67-1.2,3.97-.06,.21,.16,.55,.35,.74,2.79,3.01,5.58,6,8.38,9.01,.17,.19,.35,.37,.52,.55,.65,.7,.71,1.43,.16,1.93-.54,.5-1.26,.4-1.91-.3-2.52-2.69-5.03-5.4-7.55-8.09-.17-.18-.34-.35-.66-.66-.09,1.31-.2,2.46-.24,3.62,0,.22,.22,.47,.41,.67,3.13,3.37,6.28,6.74,9.42,10.11,.15,.17,.32,.32,.45,.51,.32,.47,.25,1.13-.18,1.51-.47,.41-.98,.47-1.51,.1-.2-.14-.37-.34-.54-.53-2.49-2.66-4.96-5.33-7.45-8-.15-.17-.25-.38-.38-.57l-.23,.11c.12,1.09,.24,2.18,.33,3.27,.07,.89,.44,1.56,1.06,2.21,2.75,2.89,5.45,5.82,8.17,8.74,.15,.17,.32,.33,.45,.51,.33,.48,.27,1.1-.14,1.51-.41,.4-1.03,.46-1.51,.12-.18-.13-.34-.31-.5-.47-1.94-2.08-3.88-4.15-5.81-6.23-.17-.18-.25-.43-.47-.48,.6,5.62,1.19,11.22,1.79,16.89l26.1,.92c.08-.46,.18-.91,.24-1.39,.58-4.42,.51-8.78-1.37-12.94-.94-2.08-2.28-3.82-4.2-5.14-2.14-1.47-3.9-3.32-5.16-5.62-.73-1.34-1.2-2.76-1.18-4.47,.27,.21,.46,.35,.64,.5,1.61,1.27,3.27,2.47,5.33,2.88,.75,.15,1.54,.03,2.31,.06,.28,.01,.62,.05,.83,.23,1.15,.96,2.32,1.86,3.84,2.17,1.53,.31,2.77-.19,3.7-1.39,.95-1.23,1.39-2.68,1.57-4.2,.04-.37-.19-.84-.45-1.16-2.97-3.79-5.97-7.54-8.98-11.31-.35-.43-.51-.86-.49-1.43,.14-3.32,.25-6.64,.36-9.95,0-.2,.02-.41,.01-.62-.02-.58-.28-1.02-.86-1.2-.54-.17-.99,.04-1.33,.48-.88,1.17-1.76,2.34-2.64,3.51-.64,.85-1.29,1.71-1.98,2.64v-.03Z"/></g><path class="d" d="M28.12,116.12l-2.82,2.31,3.3,4.03,2.79-2.29c.56,.42,1.15,.81,1.8,1.14,.87,.44,1.78,.71,2.7,.9l.08,3.64,5.21-.12-.09-3.65c1.6-.42,3.12-1.16,4.4-2.23l2.89,2.16,3.11-4.17-2.92-2.18c.68-1.57,.97-3.21,.91-4.83l3.53-.96-1.37-5.02-3.49,.95c-.67-1.24-1.58-2.34-2.7-3.27l1.62-3.25-4.66-2.32-1.62,3.25c-1.65-.39-3.32-.37-4.93-.02l-1.57-3.3-4.7,2.24,1.56,3.28c-1.24,.99-2.3,2.24-3.05,3.75-.02,.04-.02,.07-.04,.11l-3.53-.79-1.13,5.08,3.56,.79c.02,1.67,.41,3.3,1.14,4.79l.02-.02Zm4.44-4.76c0-3.13,2.54-5.67,5.67-5.67s5.67,2.54,5.67,5.67-2.54,5.67-5.67,5.67-5.67-2.54-5.67-5.67Z"/></g></g></svg>